SplineFontDB: 3.0
FontName: GM
FullName: GM
FamilyName: GM
Weight: Regular
Copyright: \n
Version: 0.1
ItalicAngle: 0
UnderlinePosition: -200
UnderlineWidth: 40
Ascent: 782
Descent: 218
InvalidEm: 0
sfntRevision: 0x0000199a
LayerCount: 2
Layer: 0 0 "Back" 1
Layer: 1 0 "Fore" 0
XUID: [1021 70 263418660 4585]
StyleMap: 0x0040
FSType: 12
OS2Version: 4
OS2_WeightWidthSlopeOnly: 0
OS2_UseTypoMetrics: 1
CreationTime: 1409921248
ModificationTime: 1522162054
PfmFamily: 17
TTFWeight: 400
TTFWidth: 5
LineGap: 200
VLineGap: 0
Panose: 2 0 5 3 0 0 0 0 0 0
OS2TypoAscent: 782
OS2TypoAOffset: 0
OS2TypoDescent: -218
OS2TypoDOffset: 0
OS2TypoLinegap: 200
OS2WinAscent: 2274
OS2WinAOffset: 0
OS2WinDescent: 1774
OS2WinDOffset: 0
HheadAscent: 782
HheadAOffset: 0
HheadDescent: -218
HheadDOffset: 0
OS2SubXSize: 650
OS2SubYSize: 699
OS2SubXOff: 0
OS2SubYOff: 140
OS2SupXSize: 650
OS2SupYSize: 699
OS2SupXOff: 0
OS2SupYOff: 479
OS2StrikeYSize: 49
OS2StrikeYPos: 258
OS2CapHeight: 662
OS2XHeight: 450
OS2CodePages: 60000193.0dd40000
OS2UnicodeRanges: a10000ef.4201f9ee.02000000.00000000
Lookup: 3 0 0 "'aalt' Access All Alternates in Mathematical Alphanumeric Symbols lookup 0" { "'aalt' Access All Alternates in Mathematical Alphanumeric Symbols lookup 0 subtable"  } ['aalt' ('math' <'dflt' > ) ]
Lookup: 1 0 0 "'dtls' Dotless Forms in Mathematical Alphanumeric Symbols lookup 1" { "'dtls' Dotless Forms in Mathematical Alphanumeric Symbols lookup 1 subtable"  } ['dtls' ('math' <'dflt' > ) ]
Lookup: 3 0 0 "'ssty' Script Style in Mathematical Alphanumeric Symbols lookup 2" { "'ssty' Script Style in Mathematical Alphanumeric Symbols lookup 2 subtable"  } ['ssty' ('math' <'dflt' > ) ]
Lookup: 258 0 0 "mkn" { "mkn-1"  } []
MarkAttachClasses: 1
DEI: 91125
LangName: 1033 "" "" "" "FontForge : GM : 27-3-2018" "" "Version 1.543" "" "Please refer to the Copyright section for the font trademark attribution notices." "" "" "" "" "" "" "" "" "TeX Gyre Termes Math" "Regular"
MATH:ScriptPercentScaleDown: 74

StartChar: exclam
Encoding: 33 33 2
Width: 285
GlyphClass: 2
Flags: MW
HStem: -14 120<143.5 176.5>
VStem: 100 120<29.5 62.5> 114 92<566.5 611.5>
LayerCount: 2
Fore
SplineSet
114 598 m 0xa0
 114 625 134 649 161 649 c 0
 188 649 206 625 206 598 c 0
 206 535 187.916015625 357.375976562 176 244 c 0
 173.6796875 221.921875 168 205 158 205 c 0
 148 205 143 215 140 244 c 0
 128 358 114 535 114 598 c 0xa0
160 106 m 0
 193 106 220 79 220 46 c 0
 220 13 193 -14 160 -14 c 0
 127 -14 100 13 100 46 c 0xc0
 100 79 127 106 160 106 c 0
EndSplineSet
EndChar

StartChar: quotedbl
Encoding: 34 34 3
Width: 309
GlyphClass: 2
Flags: MW
HStem: 444 232<69.5 129 116 205.5>
VStem: 65 73 196 73
LayerCount: 2
Fore
SplineSet
62 620 m 0
 62 634 73 648 81 655 c 0
 97 668 108 676 124 676 c 0
 134 676 138 661 138 644 c 0
 138 592 107 505 91 469 c 0
 86 457 77 444 72 444 c 0
 67 444 65 458 65 467 c 0
 66 488 65 506 65 524 c 0
 65 560 62 619 62 620 c 0
193 620 m 0
 193 634 204 648 212 655 c 0
 228 668 239 676 255 676 c 0
 265 676 269 661 269 644 c 0
 269 592 238 505 222 469 c 0
 217 457 208 444 203 444 c 0
 198 444 196 458 196 467 c 0
 197 488 196 506 196 524 c 0
 196 560 193 619 193 620 c 0
EndSplineSet
EndChar

StartChar: numbersign
Encoding: 35 35 4
Width: 468
GlyphClass: 2
Flags: MW
ItalicCorrection: 24
HStem: 201 60<27.5 41> 214 60<288 303> 402 60<142 157> 630 20G<225 234.5>
LayerCount: 2
Fore
SplineSet
149 266 m 1x30
 263 272 l 1
 296 410 l 1
 183 404 l 1
 149 266 l 1x30
134 206 m 1
 90 27 l 2
 87 14 73 12 60 12 c 0
 54 12 50 18 50 24 c 2
 50 27 l 1
 94 204 l 1
 31 201 l 2
 24 201 17 206 17 213 c 0
 17 223 20 260 41 261 c 2xb0
 108 264 l 1
 142 402 l 1
 78 399 l 2
 71 399 64 404 64 411 c 0
 64 421 67 458 88 459 c 2
 157 462 l 1
 199 633 l 2
 202 647 218 650 232 650 c 0
 237 650 240 644 240 638 c 0
 240 636 239 635 239 633 c 2
 198 464 l 1
 311 470 l 1
 354 644 l 2
 357 658 373 661 387 661 c 0
 392 661 395 655 395 649 c 0
 395 647 394 646 394 644 c 2
 352 472 l 1
 411 475 l 2
 418 475 424 471 424 464 c 0
 424 454 415 416 393 415 c 2
 337 412 l 1
 303 274 l 1
 364 277 l 2
 371 277 377 272 377 265 c 0
 377 255 368 218 346 217 c 2
 288 214 l 1x70
 245 38 l 2
 242 25 228 23 215 23 c 0
 209 23 205 29 205 35 c 2
 205 38 l 1
 248 212 l 1
 134 206 l 1
EndSplineSet
EndChar

StartChar: dollar
Encoding: 36 36 5
Width: 458
GlyphClass: 2
Flags: MW
HStem: -19 35<239 242 239 311> -15 41<181 185.5>
VStem: 83 77<496.5 526> 352 90<131 167> 394 36<515 515>
LayerCount: 2
Fore
SplineSet
259 627 m 0x20
 201 622 160 569 160 517 c 0
 160 476 193 440 231 411 c 0
 233 410 234 409 236 409 c 0
 238 409 240 411 240 413 c 2
 266 619 l 2
 266 624 264 627 259 627 c 0x20
292 367 m 0
 343 331 442 273 442 171 c 0
 442 91 386 -19 236 -19 c 0xb0
 233 -19 228 -20 227 -25 c 2
 218 -101 l 2
 217 -112 204 -116 193 -116 c 0
 185 -116 177 -109 177 -102 c 0
 180 -75 184 -49 187 -22 c 0
 187 -19 184 -15 181 -15 c 0
 145 -9 122 2 98 8 c 0
 84 11 86 15 84 20 c 0
 73 43 55 122 53 158 c 0
 53 166 62 174 73 174 c 0
 82 174 113 62 185 26 c 0
 186 26 188 25 189 25 c 0
 191 25 193 26 193 28 c 2
 226 297 l 2
 226 300 226 305 214 314 c 0
 145 362 83 417 83 497 c 0
 83 555 137 651 261 659 c 0
 267 660 271 662 271 665 c 2
 275 691 l 2
 277 704 291 708 304 708 c 0
 311 708 317 700 317 693 c 0
 316 683 314 674 313 665 c 0
 313 662 314 659 319 658 c 0
 359 655 383 647 398 644 c 0
 409 642 414 632 416 622 c 0
 422 588 430 550 430 515 c 0
 430 506 425 490 420 490 c 0
 415 490 398 500 394 515 c 0x68
 380 566 342 618 311 618 c 0
 309 618 307 615 307 613 c 2
 279 386 l 2
 278 378 278 377 292 367 c 0
264 270 m 2
 234 26 l 2x70
 234 18 236 16 242 16 c 0
 317 21 352 54 352 148 c 0
 352 186 288 261 266 276 c 0
 265 277 265 274 264 270 c 2
EndSplineSet
EndChar

StartChar: percent
Encoding: 37 37 6
Width: 735
GlyphClass: 2
Flags: MW
HStem: -14 24<531.5 576 531.5 590.5> 268 24<164.5 209 164.5 223.5> 321 27<530.5 570.5> 603 27<163.5 203.5> 635 20G<578.5 590.5>
VStem: 49 70<427.5 491> 249 70<412 475.5> 416 70<145.5 209> 616 70<130 193.5>
LayerCount: 2
Fore
SplineSet
136 -11 m 2
 548 638 l 2
 557 652 570 655 587 655 c 0
 594 655 601 648 601 642 c 0
 601 641 601 639 600 638 c 2
 188 -11 l 2
 180 -24 167 -26 152 -26 c 0
 144 -26 135 -20 135 -14 c 0
 135 -13 135 -12 136 -11 c 2
194 630 m 0
 277 630 319 544 319 459 c 0
 319 365 271 268 176 268 c 0
 90 268 49 356 49 448 c 0
 49 534 103 630 194 630 c 0
183 603 m 0
 144 603 119 524 119 463 c 0
 119 392 142 292 187 292 c 0
 231 292 249 378 249 442 c 0
 249 509 224 603 183 603 c 0
561 348 m 0
 644 348 686 262 686 177 c 0
 686 83 638 -14 543 -14 c 0
 457 -14 416 74 416 166 c 0
 416 252 470 348 561 348 c 0
550 321 m 0
 511 321 486 242 486 181 c 0
 486 110 509 10 554 10 c 0
 598 10 616 96 616 160 c 0
 616 227 591 321 550 321 c 0
EndSplineSet
EndChar

StartChar: ampersand
Encoding: 38 38 7
Width: 788
GlyphClass: 2
Flags: MW
HStem: -15 49<583.5 613.5> -15 65<201.5 258.5> 382 20G 384 28 571 28<259.5 298>
VStem: 37 80<126.5 176> 147 60<486.5 524> 347 60<472 511>
LayerCount: 2
Fore
SplineSet
279 376 m 1x2f
 292 382 l 2
 338 403 347 451 347 493 c 0
 347 529 319 571 277 571 c 0
 242 571 207 548 207 513 c 0
 207 460 252 408 264 393 c 2
 279 376 l 1x2f
240 334 m 1
 219 326 l 2
 126 290 117 216 117 157 c 0
 117 96 171 50 232 50 c 0x4f
 304 50 349 79 398 131 c 2
 407 140 l 1
 395 159 l 2
 362 210 309 259 252 321 c 2
 240 334 l 1
724 412 m 0x1f
 727 412 736 407 736 403 c 0
 736 395 720 385 711 384 c 0
 680 382 654 367 638 353 c 0
 625 342 459 165 459 165 c 1
 476 141 l 2
 518 80 546 34 621 34 c 0
 649 34 658 42 681 57 c 0
 686 60 692 62 698 62 c 0
 707 62 708 50 708 40 c 0
 708 31 641 -15 586 -15 c 0x9f
 511 -15 483 21 432 101 c 2
 419 122 l 1
 413 116 l 2
 350 48 305 -15 212 -15 c 0
 124 -15 37 34 37 123 c 0
 37 229 109 298 205 342 c 2
 225 351 l 1
 210 367 l 2
 191 389 147 430 147 489 c 0
 147 559 215 599 284 599 c 0
 347 599 407 559 407 496 c 0
 407 433 371 384 310 361 c 2
 296 356 l 1
 305 346 l 2
 354 290 395 259 435 201 c 2
 447 183 l 1
 465 202 l 2
 513 253 575 337 575 352 c 0
 575 360 564 377 547 380 c 0
 544 381 535 388 535 391 c 0
 535 401 553 402 557 402 c 0x6f
 563 402 613 397 628 397 c 0
 658 397 700 412 724 412 c 0x1f
EndSplineSet
EndChar

StartChar: quotesingle
Encoding: 39 39 8
Width: 178
GlyphClass: 2
Flags: MW
HStem: 444 232<69.5 129>
VStem: 65 73
LayerCount: 2
Fore
SplineSet
62 620 m 0
 62 634 73 648 81 655 c 0
 97 668 108 676 124 676 c 0
 134 676 138 661 138 644 c 0
 138 592 107 505 91 469 c 0
 86 457 77 444 72 444 c 0
 67 444 65 458 65 467 c 0
 66 488 66 506 66 524 c 0
 66 560 62 619 62 620 c 0
EndSplineSet
EndChar

StartChar: parenleft
Encoding: 40 40 9
Width: 315
GlyphClass: 2
Flags: MW
GlyphVariantsVertical: parenleft parenleft.v1 parenleft.v2 parenleft.v3 parenleft.v4 parenleft.v5 parenleft.v6
GlyphCompositionVertical: 3  uni239D%0,0,198,1202 uni239C%1,396,396,396 uni239B%0,198,0,1202
HStem: 685 20G<238 246.5>
VStem: 40 60<196 354>
LayerCount: 2
Fore
SplineSet
264 -192 m 0
 264 -206 250 -214 237 -214 c 0
 231 -214 225 -212 220 -207 c 0
 149 -136 40 99 40 269 c 0
 40 439 145 623 216 694 c 0
 222 700 233 705 243 705 c 0
 250 705 265 698 265 689 c 0
 265 687 254 672 252 670 c 0
 181 599 100 451 100 281 c 0
 100 111 177 -102 248 -173 c 0
 250 -175 264 -190 264 -192 c 0
EndSplineSet
EndChar

StartChar: parenright
Encoding: 41 41 10
Width: 316
GlyphClass: 2
Flags: MW
GlyphVariantsVertical: parenright parenright.v1 parenright.v2 parenright.v3 parenright.v4 parenright.v5 parenright.v6
GlyphCompositionVertical: 3  uni23A0%0,0,198,1202 uni239F%1,396,396,396 uni239E%0,198,0,1202
HStem: 684 20G<61.5 72>
VStem: 206 60<196 352>
LayerCount: 2
Fore
SplineSet
266 281 m 0
 266 111 154 -136 83 -207 c 0
 79 -211 73 -213 66 -213 c 0
 52 -213 36 -205 36 -195 c 0
 36 -192 43 -184 46 -181 c 0
 117 -110 206 97 206 267 c 0
 206 437 119 608 48 679 c 0
 45 682 40 688 40 691 c 0
 40 700 56 704 67 704 c 0
 77 704 84 701 91 694 c 0
 162 623 266 451 266 281 c 0
EndSplineSet
EndChar

StartChar: asterisk
Encoding: 42 42 11
Width: 340
GlyphClass: 2
Flags: MW
TopAccentHorizontal: 221
HStem: 372 298<151 190> 428 21G<60 66> 451 21G<288.5 294.5>
VStem: 140 34<652 652 652 653.5> 167 34<390 390>
LayerCount: 2
Fore
SplineSet
34 577 m 0x48
 34 587 42 591 51 591 c 0
 54 591 56 591 59 590 c 0
 91 576 120 566 146 555 c 1
 143 583 141 613 140 648 c 0
 140 659 145 670 157 670 c 0x90
 166 670 173 661 174 652 c 2
 187 560 l 1
 210 576 236 592 266 610 c 0
 269 613 273 614 277 614 c 0
 285 614 295 610 295 600 c 0
 295 594 291 588 286 583 c 2
 213 525 l 1
 239 513 264 501 295 483 c 0
 302 480 307 472 307 465 c 0
 307 455 299 451 290 451 c 0x30
 287 451 285 451 282 452 c 0
 250 466 221 476 195 487 c 1
 198 459 200 429 201 394 c 0
 201 383 196 372 184 372 c 0x88
 175 372 168 381 167 390 c 2
 154 482 l 1
 131 466 105 450 75 432 c 0
 72 429 68 428 64 428 c 0
 56 428 46 432 46 442 c 0
 46 448 50 454 55 459 c 2
 128 517 l 1
 102 529 77 541 46 559 c 0
 39 562 34 570 34 577 c 0x48
EndSplineSet
EndChar

StartChar: plus
Encoding: 43 43 12
Width: 590
GlyphClass: 2
Flags: HMW
HStem: -8 21G<279 286.5> 222 50<60.5 263 74 263 263 266 332.5 334 334 519>
VStem: 270 60<6 16 16 217 217 218 280 451 451 462>
LayerCount: 2
Fore
SplineSet
330 278 m 2
 330 273 330 272 332 272 c 2
 537 272 l 2
 544 272 550 268 550 262 c 0
 550 245 538 222 519 222 c 2
 334 222 l 2
 331 222 330 221 330 218 c 2
 330 16 l 2
 330 -5 291 -8 282 -8 c 0
 276 -8 270 -1 270 6 c 2
 270 217 l 2
 270 220 269 222 266 222 c 2
 64 222 l 2
 57 222 50 228 50 234 c 0
 50 243 56 272 74 272 c 2
 263 272 l 2
 269 272 270 274 270 280 c 2
 270 451 l 2
 270 473 310 482 316 482 c 0
 323 482 330 476 330 469 c 2
 330 278 l 2
EndSplineSet
EndChar

StartChar: comma
Encoding: 44 44 13
Width: 228
GlyphClass: 2
Flags: MW
HStem: -147 23 29 88
VStem: 128 52<-30.5 -7>
LayerCount: 2
Fore
SplineSet
36 -147 m 0
 24 -147 18 -142 18 -136 c 0
 18 -131 23 -126 32 -124 c 0
 75 -115 128 -85 128 -15 c 0
 128 1 111 27 89 29 c 0
 60 32 42 49 42 71 c 0
 42 98 68 117 97 117 c 0
 145 117 180 76 180 20 c 0
 180 -81 87 -147 36 -147 c 0
EndSplineSet
EndChar

StartChar: hyphen
Encoding: 45 45 14
Width: 274
GlyphClass: 2
Flags: MW
HStem: 170 85
VStem: 29 216<174 251>
LayerCount: 2
Fore
SplineSet
35 170 m 0
 30 170 29 172 29 176 c 0
 29 198 35 229 45 230 c 0
 109 239 173 248 237 255 c 0
 241 255 245 253 245 249 c 0
 245 224 240 197 224 195 c 0
 164 186 103 176 35 170 c 0
EndSplineSet
EndChar

StartChar: period
Encoding: 46 46 15
Width: 230
GlyphClass: 2
Flags: MW
HStem: -14 110<100 130>
VStem: 60 110<26 56>
LayerCount: 2
Fore
SplineSet
115 96 m 0
 145 96 170 71 170 41 c 0
 170 11 145 -14 115 -14 c 0
 85 -14 60 11 60 41 c 0
 60 71 85 96 115 96 c 0
EndSplineSet
EndChar

StartChar: slash
Encoding: 47 47 16
Width: 399
GlyphClass: 2
Flags: W
GlyphVariantsVertical: slash slash.v1 slash.v2 slash.v3 slash.v4 slash.v5 slash.v6
LayerCount: 2
Fore
SplineSet
30 -47 m 2
 327 648 l 2
 334 663 349 665 366 665 c 0
 373 665 380 659 380 652 c 0
 380 651 379 649 379 648 c 2
 82 -47 l 2
 76 -61 61 -62 46 -62 c 0
 38 -62 29 -57 29 -50 c 0
 29 -49 30 -48 30 -47 c 2
EndSplineSet
EndChar

StartChar: zero
Encoding: 48 48 17
Width: 486
GlyphClass: 2
Flags: MW
ItalicCorrection: 4
TopAccentHorizontal: 236
HStem: -14 26<210 295 210 312> 602 28<189 274>
VStem: 38 83<245 378> 366 82<241 373>
LayerCount: 2
Fore
SplineSet
248 630 m 0
 384 630 448 461 448 316 c 0
 448 166 386 -14 238 -14 c 0
 102 -14 38 154 38 302 c 0
 38 454 100 630 248 630 c 0
229 602 m 0
 149 602 121 470 121 320 c 0
 121 170 165 12 255 12 c 0
 335 12 366 148 366 298 c 0
 366 448 319 602 229 602 c 0
EndSplineSet
EndChar

StartChar: one
Encoding: 49 49 18
Width: 362
GlyphClass: 2
Flags: MW
TopAccentHorizontal: 256
HStem: -3 25<41 41 315 315> 534 40<67 67>
VStem: 140 78<109 468 468 489>
LayerCount: 2
Fore
SplineSet
67 534 m 0
 58 535 53 544 53 554 c 0
 53 563 58 573 66 574 c 0
 124 578 169 611 205 636 c 0
 206 637 208 637 210 637 c 0
 216 637 223 633 222 628 c 0
 219 608 218 585 218 557 c 2
 218 109 l 2
 218 51 270 31 315 22 c 0
 323 20 327 14 327 8 c 0
 327 2 323 -3 315 -3 c 0
 258 -3 233 2 180 2 c 0
 126 2 95 -3 41 -3 c 0
 34 -3 30 4 30 10 c 0
 30 15 33 21 41 22 c 0
 85 31 140 50 140 109 c 2
 140 468 l 2
 140 510 92 532 67 534 c 0
EndSplineSet
EndChar

StartChar: two
Encoding: 50 50 19
Width: 485
GlyphClass: 2
Flags: MW
ItalicCorrection: 3
TopAccentHorizontal: 237
HStem: 3 58<205.5 303> 568 62<193.5 251>
VStem: 319 86<437 476>
LayerCount: 2
Fore
SplineSet
82 482 m 0
 78 474 71 468 65 468 c 0
 60 468 50 480 50 498 c 0
 50 529 137 630 250 630 c 0
 350 630 405 551 405 461 c 0
 405 413 378 346 332 290 c 0
 287 236 122 76 122 71 c 0
 122 66 128 65 136 64 c 0
 158 62 187 61 224 61 c 0
 262 61 302 62 338 64 c 0
 395 67 408 71 433 111 c 0
 438 119 447 134 458 134 c 0
 464 134 465 127 465 122 c 0
 465 112 445 71 435 21 c 0
 431 0 420 -3 413 -3 c 0
 393 -3 328 3 278 3 c 0
 228 3 66 -2 46 -2 c 0
 41 -2 26 9 26 15 c 0
 26 21 28 22 34 28 c 2
 205 205 l 2
 235 236 319 330 319 445 c 0
 319 507 282 568 220 568 c 0
 165 568 110 530 82 482 c 0
EndSplineSet
EndChar

StartChar: three
Encoding: 51 51 20
Width: 460
GlyphClass: 2
Flags: MW
TopAccentHorizontal: 244
HStem: -38 38<161 204> 570 60<173 225>
VStem: 292 79<492 493.5> 334 85<128 184.5>
LayerCount: 2
Fore
SplineSet
45 0 m 0xd0
 45 22 51 51 74 51 c 0
 86 51 93 47 101 39 c 0
 122 18 144 0 178 0 c 0
 261 0 334 63 334 146 c 0xd0
 334 223 295 304 218 304 c 0
 203 304 176 302 153 289 c 0
 146 285 134 291 136 298 c 0
 141 315 153 326 166 332 c 0
 189 343 292 395 292 466 c 0
 292 521 252 570 198 570 c 0
 95 570 79 481 64 481 c 0
 59 481 48 490 48 500 c 0
 48 535 105 630 241 630 c 0
 307 630 371 584 371 516 c 0xe0
 371 468 344 411 266 366 c 0
 262 364 262 360 267 360 c 0
 352 360 419 288 419 203 c 0
 419 53 277 -38 131 -38 c 0
 94 -38 45 -20 45 0 c 0xd0
EndSplineSet
EndChar

StartChar: four
Encoding: 52 52 21
Width: 480
GlyphClass: 2
Flags: MW
TopAccentHorizontal: 344
HStem: -3 25<184 184 436 436> 175 56 185 46 439 20G<337.5 349.5> 628 14<362 362>
VStem: 277 80<84 236 173 236 239 395>
LayerCount: 2
Fore
SplineSet
92 240 m 2xbc
 90 237 88 231 92 231 c 2xdc
 265 231 l 2
 270 231 277 235 277 239 c 2
 277 424 l 2
 277 438 278 442 286 446 c 0
 306 457 333 459 342 459 c 0
 357 459 357 437 357 395 c 2
 357 236 l 2
 357 233 359 230 362 230 c 0
 377 229 390 229 402 229 c 0
 421 229 439 230 461 231 c 0
 467 231 472 227 472 223 c 0
 472 207 455 185 451 185 c 0xbc
 436 185 418 186 402 186 c 0
 390 186 379 185 371 184 c 0
 366 183 358 179 358 178 c 2
 358 88 l 2
 358 41 405 28 436 22 c 0
 444 20 448 14 448 8 c 0
 448 2 444 -3 436 -3 c 0
 379 -3 362 2 315 2 c 0
 264 2 238 -3 184 -3 c 0
 177 -3 173 4 173 10 c 0
 173 15 176 21 184 22 c 0
 214 28 277 44 277 84 c 2
 277 173 l 2
 277 179 263 182 262 182 c 0
 180 182 124 176 19 175 c 0xdc
 14 175 9 181 9 185 c 0
 9 186 9 187 10 188 c 0
 35 219 36 217 49 235 c 2
 313 614 l 2
 321 626 333 642 343 642 c 2
 364 642 l 2
 370 642 362 628 362 628 c 1
 92 240 l 2xbc
EndSplineSet
EndChar

StartChar: five
Encoding: 53 53 22
Width: 460
GlyphClass: 2
Flags: MW
TopAccentHorizontal: 427
HStem: -38 31<72 120.5> 607 20G<343 344 344 347.5>
VStem: 310 80<160.5 235 160.5 238.5>
LayerCount: 2
Fore
SplineSet
310 187 m 0
 310 290 197 314 99 344 c 0
 53 358 47 379 47 391 c 0
 47 433 81 512 95 556 c 0
 102 576 115 587 136 592 c 0
 197 608 261 619 343 627 c 1
 344 627 l 2
 351 627 358 619 355 613 c 0
 339 583 330 548 300 545 c 0
 248 539 158 532 128 527 c 0
 114 525 85 464 84 448 c 0
 83 439 85 432 97 429 c 0
 157 414 240 400 285 376 c 0
 356 338 390 261 390 209 c 0
 390 112 341 47 285 14 c 0
 251 -6 162 -38 79 -38 c 0
 64 -38 42 -35 42 -26 c 0
 42 -16 66 -7 78 -7 c 0
 196 -7 310 68 310 187 c 0
EndSplineSet
EndChar

StartChar: six
Encoding: 54 54 23
Width: 464
GlyphClass: 2
Flags: MW
TopAccentHorizontal: 402
HStem: -14 36<225.5 261.5 225.5 288> 260 53<281.5 288.5>
VStem: 21 86<190 195 190 267.5> 353 78<137.5 172.5>
LayerCount: 2
Fore
SplineSet
218 -14 m 0
 86 -14 21 73 21 193 c 0
 21 342 104 439 142 477 c 0
 192 528 291 607 413 639 c 1
 418 639 l 2
 423 639 429 638 427 634 c 0
 421 622 408 617 401 614 c 0
 311 575 250 529 199 456 c 0
 166 408 107 299 107 195 c 2
 107 190 l 2
 108 141 126 101 144 79 c 0
 161 58 204 22 247 22 c 0
 276 22 297 30 313 43 c 0
 335 60 353 93 353 142 c 0
 353 203 315 260 262 260 c 0
 227 260 205 257 182 245 c 0
 170 239 168 248 175 256 c 0
 185 267 191 272 202 280 c 0
 217 291 263 313 300 313 c 0
 369 313 431 262 431 190 c 0
 431 85 358 -14 218 -14 c 0
EndSplineSet
EndChar

StartChar: seven
Encoding: 55 55 24
Width: 464
GlyphClass: 2
Flags: MW
TopAccentHorizontal: 263
HStem: 551 70<38.5 118>
LayerCount: 2
Fore
SplineSet
377 541 m 2
 379 545 382 550 367 551 c 2
 118 551 l 2
 97 551 60 548 41 525 c 0
 36 519 25 506 15 506 c 0
 11 506 10 509 10 514 c 0
 10 521 13 531 14 536 c 0
 21 565 30 585 30 610 c 0
 31 619 37 621 40 621 c 0
 43 621 78 618 103 617 c 0
 133 616 176 616 223 616 c 0
 322 616 433 618 452 621 c 2
 453 621 l 2
 456 621 459 613 459 608 c 0
 459 592 431 555 421 538 c 2
 107 -5 l 2
 101 -16 92 -32 88 -32 c 0
 73 -32 60 -21 60 -6 c 0
 60 -2 72 19 81 35 c 2
 377 541 l 2
EndSplineSet
EndChar

StartChar: eight
Encoding: 56 56 25
Width: 452
GlyphClass: 2
Flags: MW
TopAccentHorizontal: 249
HStem: -14 29<201 265.5 201 271> 606 24<211.5 262.5>
VStem: 45 80<122 185> 60 77<481.5 541> 324 77<474.5 530.5> 339 80<115 157>
LayerCount: 2
Fore
SplineSet
189 284 m 0xe4
 146 249 125 221 125 157 c 0
 125 87 166 15 236 15 c 0
 295 15 339 67 339 126 c 0
 339 188 279 240 221 280 c 0
 213 286 207 290 201 290 c 0
 198 290 194 288 189 284 c 0xe4
290 337 m 0
 365 288 419 248 419 167 c 0
 419 63 320 -14 222 -14 c 0
 130 -14 45 49 45 141 c 0xe4
 45 229 128 274 179 302 c 0
 188 307 184 308 176 315 c 0
 116 366 60 415 60 500 c 0
 60 582 155 630 242 630 c 0
 322 630 401 579 401 498 c 0xd8
 401 450 371 420 348 400 c 0
 329 384 318 375 295 358 c 0
 278 346 279 344 290 337 c 0
268 358 m 0
 314 396 324 444 324 505 c 0
 324 556 288 606 237 606 c 0
 186 606 137 569 137 520 c 0xd8
 137 443 184 418 254 361 c 0
 258 358 264 355 268 358 c 0
EndSplineSet
EndChar

StartChar: nine
Encoding: 57 57 26
Width: 466
GlyphClass: 2
Flags: MW
TopAccentHorizontal: 241
HStem: -31 18<28.5 65 31.5 35> 304 53<184.5 191.5> 593 36<178.5 242.5>
VStem: 33 75<451.5 475.5> 346 85<340.5 437>
LayerCount: 2
Fore
SplineSet
239 629 m 0
 336 629 431 515 431 400 c 0
 431 275 378 186 287 87 c 0
 214 7 105 -31 35 -31 c 2
 31 -31 l 2
 26 -31 21 -31 21 -26 c 0
 21 -19 28 -13 35 -13 c 0
 95 -13 193 52 257 134 c 0
 321 217 346 292 346 389 c 0
 346 485 279 593 206 593 c 0
 141 593 108 531 108 482 c 0
 108 421 158 357 211 357 c 0
 252 357 266 371 291 383 c 0
 296 385 300 376 298 372 c 0
 291 359 276 345 265 337 c 0
 250 326 210 304 173 304 c 0
 104 304 33 358 33 430 c 0
 33 521 118 629 239 629 c 0
EndSplineSet
EndChar

StartChar: colon
Encoding: 58 58 27
Width: 248
GlyphClass: 2
Flags: MW
HStem: -14 110<110 140> 263 110<110 140>
VStem: 70 110<26 56 303 333>
LayerCount: 2
Fore
SplineSet
125 373 m 0
 155 373 180 348 180 318 c 0
 180 288 155 263 125 263 c 0
 95 263 70 288 70 318 c 0
 70 348 95 373 125 373 c 0
125 96 m 0
 155 96 180 71 180 41 c 0
 180 11 155 -14 125 -14 c 0
 95 -14 70 11 70 41 c 0
 70 71 95 96 125 96 c 0
EndSplineSet
EndChar

StartChar: semicolon
Encoding: 59 59 28
Width: 228
GlyphClass: 2
Flags: MW
HStem: -147 23 29 88 263 110<91 121>
VStem: 51 110<303 333> 128 52<-30.5 -7>
LayerCount: 2
Fore
SplineSet
106 373 m 0xf0
 136 373 161 348 161 318 c 0
 161 288 136 263 106 263 c 0
 76 263 51 288 51 318 c 0
 51 348 76 373 106 373 c 0xf0
36 -147 m 0
 24 -147 18 -142 18 -136 c 0
 18 -131 23 -126 32 -124 c 0
 75 -115 128 -85 128 -15 c 0
 128 1 111 27 89 29 c 0
 60 32 42 49 42 71 c 0
 42 98 68 117 97 117 c 0
 145 117 180 76 180 20 c 0xe8
 180 -81 87 -147 36 -147 c 0
EndSplineSet
EndChar

StartChar: less
Encoding: 60 60 29
Width: 590
GlyphClass: 2
Flags: MW
HStem: -6 21G<525.5 529>
LayerCount: 2
Fore
SplineSet
133 229 m 2
 513 55 l 2
 532 46 537 16 537 7 c 0
 537 2 532 -6 526 -6 c 0
 525 -6 524 -5 523 -5 c 2
 94 195 l 2
 77 203 53 216 53 222 c 0
 53 231 66 259 86 268 c 2
 523 468 l 2
 524 468 525 469 526 469 c 0
 532 469 536 465 536 459 c 0
 536 447 525 417 505 408 c 2
 132 234 l 2
 129 233 130 230 133 229 c 2
EndSplineSet
EndChar

StartChar: equal
Encoding: 61 61 30
Width: 590
GlyphClass: 2
Flags: MW
GlyphCompositionHorizontal: 3  equal.lft%0,0,83,167 equal.ex%1,166,166,166 equal.rt%0,83,0,167
HStem: 143 50<60.5 527 74 509> 314 50<60.5 527 74 509>
LayerCount: 2
Fore
SplineSet
74 364 m 2
 527 364 l 2
 533 364 541 359 541 353 c 0
 541 352 540 351 540 350 c 0
 534 333 528 314 509 314 c 2
 64 314 l 2
 57 314 50 320 50 326 c 0
 50 335 56 364 74 364 c 2
74 193 m 2
 527 193 l 2
 533 193 541 188 541 182 c 0
 541 181 540 180 540 179 c 0
 534 162 528 143 509 143 c 2
 64 143 l 2
 57 143 50 149 50 155 c 0
 50 164 56 193 74 193 c 2
EndSplineSet
EndChar

StartChar: greater
Encoding: 62 62 31
Width: 590
GlyphClass: 2
Flags: MW
HStem: -6 21G<61 64.5>
LayerCount: 2
Fore
SplineSet
457 234 m 2
 77 408 l 2
 58 417 53 447 53 456 c 0
 53 461 58 469 64 469 c 0
 65 469 66 468 67 468 c 2
 496 268 l 2
 513 260 537 247 537 241 c 0
 537 232 524 204 504 195 c 2
 67 -5 l 2
 66 -5 65 -6 64 -6 c 0
 58 -6 54 -1 54 4 c 0
 54 16 65 46 85 55 c 2
 458 229 l 2
 461 230 460 233 457 234 c 2
EndSplineSet
EndChar

StartChar: question
Encoding: 63 63 32
Width: 387
GlyphClass: 2
Flags: MW
HStem: -14 120<163.5 196.5> 569 92<131.5 151.5>
VStem: 120 120<29.5 62.5> 128 53 144 37 290 51<393.5 491>
LayerCount: 2
Fore
SplineSet
140 661 m 0xd4
 173 661 215 644 248 611 c 0
 304 555 341 469 341 418 c 0
 341 369 319 345 299 334 c 0
 255 310 245 304 213 283 c 0
 185 265 182 236 181 204 c 0xd4
 181 194 176 181 166 181 c 0
 159 181 148 194 144 210 c 0xcc
 138 231 128 252 128 297 c 0
 128 331 166 355 229 387 c 0
 257 401 290 429 290 458 c 0
 290 524 257 572 189 573 c 0
 170 573 161 569 142 569 c 0
 121 569 100 598 100 625 c 0
 100 644 123 661 140 661 c 0xd4
180 106 m 0
 213 106 240 79 240 46 c 0
 240 13 213 -14 180 -14 c 0
 147 -14 120 13 120 46 c 0xe4
 120 79 147 106 180 106 c 0
EndSplineSet
EndChar

StartChar: at
Encoding: 64 64 33
Width: 749
GlyphClass: 2
Flags: MW
HStem: -131 40<313.5 425.5 313.5 436> 47 34<339 353.5> 325 30<364.5 414.5> 467 40<318.5 463.5>
VStem: 50 47<111.5 275.5 111.5 288> 204 71<139 216.5> 652 47<178.5 289.5>
LayerCount: 2
Fore
SplineSet
393 325 m 0
 336 325 275 273 275 175 c 0
 275 103 320 81 358 81 c 0
 382 81 398 89 418 103 c 0
 430 111 439 121 445 152 c 2
 464 255 l 2
 465 259 465 263 465 267 c 0
 465 304 436 325 393 325 c 0
492 47 m 0
 451 47 448 84 438 84 c 0
 428 84 385 47 322 47 c 0
 256 47 204 86 204 156 c 0
 204 277 305 355 415 355 c 0
 435 355 468 351 480 347 c 0
 495 342 499 341 503 341 c 0
 513 341 518 360 528 360 c 0
 532 360 549 356 546 352 c 0
 537 328 527 288 524 272 c 2
 503 140 l 2
 502 131 500 122 500 113 c 0
 500 98 504 84 518 84 c 0
 588 84 652 137 652 220 c 0
 652 359 533 467 394 467 c 0
 236 467 97 360 97 191 c 0
 97 32 234 -91 393 -91 c 0
 458 -91 550 -56 600 -14 c 0
 606 -9 613 -4 618 -4 c 0
 627 -4 632 -8 632 -17 c 0
 632 -41 490 -131 382 -131 c 0
 204 -131 50 -3 50 181 c 0
 50 395 223 507 414 507 c 0
 563 507 699 384 699 235 c 0
 699 118 599 47 492 47 c 0
EndSplineSet
EndChar

StartChar: A
Encoding: 65 65 34
Width: 692
GlyphClass: 2
Flags: MW
ItalicCorrection: 12
TopAccentHorizontal: 354
HStem: -5 36 244 43<230 417 262 417 417 422 262 424>
VStem: -2 178<4 93.5> 489 208<1 90.5>
LayerCount: 2
Fore
SplineSet
333 542 m 2
 243 302 l 2
 242 299 241 296 241 294 c 0
 241 287 249 287 262 287 c 2
 417 287 l 2
 427 287 431 287 431 292 c 0
 431 294 430 298 429 302 c 2
 350 541 l 2
 346 553 344 559 341 559 c 0
 339 559 337 553 333 542 c 2
668 -5 m 0
 640 -5 574 1 529 1 c 0
 490 1 448 0 424 0 c 0
 407 0 395 4 395 12 c 0
 395 21 410 28 428 31 c 0
 472 38 489 54 489 76 c 0
 489 105 466 183 451 233 c 0
 448 243 442 244 424 244 c 2
 233 244 l 2
 227 244 221 240 216 226 c 0
 207 200 176 100 176 87 c 0
 176 58 202 38 234 30 c 0
 257 24 267 19 267 10 c 0
 267 2 255 -1 238 -1 c 0
 220 -1 184 1 147 1 c 0
 103 1 60 -5 27 -5 c 0
 10 -5 -2 0 -2 8 c 0
 -2 17 9 24 31 31 c 0
 65 41 95 58 117 108 c 0
 192 279 237 393 304 578 c 0
 319 620 316 635 318 636 c 0
 330 640 342 643 354 651 c 0
 368 660 370 686 375 686 c 0
 380 686 382 671 385 662 c 0
 449 459 530 223 563 128 c 0
 591 48 624 35 664 28 c 0
 687 24 697 14 697 5 c 0
 697 -3 685 -5 668 -5 c 0
EndSplineSet
EndChar

StartChar: B
Encoding: 66 66 35
Width: 578
GlyphClass: 2
Flags: MW
TopAccentHorizontal: 204
HStem: -5 29 -4 41<264 306> 343 28<246 267 246 290> 627 30<246.5 330.5>
VStem: 130 78<99 108 108 307 390.5 408 408 549 549 573> 410 86<485.5 523.5> 443 94<146 227.5>
LayerCount: 2
Fore
SplineSet
287 37 m 0x7a
 365 37 443 103 443 189 c 0
 443 266 396 303 369 318 c 0
 351 328 315 343 265 343 c 0
 222 343 208 320 208 307 c 2
 208 108 l 2
 208 52 236 37 287 37 c 0x7a
178 0 m 0
 126 0 106 -5 48 -5 c 0
 31 -5 19 -2 19 6 c 0
 19 15 29 20 52 24 c 0
 102 33 130 51 130 99 c 2
 130 549 l 2
 130 597 112 618 63 622 c 0
 40 624 30 633 30 642 c 0
 30 650 42 653 59 653 c 0
 113 653 122 652 163 652 c 0
 201 652 216 657 274 657 c 0
 420 657 496 617 496 508 c 0xbc
 496 463 477 427 462 412 c 0
 441 392 428 382 395 369 c 0
 390 367 389 361 395 359 c 0
 455 340 537 310 537 194 c 0
 537 84 474 51 433 30 c 0
 391 9 339 -4 273 -4 c 0
 255 -4 218 0 178 0 c 0
254 371 m 0
 280 371 325 376 365 400 c 0
 379 408 410 437 410 495 c 0
 410 552 387 627 274 627 c 0
 219 627 208 612 208 582 c 2
 208 408 l 2
 208 373 238 371 254 371 c 0
EndSplineSet
EndChar

StartChar: C
Encoding: 67 67 36
Width: 640
GlyphClass: 2
Flags: MW
TopAccentHorizontal: 441
HStem: -15 31<322 399> 632 31<320.5 426 313 440>
VStem: 46 100<265.5 420> 576 37
LayerCount: 2
Fore
SplineSet
586 137 m 0
 592 148 606 152 611 156 c 0
 612 157 612 157 613 157 c 0
 617 157 620 147 620 138 c 0
 620 135 619 132 619 130 c 0
 615 105 601 49 586 26 c 0
 581 18 562 13 537 5 c 0
 502 -6 429 -15 369 -15 c 0
 187 -15 46 141 46 323 c 0
 46 517 216 663 410 663 c 0
 442 663 498 657 516 651 c 0
 534 645 572 636 592 633 c 0
 600 632 604 617 605 603 c 0
 609 572 612 546 613 494 c 0
 614 485 612 470 602 471 c 0
 591 472 580 485 576 508 c 0
 571 548 553 570 541 581 c 0
 531 591 486 632 394 632 c 0
 247 632 146 494 146 347 c 0
 146 184 244 16 400 16 c 0
 512 16 560 86 586 137 c 0
EndSplineSet
EndChar

StartChar: D
Encoding: 68 68 37
Width: 754
GlyphClass: 2
Flags: MW
TopAccentHorizontal: 209
HStem: -7 35<361 437 321.5 466.5> 628 31<326.5 413.5>
VStem: 129 80<99 121 121 549 549 567> 624 95<246 421>
LayerCount: 2
Fore
SplineSet
209 121 m 2
 209 40 284 28 359 28 c 0
 515 28 624 151 624 325 c 0
 624 517 482 628 345 628 c 0
 258 628 209 627 209 567 c 2
 209 121 l 2
371 -7 m 0
 351 -7 242 0 163 0 c 0
 123 0 111 -5 58 -5 c 0
 41 -5 29 -2 29 6 c 0
 29 15 39 20 62 24 c 0
 112 33 129 51 129 99 c 2
 129 549 l 2
 129 597 112 613 62 622 c 0
 39 626 29 633 29 642 c 0
 29 650 41 653 58 653 c 0
 112 653 121 651 162 651 c 2
 169 651 l 2
 212 651 313 659 340 659 c 0
 611 659 719 517 719 342 c 0
 719 150 562 -7 371 -7 c 0
EndSplineSet
EndChar

StartChar: E
Encoding: 69 69 38
Width: 535
GlyphClass: 2
Flags: MW
ItalicCorrection: 14
TopAccentHorizontal: 278
HStem: -5 29 -5 40 320 32<232.5 244 244 324 324 337> 388 20G<400.5 405.5> 618 35
VStem: 130 80<99 102 102 294 368 374 374 549 549 573> 383 32 466 25
LayerCount: 2
Fore
SplineSet
210 102 m 2xbf
 210 51 231 35 276 35 c 2
 380 35 l 2x7f
 430 35 443 43 456 53 c 0
 474 67 490 99 498 116 c 0
 502 124 505 127 512 126 c 0
 519 125 525 123 525 115 c 0
 525 97 515 38 508 12 c 0
 506 3 502 -5 494 -5 c 0
 366 -5 267 1 167 1 c 0
 122 1 106 -5 52 -5 c 0
 35 -5 23 -2 23 6 c 0
 23 15 33 20 56 24 c 0
 106 33 130 51 130 99 c 2
 130 549 l 2
 130 597 113 613 63 622 c 0
 40 626 30 633 30 642 c 0
 30 650 42 653 59 653 c 0
 134 653 166 650 236 650 c 0
 327 650 448 653 458 653 c 0
 465 653 475 651 476 644 c 0
 483 606 491 568 491 541 c 0
 491 529 483 526 477 526 c 0
 470 526 468 529 466 536 c 0
 459 558 453 581 444 591 c 0
 425 612 402 618 377 618 c 2
 246 618 l 2
 235 618 210 605 210 586 c 2
 210 374 l 2
 210 362 218 352 228 352 c 2
 324 352 l 2
 353 352 375 368 385 391 c 0
 387 396 398 408 403 408 c 0
 408 408 416 402 416 392 c 0
 416 383 413 353 413 337 c 0
 413 317 415 277 415 269 c 0
 415 260 414 252 406 252 c 0
 393 252 385 268 383 275 c 0
 373 306 354 320 337 320 c 2
 244 320 l 2
 221 320 210 317 210 294 c 2
 210 102 l 2xbf
EndSplineSet
EndChar

StartChar: F
Encoding: 70 70 39
Width: 512
GlyphClass: 2
Flags: MW
ItalicCorrection: 18
TopAccentHorizontal: 278
HStem: -5 29 318 37<287.5 350.5> 391 20G<412.5 417.5> 611 39<228.5 244 244 282.5 202.5 371> 622 31
VStem: 130 80<260.5 299.5 368.5 374 260.5 522> 396 32 461 24
LayerCount: 2
Fore
SplineSet
485 544 m 0xef
 485 532 482 523 476 523 c 0
 469 523 463 528 461 535 c 0
 454 557 447 574 438 584 c 0
 419 605 396 611 371 611 c 2
 244 611 l 2xf7
 213 611 211 587 210 561 c 0
 209 536 209 502 209 467 c 0
 209 433 209 398 210 374 c 0
 210 363 211 352 220 352 c 0
 262 352 312 355 336 355 c 0
 365 355 387 371 397 394 c 0
 399 399 410 411 415 411 c 0
 420 411 429 404 428 395 c 0
 426 372 425 356 425 340 c 0
 425 320 426 301 428 272 c 0
 428 263 427 255 419 255 c 0
 406 255 398 271 396 278 c 0
 386 309 365 317 349 317 c 0
 332 317 315 318 299 318 c 0
 276 318 255 317 234 316 c 0
 221 315 210 308 210 291 c 0
 210 230 210 167 213 101 c 0
 215 58 229 33 279 24 c 0
 302 20 312 15 312 6 c 0
 312 -2 300 -5 283 -5 c 0
 229 -5 223 2 185 2 c 0
 136 2 113 -5 59 -5 c 0
 42 -5 30 -2 30 6 c 0
 30 15 40 20 63 24 c 0
 113 33 130 51 130 100 c 2
 130 522 l 2
 130 582 119 613 69 622 c 0
 46 626 36 633 36 642 c 0
 36 650 48 653 65 653 c 0
 138 653 168 650 237 650 c 0
 328 650 462 653 462 653 c 2
 469 653 479 651 480 644 c 0
 484 621 485 558 485 544 c 0xef
EndSplineSet
EndChar

StartChar: G
Encoding: 71 71 40
Width: 729
GlyphClass: 2
Flags: MW
ItalicCorrection: 15
TopAccentHorizontal: 470
HStem: -14 37<339.5 444.5 339.5 455.5> 256 34<454.5 467> 625 38<326.5 438 313.5 451.5>
VStem: 45 99<229 403 229 410> 560 65 594 38
LayerCount: 2
Fore
SplineSet
621 624 m 0xf8
 627 582 632 538 632 512 c 0
 632 502 625 492 617 492 c 0
 603 492 598 507 594 519 c 0xf4
 586 540 579 553 563 572 c 0
 550 588 499 625 404 625 c 0
 249 625 144 482 144 324 c 0
 144 134 273 23 406 23 c 0
 483 23 516 48 528 60 c 0
 543 75 558 102 558 137 c 0
 558 154 560 177 560 195 c 0
 560 209 559 220 555 225 c 0
 538 247 477 256 457 256 c 0
 452 256 437 263 437 273 c 0
 437 283 452 290 457 290 c 0
 506 290 528 286 583 286 c 0
 618 286 636 290 672 290 c 0
 677 290 693 287 693 274 c 0
 693 265 677 257 672 256 c 0
 643 248 634 234 630 207 c 0
 626 178 625 157 625 132 c 2
 625 105 l 2
 625 98 628 95 631 89 c 0
 635 82 644 77 644 72 c 0
 644 67 644 55 630 53 c 0
 610 50 519 -14 392 -14 c 0
 207 -14 45 126 45 311 c 0
 45 509 214 663 413 663 c 0
 463 663 619 639 621 624 c 0xf8
EndSplineSet
EndChar

StartChar: H
Encoding: 72 72 41
Width: 810
GlyphClass: 2
Flags: MW
ItalicCorrection: 8
TopAccentHorizontal: 361
HStem: -5 29 302 48<212.5 595 224 595 595 597> 622 31
VStem: 130 80<99 106 106 291 355 359 359 551> 602 80<97 100 100 287 287 290.5 362 552>
LayerCount: 2
Fore
SplineSet
682 100 m 2
 682 51 687 33 737 24 c 0
 760 20 770 15 770 6 c 0
 770 -2 758 -5 741 -5 c 0
 687 -5 678 0 637 0 c 0
 595 0 584 -5 530 -5 c 0
 513 -5 501 -2 501 6 c 0
 501 15 511 20 534 24 c 0
 576 32 602 54 602 97 c 2
 602 287 l 2
 602 294 603 302 597 302 c 2
 215 302 l 2
 210 302 210 299 210 291 c 2
 210 106 l 2
 210 64 243 32 289 24 c 0
 312 20 322 15 322 6 c 0
 322 -2 310 -5 293 -5 c 0
 239 -5 222 0 176 0 c 0
 133 0 120 -5 66 -5 c 0
 49 -5 37 -2 37 6 c 0
 37 15 47 20 70 24 c 0
 120 33 130 51 130 99 c 2
 130 551 l 2
 130 597 127 613 77 622 c 0
 54 626 44 633 44 642 c 0
 44 650 56 653 73 653 c 0
 127 653 136 650 176 650 c 0
 217 650 228 653 282 653 c 0
 299 653 311 650 311 642 c 0
 311 633 301 626 278 622 c 0
 228 613 210 590 210 551 c 2
 210 359 l 2
 210 351 218 350 224 350 c 2
 595 350 l 2
 600 350 602 353 602 362 c 2
 602 552 l 2
 602 588 586 613 536 622 c 0
 513 626 503 633 503 642 c 0
 503 650 515 653 532 653 c 0
 586 653 603 650 648 650 c 0
 684 650 685 653 739 653 c 0
 756 653 768 650 768 642 c 0
 768 633 758 626 735 622 c 0
 685 613 682 590 682 552 c 2
 682 100 l 2
EndSplineSet
EndChar

StartChar: I
Encoding: 73 73 42
Width: 340
GlyphClass: 2
Flags: MW
ItalicCorrection: 10
TopAccentHorizontal: 167
HStem: -5 29 622 31
VStem: 130 80<98 550>
LayerCount: 2
Fore
SplineSet
130 550 m 2
 130 597 113 613 63 622 c 0
 40 626 30 633 30 642 c 0
 30 650 42 653 59 653 c 0
 113 653 130 650 176 650 c 0
 219 650 231 653 285 653 c 0
 302 653 314 650 314 642 c 0
 314 633 304 626 281 622 c 0
 231 613 210 597 210 550 c 2
 210 98 l 2
 210 51 239 33 289 24 c 0
 312 20 322 15 322 6 c 0
 322 -2 310 -5 293 -5 c 0
 239 -5 222 0 176 0 c 0
 126 0 102 -5 48 -5 c 0
 31 -5 19 -2 19 6 c 0
 19 15 29 20 52 24 c 0
 102 33 130 51 130 98 c 2
 130 550 l 2
EndSplineSet
EndChar

StartChar: J
Encoding: 74 74 43
Width: 300
GlyphClass: 2
Flags: MW
ItalicCorrection: 9
TopAccentHorizontal: 227
HStem: -200 42<55.5 63.5> 622 31
VStem: 130 80<37 142 142 551>
LayerCount: 2
Fore
SplineSet
64 -158 m 0
 111 -158 130 -97 130 0 c 2
 130 551 l 2
 130 597 112 613 64 622 c 0
 42 626 31 633 31 642 c 0
 31 650 43 653 60 653 c 0
 114 653 131 650 177 650 c 0
 214 650 217 653 271 653 c 0
 288 653 300 650 300 642 c 0
 300 633 290 626 267 622 c 0
 217 613 210 597 210 551 c 2
 210 142 l 2
 210 -68 185 -94 157 -134 c 0
 130 -173 93 -200 34 -200 c 0
 -31 -200 -69 -179 -69 -158 c 0
 -69 -131 -51 -103 -33 -103 c 0
 -7 -103 5 -111 17 -129 c 0
 32 -152 47 -158 64 -158 c 0
EndSplineSet
EndChar

StartChar: K
Encoding: 75 75 44
Width: 681
GlyphClass: 2
Flags: MW
ItalicCorrection: 29
TopAccentHorizontal: 355
HStem: -5 29 323 22<213.5 217.5> 622 31
VStem: 131 80<270.5 305.5 361.5 364 364 551>
LayerCount: 2
Fore
SplineSet
659 -5 m 0
 600 -5 575 0 520 0 c 0
 495 0 484 -1 439 -1 c 0
 422 -1 410 2 410 10 c 0
 410 19 418 23 437 27 c 0
 457 32 465 39 465 47 c 0
 465 55 458 63 450 72 c 2
 238 306 l 2
 230 314 220 323 215 323 c 0
 210 323 211 309 211 302 c 0
 211 239 213 190 216 110 c 0
 218 67 230 33 280 24 c 0
 303 20 313 15 313 6 c 0
 313 -2 301 -5 284 -5 c 0
 230 -5 224 2 186 2 c 0
 137 2 114 -5 60 -5 c 0
 43 -5 31 -2 31 6 c 0
 31 15 41 20 64 24 c 0
 114 33 131 51 131 101 c 2
 131 551 l 2
 131 597 114 613 64 622 c 0
 41 626 31 633 31 642 c 0
 31 650 43 653 60 653 c 0
 114 653 128 651 172 651 c 0
 210 651 215 653 269 653 c 0
 286 653 298 650 298 642 c 0
 298 633 288 626 265 622 c 0
 215 613 211 590 211 551 c 2
 211 364 l 2
 211 359 211 345 216 345 c 0
 223 345 236 355 243 363 c 2
 443 567 l 2
 453 577 458 588 458 597 c 0
 458 608 451 617 439 620 c 0
 416 626 408 631 408 640 c 0
 408 648 420 651 437 651 c 2
 491 651 l 2
 548 651 640 655 653 655 c 0
 666 655 675 651 675 644 c 0
 675 635 665 628 642 624 c 0
 592 615 536 597 490 558 c 0
 418 497 368 448 298 371 c 0
 293 366 296 360 303 353 c 2
 545 95 l 2
 588 47 598 36 655 24 c 0
 678 19 688 15 688 6 c 0
 688 -2 676 -5 659 -5 c 0
EndSplineSet
EndChar

StartChar: L
Encoding: 76 76 45
Width: 584
GlyphClass: 2
Flags: MW
ItalicCorrection: 15
TopAccentHorizontal: 153
HStem: -5 29 -5 40<287 538> 622 31
VStem: 130 80<96 560 560 567> 541 34
LayerCount: 2
Fore
SplineSet
210 567 m 2xb8
 210 96 l 2
 210 55 221 35 287 35 c 2
 433 35 l 2x78
 438 35 471 45 489 61 c 0
 515 84 524 96 541 132 c 0
 544 140 554 162 563 162 c 0
 571 162 575 152 575 144 c 0
 575 142 574 140 574 139 c 0
 560 87 551 54 547 12 c 0
 546 3 543 -5 533 -5 c 0
 399 -5 290 0 190 0 c 0
 140 0 55 -5 55 -5 c 2
 37 -5 27 0 27 7 c 0
 27 19 45 23 49 24 c 0
 101 34 130 52 130 96 c 2
 130 560 l 2
 130 608 119 613 69 622 c 0
 46 626 36 633 36 642 c 0
 36 650 48 653 65 653 c 0
 119 653 133 650 177 650 c 0
 226 650 249 653 303 653 c 0
 320 653 332 650 332 642 c 0
 332 633 322 626 299 622 c 0
 249 613 210 606 210 567 c 2xb8
EndSplineSet
EndChar

StartChar: M
Encoding: 77 77 46
Width: 901
GlyphClass: 2
Flags: MW
TopAccentHorizontal: 439
HStem: -10 21G<399.5 404> -5 29 623 33
VStem: 657 78<464 584> 669 88<96 96>
LayerCount: 2
Fore
SplineSet
735 568 m 0x70
 735 382 749 246 757 95 c 0
 759 54 782 33 832 24 c 0
 855 20 865 15 865 6 c 0
 865 -2 853 -5 836 -5 c 0
 782 -5 765 0 719 0 c 0
 678 0 668 -5 614 -5 c 0
 597 -5 585 -2 585 6 c 0
 585 15 595 21 618 24 c 0
 657 29 669 49 669 96 c 0x68
 669 240 663 329 657 464 c 0
 657 475 655 480 652 480 c 0
 650 480 646 474 641 464 c 2
 419 14 l 2
 411 -3 406 -10 402 -10 c 0xb0
 397 -10 393 1 388 16 c 0
 336 172 284 296 209 471 c 0
 203 485 198 486 196 471 c 0
 177 330 164 238 164 102 c 0
 164 76 180 33 229 24 c 0
 252 20 262 15 262 6 c 0
 262 -2 250 -5 233 -5 c 0
 179 -5 176 0 139 0 c 0
 103 0 102 -5 48 -5 c 0
 31 -5 19 -2 19 6 c 0
 19 15 29 20 52 24 c 0
 102 33 112 89 114 102 c 0
 138 282 155 454 155 538 c 0
 155 548 154 555 154 561 c 0
 154 572 150 580 139 593 c 0
 119 616 80 621 56 627 c 0
 50 629 42 635 42 644 c 0
 42 654 59 655 65 655 c 0
 102 655 205 647 231 647 c 0
 249 647 257 581 267 554 c 2
 425 153 l 2
 429 143 433 138 437 138 c 0
 440 138 444 142 448 150 c 2
 645 560 l 2
 660 592 658 648 673 648 c 2
 709 648 l 2
 752 648 800 656 820 656 c 2
 823 656 l 2
 829 656 844 655 844 646 c 0
 844 635 824 625 818 623 c 0
 784 613 735 600 735 568 c 0x70
EndSplineSet
EndChar

StartChar: N
Encoding: 78 78 47
Width: 770
GlyphClass: 2
Flags: MW
ItalicCorrection: 13
TopAccentHorizontal: 360
HStem: -17 21G<635 646> -5 30 620 38
VStem: 132 37 621 43
LayerCount: 2
Fore
SplineSet
616 650 m 2x78
 664 650 670 653 731 653 c 0
 748 653 760 650 760 642 c 0
 760 633 750 626 727 622 c 0
 677 613 665 601 664 568 c 0
 663 544 662 63 662 8 c 0
 662 -13 651 -17 641 -17 c 0xb8
 629 -17 592 2 560 46 c 0
 542 71 227 456 204 484 c 0
 194 496 188 500 183 500 c 0
 176 500 174 487 174 479 c 0
 172 380 169 227 169 104 c 0
 169 68 183 33 233 24 c 0
 256 20 266 15 266 6 c 0
 266 -2 254 -5 237 -5 c 0
 183 -5 180 0 143 0 c 0
 107 0 106 -5 52 -5 c 0
 35 -5 23 -2 23 6 c 0
 23 15 33 19 56 25 c 0
 94 35 110 66 114 107 c 0
 122 182 132 342 132 507 c 0
 132 578 92 601 33 620 c 0
 27 622 2 632 2 644 c 0
 2 656 18 658 25 658 c 0
 103 656 107 653 179 653 c 0
 191 653 196 645 203 636 c 0
 222 609 564 180 584 156 c 0
 589 150 601 136 609 136 c 0
 614 136 618 142 619 157 c 0
 620 189 621 365 621 477 c 2
 621 564 l 2
 620 590 585 615 563 619 c 0
 540 623 530 630 530 639 c 0
 530 647 542 650 559 650 c 2
 616 650 l 2x78
EndSplineSet
EndChar

StartChar: O
Encoding: 79 79 48
Width: 763
GlyphClass: 2
Flags: MW
TopAccentHorizontal: 375
HStem: -14 39<321 470 321 491.5> 625 39<301 455>
VStem: 45 97<264.5 410.5> 621 97<245 400>
LayerCount: 2
Fore
SplineSet
45 320 m 0
 45 501 166 664 390 664 c 0
 564 664 718 532 718 335 c 0
 718 155 601 -14 382 -14 c 0
 205 -14 45 130 45 320 c 0
375 625 m 0
 227 625 142 490 142 350 c 0
 142 179 247 25 395 25 c 0
 545 25 621 134 621 305 c 0
 621 495 535 625 375 625 c 0
EndSplineSet
EndChar

StartChar: P
Encoding: 80 80 49
Width: 552
GlyphClass: 2
Flags: MW
ItalicCorrection: 14
TopAccentHorizontal: 201
HStem: -5 29 254 25<306.5 360 306.5 379.5> 622 31 630 28<260 322.5>
VStem: 130 80<100 111 111 522 522 552> 441 90<420.5 519>
LayerCount: 2
Fore
SplineSet
441 458 m 0xdc
 441 580 371 630 274 630 c 0xdc
 236 630 210 618 210 588 c 2
 210 111 l 2
 210 63 227 33 277 24 c 0
 300 20 310 15 310 6 c 0
 310 -2 298 -5 281 -5 c 0
 227 -5 221 2 183 2 c 0
 132 2 107 -5 53 -5 c 0
 36 -5 24 -2 24 6 c 0
 24 15 34 20 57 24 c 0
 107 33 130 51 130 100 c 2
 130 522 l 2
 130 582 119 613 69 622 c 0
 46 626 36 633 36 642 c 0
 36 650 48 653 65 653 c 0xec
 119 653 122 652 163 652 c 0
 203 652 246 658 274 658 c 0
 423 658 531 590 531 482 c 0
 531 359 456 254 303 254 c 0
 274 254 258 265 258 273 c 0
 258 278 267 284 274 284 c 0
 280 284 293 279 320 279 c 0
 400 279 441 340 441 458 c 0xdc
EndSplineSet
EndChar

StartChar: Q
Encoding: 81 81 50
Width: 806
GlyphClass: 2
Flags: MW
ItalicCorrection: 7
TopAccentHorizontal: 361
HStem: -248 56<763 771.5> 626 36<309.5 464.5>
VStem: 45 94<267.5 406> 666 95<254 401>
LayerCount: 2
Fore
SplineSet
374 -54 m 0
 354 -38 275 6 259 10 c 0
 183 30 45 141 45 307 c 0
 45 505 194 662 402 662 c 0
 577 662 761 553 761 350 c 0
 761 112 596 18 497 -8 c 0
 485 -11 483 -14 483 -17 c 0
 483 -20 484 -23 487 -26 c 0
 526 -68 557 -93 607 -129 c 0
 674 -177 724 -192 802 -192 c 0
 826 -192 849 -189 858 -185 c 0
 864 -183 871 -181 877 -181 c 0
 883 -181 888 -183 888 -189 c 0
 888 -201 885 -206 870 -215 c 0
 832 -237 790 -248 753 -248 c 0
 657 -248 596 -219 532 -173 c 0
 480 -136 440 -106 374 -54 c 0
383 626 m 0
 236 626 139 493 139 354 c 0
 139 181 264 12 430 12 c 0
 582 12 666 184 666 324 c 0
 666 478 546 626 383 626 c 0
EndSplineSet
EndChar

StartChar: R
Encoding: 82 82 51
Width: 713
GlyphClass: 2
Flags: MW
ItalicCorrection: 20
TopAccentHorizontal: 208
HStem: -21 46<608.5 708> -5 29 627 30<250.5 334.5>
VStem: 130 80<100 110 110 282 347.5 404> 413 90<448 517.5>
LayerCount: 2
Fore
SplineSet
385 325 m 0x78
 380 323 381 318 385 312 c 0
 447 218 494 143 588 58 c 0
 623 27 656 25 703 25 c 0
 713 25 718 22 718 14 c 0
 718 -15 662 -21 637 -21 c 0xb8
 580 -21 534 -10 499 33 c 0
 450 93 416 129 347 241 c 0
 336 259 324 270 304 280 c 0
 275 294 243 300 225 302 c 0
 214 303 210 294 210 282 c 2
 210 110 l 2
 210 67 227 33 277 24 c 0
 300 20 310 15 310 6 c 0
 310 -2 298 -5 281 -5 c 0
 227 -5 221 2 183 2 c 0
 132 2 107 -5 53 -5 c 0
 36 -5 24 -2 24 6 c 0
 24 15 34 20 57 24 c 0
 107 33 130 51 130 100 c 2
 130 522 l 2
 130 582 119 613 69 622 c 0
 46 626 36 633 36 642 c 0
 36 650 48 653 65 653 c 0
 119 653 122 652 163 652 c 0
 201 652 220 657 278 657 c 0
 424 657 503 602 503 493 c 0
 503 403 440 353 385 325 c 0x78
413 477 m 0
 413 558 391 627 278 627 c 0
 223 627 215 603 214 573 c 0
 211 500 210 444 210 364 c 0
 210 331 230 329 263 329 c 0
 355 329 413 400 413 477 c 0
EndSplineSet
EndChar

StartChar: S
Encoding: 83 83 52
Width: 465
GlyphClass: 2
Flags: MW
TopAccentHorizontal: 315
HStem: -16 33<194 260.5 194 289> 631 33<220 279>
VStem: 59 77<491 540.5> 338 84<120 165>
LayerCount: 2
Fore
SplineSet
223 17 m 0
 298 17 338 62 338 132 c 0
 338 198 268 263 186 318 c 0
 116 365 59 417 59 497 c 0
 59 584 140 664 260 664 c 0
 324 664 369 644 379 644 c 0
 388 644 394 631 396 621 c 0
 397 618 405 568 405 537 c 0
 405 522 403 512 398 512 c 0
 379 512 366 525 363 540 c 0
 353 598 307 631 251 631 c 0
 189 631 136 590 136 523 c 0
 136 459 218 408 269 375 c 0
 326 338 422 262 422 160 c 0
 422 80 364 -16 214 -16 c 0
 141 -16 97 0 80 8 c 0
 67 14 61 20 59 25 c 0
 48 48 41 104 41 140 c 0
 41 149 51 169 62 169 c 0
 71 169 82 135 92 103 c 0
 111 42 165 17 223 17 c 0
EndSplineSet
EndChar

StartChar: T
Encoding: 84 84 53
Width: 670
GlyphClass: 2
Flags: MW
ItalicCorrection: 10
TopAccentHorizontal: 305
HStem: -5 29 604 38<141 556 175 204 406.5 432 432 527>
VStem: 296 80<102 557 557 558> 619 35
CounterMasks: 1 38
LayerCount: 2
Fore
SplineSet
376 102 m 2
 376 54 405 33 455 24 c 0
 478 20 488 15 488 6 c 0
 488 -2 476 -5 459 -5 c 0
 405 -5 388 0 342 0 c 0
 292 0 268 -5 214 -5 c 0
 197 -5 185 -2 185 6 c 0
 185 15 195 20 218 24 c 0
 268 33 296 54 296 102 c 2
 296 557 l 2
 296 575 294 597 278 600 c 0
 259 604 238 604 204 604 c 2
 157 604 l 2
 125 604 89 591 75 565 c 0
 69 554 49 527 34 527 c 0
 29 527 27 533 27 540 c 0
 27 546 29 554 32 560 c 0
 50 598 57 629 63 671 c 0
 66 693 75 694 80 694 c 0
 85 694 99 673 105 662 c 0
 113 648 147 642 175 642 c 2
 556 642 l 2
 585 642 604 649 614 656 c 0
 634 670 649 692 664 692 c 0
 668 692 671 679 671 669 c 0
 671 666 670 662 670 660 c 0
 661 623 654 587 654 561 c 2
 654 549 l 2
 654 537 648 517 638 517 c 0
 628 517 624 532 619 558 c 0
 614 586 591 604 527 604 c 2
 432 604 l 2
 381 604 376 599 376 558 c 2
 376 102 l 2
EndSplineSet
EndChar

StartChar: U
Encoding: 85 85 54
Width: 738
GlyphClass: 2
Flags: MW
ItalicCorrection: 11
TopAccentHorizontal: 360
HStem: -14 50<332 445.5> 620 33
VStem: 103 80<240 268 268 547 547 549> 588 57 592 43
LayerCount: 2
Fore
SplineSet
645 547 m 0xf0
 638 432 638 342 635 250 c 0
 630 95 519 -14 372 -14 c 0
 193 -14 103 87 103 240 c 2
 103 547 l 2
 103 595 79 614 57 620 c 0
 34 626 24 633 24 642 c 0
 24 650 36 653 53 653 c 0
 83 653 112 650 149 650 c 0
 180 650 208 652 229 652 c 0
 246 652 258 649 258 641 c 0
 258 632 247 628 225 621 c 0
 209 616 183 589 183 549 c 2
 183 268 l 2
 183 108 271 36 393 36 c 0
 530 36 592 140 592 296 c 0xe8
 592 340 590 434 588 511 c 0
 587 562 575 612 547 620 c 0
 533 624 514 631 514 640 c 0
 514 648 526 651 543 651 c 0
 573 651 589 650 618 650 c 0
 650 650 676 653 699 653 c 0
 716 653 728 650 728 642 c 0
 728 633 718 627 695 622 c 0
 660 615 647 587 645 547 c 0xf0
EndSplineSet
EndChar

StartChar: V
Encoding: 86 86 55
Width: 672
GlyphClass: 2
Flags: MW
ItalicCorrection: 3
TopAccentHorizontal: 357
HStem: -15 21G<313.5 323> 620 33
LayerCount: 2
Fore
SplineSet
535 650 m 0
 574 650 623 653 649 653 c 0
 666 653 678 650 678 642 c 0
 678 633 668 627 645 622 c 0
 596 611 562 571 547 535 c 2
 359 79 l 2
 354 66 330 -15 316 -15 c 0
 311 -15 296 28 286 56 c 2
 103 547 l 2
 89 584 67 610 33 620 c 0
 11 627 0 633 0 642 c 0
 0 650 12 653 29 653 c 0
 60 653 105 650 151 650 c 0
 191 650 233 652 253 652 c 0
 270 652 282 649 282 641 c 0
 282 632 272 625 249 621 c 0
 219 615 186 598 186 580 c 0
 186 572 192 542 195 533 c 2
 322 197 l 2
 329 178 335 169 340 169 c 0
 345 169 350 178 358 197 c 2
 499 547 l 2
 501 551 507 575 507 579 c 0
 507 595 464 613 440 620 c 0
 426 624 407 631 407 640 c 0
 407 648 419 651 436 651 c 0
 462 651 497 650 535 650 c 0
EndSplineSet
EndChar

StartChar: W
Encoding: 87 87 56
Width: 916
GlyphClass: 2
Flags: MW
ItalicCorrection: 16
TopAccentHorizontal: 469
HStem: -16 21G<333.5 339> 620 33
VStem: 0 187<577.5 646> 458 72<364 424.5>
LayerCount: 2
Fore
SplineSet
294 653 m 0
 325 653 352 650 388 650 c 0
 418 650 445 652 465 652 c 0
 482 652 494 649 494 641 c 0
 494 624 453 622 453 599 c 0
 453 596 454 594 455 591 c 0
 459 579 491 497 500 478 c 0
 504 469 506 465 509 465 c 0
 511 465 514 469 518 478 c 0
 534 514 553 574 558 591 c 0
 559 594 559 596 559 598 c 0
 559 622 522 624 522 641 c 0
 522 649 534 652 551 652 c 0
 580 652 584 650 603 650 c 0
 626 650 638 653 662 653 c 0
 679 653 691 650 691 642 c 0
 691 633 681 627 658 622 c 0
 615 612 607 602 590 574 c 0
 579 555 553 494 537 451 c 0
 533 441 530 429 530 420 c 0
 530 417 530 415 531 413 c 2
 634 148 l 2
 637 141 641 145 645 154 c 0
 678 242 722 388 767 541 c 0
 771 553 773 566 773 577 c 0
 773 597 765 614 743 620 c 0
 729 624 710 631 710 640 c 0
 710 648 722 651 739 651 c 0
 765 651 785 650 811 650 c 0
 844 650 876 653 901 653 c 0
 918 653 930 650 930 642 c 0
 930 633 920 627 897 622 c 0
 848 611 826 563 815 534 c 2
 654 58 l 2
 644 30 628 -12 622 -12 c 0
 617 -12 609 -2 605 7 c 0
 552 126 529 199 482 316 c 0
 478 325 476 323 471 310 c 0
 423 197 399 133 357 15 c 0
 352 1 343 -16 335 -16 c 0
 332 -16 326 -1 321 12 c 2
 105 554 l 2
 89 588 67 610 33 620 c 0
 11 627 0 633 0 642 c 0
 0 650 12 653 29 653 c 0
 60 653 84 650 118 650 c 0
 155 650 191 652 211 652 c 0
 228 652 240 649 240 641 c 0
 240 632 230 627 207 621 c 0
 191 617 187 603 187 588 c 0
 187 567 195 545 195 545 c 1
 256 389 292 303 359 152 c 0
 366 137 370 140 374 151 c 2
 452 344 l 2
 456 354 458 361 458 367 c 0
 458 375 455 383 450 396 c 2
 393 538 l 2
 376 581 332 610 298 620 c 0
 276 627 265 633 265 642 c 0
 265 650 277 653 294 653 c 0
EndSplineSet
EndChar

StartChar: X
Encoding: 88 88 57
Width: 707
GlyphClass: 2
Flags: MW
ItalicCorrection: 10
TopAccentHorizontal: 359
HStem: -5 33 622 33
VStem: 314 86<312.5 348>
LayerCount: 2
Fore
SplineSet
553 650 m 0
 592 650 640 656 667 656 c 0
 684 656 696 653 696 645 c 0
 696 636 686 631 663 625 c 0
 625 615 577 562 533 510 c 2
 418 374 l 2
 407 361 400 352 400 344 c 0
 400 341 402 338 404 334 c 2
 559 111 l 2
 589 67 628 36 666 26 c 0
 689 20 699 15 699 6 c 0
 699 -2 687 -5 670 -5 c 0
 642 -5 574 1 527 1 c 0
 486 1 448 0 424 0 c 0
 407 0 395 3 395 11 c 0
 395 20 414 27 428 31 c 0
 448 37 472 53 472 78 c 0
 472 88 469 99 460 111 c 2
 356 262 l 2
 346 276 341 276 334 267 c 2
 199 93 l 2
 193 85 190 77 190 70 c 0
 190 51 208 36 235 30 c 0
 258 24 268 19 268 10 c 0
 268 2 256 -1 239 -1 c 0
 221 -1 186 1 150 1 c 0
 105 1 57 -5 24 -5 c 0
 7 -5 -5 -2 -5 6 c 0
 -5 15 6 21 28 28 c 0
 62 38 129 72 171 124 c 2
 296 280 l 2
 307 295 314 308 314 317 c 0
 314 320 314 323 312 325 c 2
 167 529 l 2
 117 599 85 612 51 622 c 0
 29 629 18 635 18 644 c 0
 18 652 30 655 47 655 c 0
 80 655 140 650 190 650 c 0
 230 650 271 652 289 652 c 0
 306 652 318 649 318 641 c 0
 318 632 308 628 285 621 c 0
 252 611 234 606 234 590 c 0
 234 578 244 560 267 528 c 2
 358 400 l 2
 365 390 370 385 374 385 c 0
 378 385 382 389 388 397 c 2
 495 538 l 2
 511 558 521 576 521 589 c 0
 521 604 508 614 476 620 c 0
 462 623 443 631 443 640 c 0
 443 648 455 651 472 651 c 0
 496 651 523 650 553 650 c 0
EndSplineSet
EndChar

StartChar: Y
Encoding: 89 89 58
Width: 578
GlyphClass: 2
Flags: MW
ItalicCorrection: 9
TopAccentHorizontal: 363
HStem: -5 29 620 33
VStem: 264 80<108 256> 458 163<579 646>
LayerCount: 2
Fore
SplineSet
264 108 m 2
 264 256 l 2
 264 283 244 321 239 330 c 2
 122 522 l 2
 107 546 67 610 33 620 c 0
 11 627 0 633 0 642 c 0
 0 650 12 653 29 653 c 0
 59 653 100 650 146 650 c 0
 177 650 205 652 226 652 c 0
 243 652 255 649 255 641 c 0
 255 632 244 626 222 621 c 0
 203 616 190 611 190 596 c 0
 190 588 194 576 203 560 c 2
 295 395 l 2
 310 369 317 357 323 357 c 0
 331 357 338 367 356 395 c 0
 387 442 406 474 440 534 c 0
 453 556 458 573 458 585 c 0
 458 610 436 617 417 620 c 0
 403 622 384 631 384 640 c 0
 384 648 396 651 413 651 c 0
 443 651 459 650 488 650 c 0
 529 650 569 653 592 653 c 0
 609 653 621 650 621 642 c 0
 621 633 596 625 568 617 c 0
 533 607 516 581 480 526 c 0
 426 443 415 425 369 346 c 0
 344 303 344 295 344 256 c 2
 344 108 l 2
 344 63 373 33 423 24 c 0
 446 20 456 15 456 6 c 0
 456 -2 444 -5 427 -5 c 0
 373 -5 356 0 310 0 c 0
 260 0 236 -5 182 -5 c 0
 165 -5 153 -2 153 6 c 0
 153 15 163 20 186 24 c 0
 236 33 264 60 264 108 c 2
EndSplineSet
EndChar

StartChar: Z
Encoding: 90 90 59
Width: 603
GlyphClass: 2
Flags: MW
ItalicCorrection: 14
TopAccentHorizontal: 314
HStem: -2 38<270 275.5> 604 42
VStem: 36 37
LayerCount: 2
Fore
SplineSet
231 -2 m 0
 191 -2 150 -3 112 -3 c 2
 35 -3 l 2
 29 -3 28 11 28 11 c 1
 28 21 63 73 86 104 c 0
 222 290 301 395 428 588 c 0
 430 591 432 593 432 596 c 0
 432 600 428 603 413 604 c 0
 377 605 320 606 267 606 c 0
 228 606 190 606 165 604 c 0
 133 602 91 584 73 535 c 0
 68 523 60 503 45 503 c 0
 39 503 36 508 36 514 c 0
 36 522 40 533 43 541 c 0
 50 562 66 610 70 652 c 0
 71 667 80 669 85 669 c 0
 90 669 100 663 110 655 c 0
 118 649 154 647 183 647 c 0
 235 646 283 646 328 646 c 0
 411 646 485 647 559 649 c 0
 565 649 574 636 570 631 c 2
 509 550 l 2
 371 364 295 262 171 70 c 0
 169 67 168 62 168 58 c 0
 168 50 172 42 179 41 c 0
 208 38 248 36 292 36 c 0
 337 36 386 38 433 41 c 0
 481 45 529 76 557 142 c 0
 560 150 569 163 579 163 c 0
 585 163 588 159 588 150 c 0
 588 139 562 36 551 12 c 0
 547 4 543 -5 533 -5 c 0
 419 -5 320 -2 231 -2 c 0
EndSplineSet
EndChar

StartChar: bracketleft
Encoding: 91 91 60
Width: 373
GlyphClass: 2
Flags: MW
GlyphVariantsVertical: bracketleft bracketleft.v1 bracketleft.v2 bracketleft.v3 bracketleft.v4 bracketleft.v5 bracketleft.v6
GlyphCompositionVertical: 3  uni23A3%0,0,405,1216 uni23A2%1,810,810,810 uni23A1%0,405,0,1216
HStem: -200 33<143 307> 667 35
VStem: 112 48<-118.5 -105 -105 624>
LayerCount: 2
Fore
SplineSet
150 702 m 2
 315 701 l 2
 324 701 333 698 333 688 c 0
 333 678 320 674 307 673 c 2
 199 667 l 2
 184 667 160 643 160 624 c 2
 160 -105 l 2
 160 -132 177 -152 195 -154 c 2
 307 -167 l 2
 320 -169 333 -173 333 -185 c 0
 333 -197 319 -200 307 -200 c 2
 143 -200 l 2
 120 -200 112 -199 112 -175 c 2
 112 668 l 2
 112 702 118 702 150 702 c 2
EndSplineSet
EndChar

StartChar: backslash
Encoding: 92 92 61
Width: 399
GlyphClass: 2
Flags: W
GlyphVariantsVertical: backslash backslash.v1 backslash.v2 backslash.v3 backslash.v4 backslash.v5 backslash.v6
LayerCount: 2
Fore
SplineSet
378 -47 m 2
 378 -48 379 -49 379 -50 c 0
 379 -57 370 -62 362 -62 c 0
 347 -62 332 -61 326 -47 c 2
 29 648 l 2
 29 649 28 651 28 652 c 0
 28 659 35 665 42 665 c 0
 59 665 74 663 81 648 c 2
 378 -47 l 2
EndSplineSet
EndChar

StartChar: bracketright
Encoding: 93 93 62
Width: 373
GlyphClass: 2
Flags: MW
GlyphVariantsVertical: bracketright bracketright.v1 bracketright.v2 bracketright.v3 bracketright.v4 bracketright.v5 bracketright.v6
GlyphCompositionVertical: 3  uni23A6%0,0,405,1216 uni23A5%1,810,810,810 uni23A4%0,405,0,1216
HStem: -200 33<56 62 62 226> 673 28<49.5 62>
VStem: 209 48<-105 624 624 633.5>
LayerCount: 2
Fore
SplineSet
219 702 m 2
 251 702 257 702 257 668 c 2
 257 -175 l 2
 257 -199 249 -200 226 -200 c 2
 62 -200 l 2
 50 -200 36 -197 36 -185 c 0
 36 -173 49 -169 62 -167 c 2
 174 -154 l 2
 192 -152 209 -132 209 -105 c 2
 209 624 l 2
 209 643 185 667 170 667 c 2
 62 673 l 2
 49 674 36 678 36 688 c 0
 36 698 45 701 54 701 c 2
 219 702 l 2
EndSplineSet
EndChar

StartChar: asciicircum
Encoding: 94 94 63
Width: 500
GlyphClass: 2
Flags: MW
ItalicCorrection: 5
HStem: 284 319
LayerCount: 2
Fore
SplineSet
250 603 m 1
 276 566 408 375 449 305 c 0
 451 302 452 298 452 295 c 0
 452 289 448 284 443 284 c 2
 441 284 l 2
 429 287 410 295 404 302 c 0
 368 341 284 470 254 514 c 0
 249 520 248 520 244 514 c 0
 214 470 123 332 96 302 c 0
 89 295 71 287 59 284 c 2
 57 284 l 2
 52 284 48 289 48 295 c 0
 48 298 49 302 51 305 c 0
 89 369 222 564 250 603 c 1
EndSplineSet
EndChar

StartChar: underscore
Encoding: 95 95 64
Width: 500
GlyphClass: 2
Flags: MW
ItalicCorrection: 28
HStem: -182 50<10.5 487 24 469>
LayerCount: 2
Fore
SplineSet
24 -132 m 2
 487 -132 l 2
 493 -132 501 -137 501 -143 c 0
 501 -144 500 -145 500 -146 c 0
 494 -163 488 -182 469 -182 c 2
 14 -182 l 2
 7 -182 0 -176 0 -170 c 0
 0 -161 6 -132 24 -132 c 2
EndSplineSet
EndChar

StartChar: grave
Encoding: 96 96 65
Width: 279
GlyphClass: 2
Flags: MW
TopAccentHorizontal: 128
HStem: 449 215<66 209.5>
VStem: 40 178<457.5 643>
LayerCount: 2
Fore
SplineSet
40 636 m 0
 40 650 57 664 75 664 c 0
 97 664 114 655 125 637 c 0
 146 603 218 477 218 462 c 0
 218 453 214 449 205 449 c 0
 196 449 183 464 178 471 c 0
 98 582 40 617 40 636 c 0
EndSplineSet
EndChar

StartChar: a
Encoding: 97 97 66
Width: 399
GlyphClass: 2
Flags: MW
ItalicCorrection: 26
TopAccentHorizontal: 220
HStem: -14 46<100.5 177 327.5 337> 365 49<169 252.5>
VStem: 35 80<68 86> 238 68<89.5 148>
LayerCount: 2
Fore
SplineSet
342 32 m 0
 360 32 371 36 382 46 c 0
 388 52 398 45 398 37 c 0
 398 29 356 -14 318 -14 c 0
 261 -14 252 38 244 38 c 0
 231 38 203 -13 121 -14 c 0
 80 -14 35 26 35 65 c 0
 35 107 59 135 108 155 c 2
 210 197 l 2
 236 208 237 210 238 237 c 2
 240 301 l 2
 241 335 217 365 181 365 c 0
 157 365 128 347 120 333 c 0
 117 328 116 321 116 314 c 0
 116 309 117 305 117 300 c 0
 117 286 61 265 48 265 c 0
 42 265 40 271 40 274 c 0
 40 295 55 321 80 343 c 0
 111 371 176 414 229 414 c 0
 276 414 312 374 311 325 c 2
 306 109 l 2
 306 70 313 32 342 32 c 0
115 87 m 0
 115 49 145 32 164 32 c 0
 190 32 208 45 224 59 c 0
 231 65 235 74 236 99 c 2
 238 148 l 2
 239 163 237 169 229 169 c 0
 226 169 220 168 215 166 c 0
 138 140 115 110 115 87 c 0
EndSplineSet
EndChar

StartChar: b
Encoding: 98 98 67
Width: 515
GlyphClass: 2
Flags: MW
TopAccentHorizontal: 133
HStem: -14 31<247 320 247 334.5> -3 21G<80 86.5> 373 41<283 312.5> 685 20G<141.5 143.5>
VStem: 75 70<105 132 132 253 377.5 388 388 566 566 583.5> 405 75<158.5 233.5>
LayerCount: 2
Fore
SplineSet
282 17 m 0xbc
 358 17 405 94 405 195 c 0
 405 272 360 373 265 373 c 0
 237 373 188 362 166 338 c 0
 152 323 145 306 145 253 c 2
 145 132 l 2
 145 62 212 17 282 17 c 0xbc
75 105 m 2
 75 566 l 2
 75 601 61 632 28 639 c 0
 23 640 20 646 20 652 c 0
 20 658 23 663 27 664 c 0
 78 676 108 692 140 704 c 0
 141 704 141 705 142 705 c 0
 145 705 148 701 148 698 c 0
 148 693 145 649 145 593 c 2
 145 388 l 2
 145 367 145 356 154 355 c 1
 204 397 266 414 300 414 c 0
 404 414 480 325 480 217 c 0
 480 100 410 -14 259 -14 c 0xbc
 197 -14 127 15 113 15 c 0
 101 15 89 -3 84 -3 c 0x7c
 76 -3 68 3 68 9 c 0
 68 11 75 52 75 105 c 2
EndSplineSet
EndChar

StartChar: c
Encoding: 99 99 68
Width: 377
GlyphClass: 2
Flags: MW
TopAccentHorizontal: 244
HStem: -14 52<215 249> 376 37<184.5 239>
VStem: 35 69<178 241.5>
LayerCount: 2
Fore
SplineSet
333 319 m 0
 324 319 313 324 308 329 c 0
 275 365 264 376 214 376 c 0
 141 376 104 299 104 226 c 0
 104 130 167 38 263 38 c 0
 305 38 325 54 351 88 c 0
 354 91 357 93 360 93 c 0
 366 93 372 86 372 79 c 0
 372 42 292 -14 206 -14 c 0
 105 -14 35 77 35 180 c 0
 35 303 123 413 246 413 c 0
 289 413 336 402 366 365 c 0
 369 361 371 357 371 353 c 0
 371 336 343 319 333 319 c 0
EndSplineSet
EndChar

StartChar: d
Encoding: 100 100 69
Width: 506
GlyphClass: 2
Flags: MW
ItalicCorrection: 19
TopAccentHorizontal: 401
HStem: -14 45<235 253> 21 24 379 35<209.5 268> 684 20G<415 424>
VStem: 35 74<139.5 248> 352 70<120 255 255 283 408 562>
LayerCount: 2
Fore
SplineSet
229 379 m 0xbc
 190 379 109 347 109 213 c 0
 109 62 213 31 257 31 c 0
 313 31 352 72 352 120 c 2
 352 255 l 2
 352 311 307 379 229 379 c 0xbc
338 393 m 0
 342 388 346 384 348 384 c 0
 351 384 352 390 352 408 c 2
 352 566 l 2
 352 620 335 632 301 639 c 0
 296 640 293 646 293 652 c 0
 293 657 295 663 300 664 c 0
 373 681 408 704 422 704 c 0
 426 704 428 702 429 698 c 0
 429 686 422 652 422 562 c 2
 422 110 l 2
 422 68 427 45 443 45 c 0
 453 45 479 46 489 48 c 0
 494 49 504 47 504 35 c 0
 504 24 495 21 490 21 c 0x7c
 438 14 402 -1 373 -13 c 0
 369 -15 355 -19 349 -19 c 0
 345 -19 346 -18 346 -15 c 0
 346 -2 351 34 351 51 c 2
 351 57 l 1
 331 26 286 -14 220 -14 c 0
 106 -14 35 89 35 190 c 0
 35 306 120 414 260 414 c 0
 288 414 332 400 338 393 c 0
EndSplineSet
EndChar

StartChar: e
Encoding: 101 101 70
Width: 390
GlyphClass: 2
Flags: MW
ItalicCorrection: 8
TopAccentHorizontal: 235
HStem: -14 60<198 244> 257 31<109 212 130 212 212 226.5 130 325> 383 31<185 232.5>
VStem: 30 62<175 237 175 259.5> 295 65<315.5 339 287 341> 339 17
LayerCount: 2
Fore
SplineSet
213 383 m 0xf8
 157 383 111 329 111 303 c 0
 111 295 116 288 130 288 c 2
 212 288 l 2
 241 288 264 289 285 293 c 0
 292 294 295 310 295 321 c 0
 295 361 252 383 213 383 c 0xf8
229 414 m 0
 306 414 360 376 360 302 c 0xf8
 360 272 351 257 325 257 c 2
 117 257 l 2
 101 257 92 254 92 220 c 0
 92 130 153 46 243 46 c 0
 268 46 313 57 339 91 c 0
 342 94 347 98 350 98 c 0
 357 98 358 86 356 78 c 0xf4
 346 43 290 -14 198 -14 c 0
 107 -14 30 70 30 203 c 0
 30 316 116 414 229 414 c 0
EndSplineSet
EndChar

StartChar: f
Encoding: 102 102 71
Width: 318
GlyphClass: 2
Flags: MW
ItalicCorrection: 78
TopAccentHorizontal: 276
HStem: -3 27 352 24 352 48<185 200 200 296> 665 41<266.5 306.5>
VStem: 90 70<68 335 413 422 422 475>
LayerCount: 2
Fore
SplineSet
386 606 m 0xd8
 359 606 345 665 268 665 c 0
 206 665 160 610 160 475 c 2
 160 422 l 2
 160 404 172 400 185 400 c 2
 305 400 l 2
 308 400 309 395 309 389 c 0
 309 375 303 352 296 352 c 2
 200 352 l 2xb8
 164 352 160 345 160 335 c 2
 160 68 l 2
 160 42 183 30 203 24 c 0
 214 20 226 16 226 6 c 0
 226 -2 214 -3 206 -3 c 0
 166 -3 162 2 127 2 c 0
 92 2 84 -3 44 -3 c 0
 36 -3 24 -2 24 6 c 0
 24 16 36 20 47 24 c 0
 67 30 90 41 90 68 c 2
 90 350 l 1
 77 350 59 350 38 352 c 0
 34 353 24 363 24 370 c 0
 24 373 29 375 31 376 c 0
 61 384 70 392 90 402 c 1
 90 633 223 706 310 706 c 0
 359 706 420 698 420 646 c 0
 420 624 404 606 386 606 c 0xd8
EndSplineSet
EndChar

StartChar: g
Encoding: 103 103 72
Width: 435
GlyphClass: 2
Flags: MW
TopAccentHorizontal: 249
HStem: -290 40<169.5 245.5> 106 35<192 232 178.5 241.5> 349 36<363 429> 386 30<171.489 228>
VStem: 11 71<-167 -152.5> 39 72<238.644 294 238.644 304.5> 40 59<20.5 75.5> 295 65<243.5 294.999> 357 61<-132 -90.5>
LayerCount: 2
Fore
SplineSet
360 295 m 0xf5
 360 192 286 106 197 106 c 0
 187 106 158.727539062 109.24609375 143 118 c 1
 122 102 99 82 99 69 c 0xf3
 99 41 163 31 195 28 c 0
 322 16 418 7 418 -77 c 0
 418 -187 296 -290 195 -290 c 0
 111 -290 11 -264 11 -176 c 0xf880
 11 -129 43 -100 60 -90 c 0
 88 -72 115 -55 130 -31 c 1
 96 -24 40 -3 40 44 c 0xf2
 40 59 49 70 63 81 c 0
 82 95 107 104 122 127 c 1
 109.385742188 130.14453125 39 183 39 258 c 0
 39 351 122 416 213 416 c 0
 258 416 277.748046875 397.186523438 320 389 c 0
 340.350585938 385.056640625 353 385 373 385 c 0
 389 385 416 388 426 388 c 0
 433 388 435 375 435 366 c 0
 435 357 432 349 426 349 c 0
 369 349 378 343 364 341 c 1
 360 330 360 310 360 295 c 0xf5
200 386 m 0
 142.978515625 386 111 318 111 270 c 0xf5
 111 207.287109375 150 141 207 141 c 0
 257 141 295 200 295 265 c 0
 295 324.997070312 256 386 200 386 c 0
82 -134 m 0xf880
 82 -200 130 -250 209 -250 c 0
 287 -250 357 -192 357 -109 c 0
 357 -72 310 -51 277 -44 c 0
 252 -39 202 -35 179 -34 c 0
 172 -34 162 -32 156 -34 c 0
 144 -42 119 -67 106 -80 c 0
 89 -100 82 -118 82 -134 c 0xf880
EndSplineSet
EndChar

StartChar: h
Encoding: 104 104 73
Width: 515
GlyphClass: 2
Flags: MW
ItalicCorrection: 15
TopAccentHorizontal: 135
HStem: -3 27 362 52<282.5 286.5> 685 20G<157 159>
VStem: 85 70<65 268 382 388 388 562> 358 70<68 272 272 278>
LayerCount: 2
Fore
SplineSet
428 68 m 2
 428 41 449 30 469 24 c 0
 480 20 492 16 492 6 c 0
 492 -2 480 -3 472 -3 c 0
 432 -3 429 2 394 2 c 0
 359 2 356 -3 316 -3 c 0
 308 -3 296 -2 296 6 c 0
 296 16 308 20 319 24 c 0
 339 30 358 41 358 68 c 2
 358 272 l 2
 358 322 308 362 265 362 c 0
 240 362 201 355 182 340 c 0
 161 323 155 309 155 268 c 2
 155 65 l 2
 156 38 173 30 193 24 c 0
 204 20 216 16 216 6 c 0
 216 -2 204 -3 196 -3 c 0
 156 -3 155 2 120 2 c 0
 85 2 79 -3 39 -3 c 0
 32 -3 19 -2 19 6 c 0
 19 16 31 20 42 24 c 0
 62 30 84 38 85 65 c 2
 85 566 l 2
 85 602 74 632 40 639 c 0
 35 640 32 646 32 652 c 0
 32 658 35 663 39 664 c 0
 90 676 123 692 155 704 c 0
 156 704 157 705 157 705 c 2
 161 705 162 701 164 698 c 0
 164 686 155 669 155 562 c 2
 155 388 l 2
 155 376 158 357 163 351 c 1
 194 374 251 414 314 414 c 0
 379 414 428 356 428 278 c 2
 428 68 l 2
EndSplineSet
EndChar

StartChar: i
Encoding: 105 105 74
Width: 245
GlyphClass: 2
Flags: MW
ItalicCorrection: 3
TopAccentHorizontal: 137
HStem: -3 27 352 25<43 43> 515 101<102 130.5>
VStem: 66 101<551 579.5> 90 70<62 279 279 294>
LayerCount: 2
Fore
SplineSet
66 565 m 0x30
 66 594 88 616 116 616 c 0
 145 616 167 594 167 565 c 0
 167 537 145 515 116 515 c 0
 88 515 66 537 66 565 c 0x30
162 434 m 0xc8
 166 434 169 432 169 429 c 0
 165 388 160 339 160 294 c 2
 160 62 l 2
 160 35 183 30 203 24 c 0
 214 20 226 16 226 6 c 0
 226 -2 215 -3 206 -3 c 0
 168 -3 160 2 125 2 c 0
 90 2 83 -3 44 -3 c 0
 36 -3 24 -2 24 6 c 0
 24 16 36 20 47 24 c 0
 67 30 90 35 90 62 c 2
 90 279 l 2
 90 315 77 345 43 352 c 0
 38 353 35 359 35 365 c 0
 35 370 38 376 42 377 c 0
 109 393 154 434 162 434 c 0xc8
EndSplineSet
Substitution2: "'dtls' Dotless Forms in Mathematical Alphanumeric Symbols lookup 1 subtable" dotlessi
EndChar

StartChar: j
Encoding: 106 106 75
Width: 212
GlyphClass: 2
Flags: MW
TopAccentHorizontal: 151
HStem: -287 27 352 25<25 25> 514 101<87 115.5>
VStem: 51 101<550 578.5> 71 73<69 91 91 275>
LayerCount: 2
Fore
SplineSet
51 564 m 0x30
 51 593 73 615 101 615 c 0
 130 615 152 593 152 564 c 0
 152 536 130 514 101 514 c 0
 73 514 51 536 51 564 c 0x30
144 275 m 2xc8
 144 91 l 2
 144 29 143 -72 114 -152 c 0
 89 -220 26 -287 -14 -287 c 0
 -21 -287 -35 -284 -35 -277 c 0
 -35 -269 -26 -261 -24 -260 c 0
 0 -254 23 -237 42 -197 c 0
 71 -136 71 0 71 69 c 2
 71 279 l 2
 71 315 59 345 25 352 c 0
 20 353 17 359 17 365 c 0
 17 370 20 376 24 377 c 0
 91 393 136 434 144 434 c 0
 148 434 151 432 151 429 c 0
 147 388 144 320 144 275 c 2xc8
EndSplineSet
Substitution2: "'dtls' Dotless Forms in Mathematical Alphanumeric Symbols lookup 1 subtable" dotlessj
EndChar

StartChar: k
Encoding: 107 107 76
Width: 469
GlyphClass: 2
Flags: MW
ItalicCorrection: 33
TopAccentHorizontal: 142
HStem: -3 27<42 42 190 190> 378 22 384 28 685 20G<157.5 159.5>
VStem: 85 70<199 203 227.5 231 231 562>
LayerCount: 2
Fore
SplineSet
254 9 m 0xb8
 254 30 298 26 298 46 c 0
 298 50 295 55 291 60 c 2
 165 205 l 2
 162 208 155 207 155 199 c 0
 154 180 154 158 154 135 c 0
 154 112 154 88 155 65 c 0
 155 38 170 30 190 24 c 0
 201 20 213 16 213 6 c 0
 213 -4 195 -3 190 -3 c 0
 151 -3 155 2 120 2 c 0
 85 2 81 -3 42 -3 c 0
 37 -3 19 -4 19 6 c 0
 19 16 31 20 42 24 c 0
 62 30 85 38 85 65 c 2
 85 566 l 2
 85 613 72 632 39 639 c 0
 34 640 31 646 31 652 c 0
 31 658 34 663 38 664 c 0
 89 676 124 692 156 704 c 0
 157 704 157 705 158 705 c 0
 161 705 164 700 164 696 c 0
 164 682 155 647 155 562 c 2
 155 231 l 2
 155 224 157 223 161 224 c 0
 170 226 181 232 196 245 c 0
 250 292 299 342 310 358 c 0
 311 359 311 360 311 361 c 0
 311 368 299 375 285 378 c 0
 282 379 273 383 273 386 c 0
 273 398 291 400 295 400 c 2
 344 400 l 2xd8
 380 400 413 409 440 412 c 0
 443 412 448 409 448 405 c 0
 448 397 437 386 428 384 c 0
 403 379 376 364 358 353 c 0
 345 345 278 289 230 247 c 0
 225 243 223 234 227 230 c 0
 279 167 353 89 374 70 c 0
 396 49 436 28 456 22 c 0
 467 18 479 14 479 4 c 0
 479 -4 466 -5 459 -5 c 0
 407 -5 340 0 277 0 c 0
 272 0 254 -1 254 9 c 0xb8
EndSplineSet
EndChar

StartChar: l
Encoding: 108 108 77
Width: 240
GlyphClass: 2
Flags: MW
ItalicCorrection: 7
TopAccentHorizontal: 158
HStem: -3 27 685 20G<155.5 157.5>
VStem: 85 70<62 562>
LayerCount: 2
Fore
SplineSet
155 62 m 2
 155 35 178 30 198 24 c 0
 209 20 221 16 221 6 c 0
 221 -2 208 -3 201 -3 c 0
 162 -3 155 2 120 2 c 0
 85 2 78 -3 39 -3 c 0
 32 -3 19 -2 19 6 c 0
 19 16 31 20 42 24 c 0
 62 30 85 35 85 62 c 2
 85 566 l 2
 85 605 72 632 39 639 c 0
 34 640 31 646 31 652 c 0
 31 658 34 663 38 664 c 0
 89 676 122 692 154 704 c 0
 155 704 155 705 156 705 c 0
 159 705 162 701 162 698 c 0
 162 686 155 652 155 562 c 2
 155 62 l 2
EndSplineSet
EndChar

StartChar: m
Encoding: 109 109 78
Width: 778
GlyphClass: 2
Flags: MW
ItalicCorrection: 25
TopAccentHorizontal: 381
HStem: -3 27 349 25<51 51> 367 47<283.5 295.5 556.5 560.5> 410 20G<161 162.5>
VStem: 90 70<62 268> 354 70<62 268> 619 70<62 272 272 275>
CounterMasks: 1 1c
LayerCount: 2
Fore
SplineSet
689 62 m 2xae
 689 35 712 30 732 24 c 0
 743 20 755 16 755 6 c 0
 755 -2 742 -3 735 -3 c 0
 695 -3 691 2 656 2 c 0
 621 2 613 -3 573 -3 c 0
 566 -3 553 -2 553 6 c 0
 553 16 565 20 576 24 c 0
 596 30 619 35 619 62 c 2
 619 272 l 2
 619 320 582 367 539 367 c 0
 505 367 477 360 452 340 c 0
 440 331 424 308 424 268 c 2
 424 62 l 2
 424 35 449 30 469 24 c 0
 480 20 492 16 492 6 c 0
 492 -2 480 -3 472 -3 c 0
 432 -3 425 2 390 2 c 0
 355 2 347 -3 307 -3 c 0
 300 -3 287 -2 287 6 c 0
 287 16 299 20 310 24 c 0
 330 30 354 35 354 62 c 2
 354 272 l 2
 354 320 317 367 274 367 c 0xae
 240 367 212 360 187 340 c 0
 175 331 160 309 160 268 c 2
 160 62 l 2
 160 35 183 30 203 24 c 0
 214 20 226 16 226 6 c 0
 226 -2 214 -3 206 -3 c 0
 166 -3 160 2 125 2 c 0
 90 2 84 -3 44 -3 c 0
 36 -3 24 -2 24 6 c 0
 24 16 36 20 47 24 c 0
 67 30 90 35 90 62 c 2
 90 277 l 2
 90 313 85 342 51 349 c 0
 46 350 43 356 43 362 c 0
 43 368 46 373 50 374 c 0
 102 386 127 407 161 430 c 0xde
 164 430 168 427 168 423 c 0
 168 414 163 378 163 359 c 0
 163 353 163.5859375 348.4140625 165 347 c 0
 192.060546875 372.234375 244 414 323 414 c 0
 371 414 398.295898438 395.305664062 416 354 c 0
 422.302734375 339.293945312 426.715820312 340.950195312 445 358 c 0
 470.59765625 381.870117188 524 414 589 414 c 0
 654 414 689 345 689 275 c 2
 689 62 l 2xae
EndSplineSet
EndChar

StartChar: n
Encoding: 110 110 79
Width: 528
GlyphClass: 2
Flags: MW
ItalicCorrection: 13
TopAccentHorizontal: 239
HStem: -3 27 349 25<51 51> 366 48<262 358.5> 410 20G<161 162.5>
VStem: 90 70<62 268> 369 70<62 272 272 275>
LayerCount: 2
Fore
SplineSet
279 366 m 0xac
 245 366 212 360 187 340 c 0
 175 331 160 309 160 268 c 2
 160 62 l 2
 160 35 183 30 203 24 c 0
 214 20 226 16 226 6 c 0
 226 -2 214 -3 206 -3 c 0
 166 -3 160 2 125 2 c 0
 90 2 84 -3 44 -3 c 0
 36 -3 24 -2 24 6 c 0
 24 16 36 20 47 24 c 0
 67 30 90 35 90 62 c 2
 90 277 l 2
 90.1669921875 313 85 342 51 349 c 0
 46 350 43 356 43 362 c 0
 43 368 46 373 50 374 c 0
 102 386 127 407 161 430 c 0xdc
 164 430 168 427 168 423 c 0
 168 414 163 378 163 359 c 0
 163 353 163.5859375 348.4140625 165 347 c 0
 211.5 391.5 263 414 326 414 c 0
 391 414 439 353 439 275 c 2
 439 62 l 2
 439 35 462 30 482 24 c 0
 493 20 505 16 505 6 c 0
 505 -2 493 -3 485 -3 c 0
 445 -3 440 2 405 2 c 0
 370 2 363 -3 323 -3 c 0
 316 -3 303 -2 303 6 c 0
 303 16 315 20 326 24 c 0
 346 30 369 35 369 62 c 2
 369 272 l 2
 369 330 333 365 279 366 c 0xac
EndSplineSet
EndChar

StartChar: o
Encoding: 111 111 80
Width: 495
GlyphClass: 2
Flags: MW
TopAccentHorizontal: 250
HStem: -14 30<215 277.5 215 309> 383 31<219 279.5>
VStem: 35 82<160.5 234 160.5 242.5> 378 82<169.5 236.5>
LayerCount: 2
Fore
SplineSet
254 414 m 0
 370 414 460 321 460 213 c 0
 460 96 384 -14 234 -14 c 0
 122 -14 35 70 35 187 c 0
 35 298 131 414 254 414 c 0
237 383 m 0
 201 383 173 374 149 343 c 0
 122 309 117 258 117 210 c 0
 117 111 175 16 255 16 c 0
 300 16 338 32 358 71 c 0
 374 102 378 150 378 189 c 0
 378 284 322 383 237 383 c 0
EndSplineSet
EndChar

StartChar: p
Encoding: 112 112 81
Width: 519
GlyphClass: 2
Flags: MW
TopAccentHorizontal: 240
HStem: -285 27<214 214> -14 31<252 293.5 252 322> 369 45<288.5 289.5> 406 20G<155.5 157.5>
VStem: 85 70<-220 -33 188 217> 404 80<165.5 270>
LayerCount: 2
Fore
SplineSet
274 17 m 0xec
 313 17 404 59 404 193 c 0
 404 347 311 369 268 369 c 0
 234 369 207 359 182 340 c 0
 167 329 158 310 156 269 c 0
 156 252 155 229 155 205 c 0
 155 171 156 136 157 115 c 0
 158 97 162 60 181 42 c 0
 196 28 230 17 274 17 c 0xec
85 -220 m 2
 85 287 l 2
 85 302 72 353 39 360 c 0
 34 361 31 367 31 373 c 0
 31 379 34 384 38 385 c 0
 89 397 122 412 154 425 c 0
 155 425 155 426 156 426 c 0xdc
 159 426 162 421 162 417 c 0
 162 405 157 373 157 357 c 0
 157 353 157 349 158 348 c 1
 177 367 257 414 320 414 c 0
 423 414 484 319 484 225 c 0
 484 106 385 -14 259 -14 c 0
 231 -14 179 0 159 18 c 0
 156 18 155 -27 155 -33 c 2
 155 -220 l 2
 155 -247 193 -252 213 -258 c 0
 224 -262 236 -266 236 -276 c 0
 236 -284 222 -285 214 -285 c 0
 175 -285 155 -280 120 -280 c 0
 85 -280 79 -285 40 -285 c 0
 33 -285 19 -284 19 -276 c 0
 19 -266 31 -262 42 -258 c 0
 62 -252 85 -247 85 -220 c 2
EndSplineSet
EndChar

StartChar: q
Encoding: 113 113 82
Width: 522
GlyphClass: 2
Flags: MW
ItalicCorrection: 16
TopAccentHorizontal: 300
HStem: -285 27 -14 38<242 266.5> 382 32<221 290> 401 20G<441.5 446>
VStem: 35 82<138.5 248.5> 377 70<-220 -5 -5 6.5>
LayerCount: 2
Fore
SplineSet
257 382 m 0xec
 185 382 117 320 117 205 c 0
 117 72 212 24 272 24 c 0
 306 24 333 28 358 47 c 0
 378 61 378 124 378 171 c 0
 378 207 378 250 377 275 c 0
 375 335 323 382 257 382 c 0xec
410 392 m 0
 424 392 429 402 436 417 c 0
 437 418 440 421 443 421 c 0xdc
 449 421 459 416 459 411 c 0
 459 398 447 352 447 295 c 2
 447 -220 l 2
 447 -247 479 -252 499 -258 c 0
 510 -262 522 -266 522 -276 c 0
 522 -284 510 -285 502 -285 c 0
 462 -285 448 -280 412 -280 c 0
 377 -280 371 -285 331 -285 c 0
 324 -285 311 -284 311 -276 c 0
 311 -266 323 -262 334 -258 c 0
 354 -252 377 -247 377 -220 c 2
 377 -5 l 2
 377 18 375 25 371 25 c 0
 368 25 365 23 362 20 c 0
 345 5 298 -14 235 -14 c 0
 131 -14 35 54 35 178 c 0
 35 319 135 414 282 414 c 0
 350 414 405 392 410 392 c 0
EndSplineSet
EndChar

StartChar: r
Encoding: 114 114 83
Width: 334
GlyphClass: 2
Flags: MW
ItalicCorrection: 30
TopAccentHorizontal: 223
HStem: -3 27 348 66<214 295> 349 25<49 49>
VStem: 39 125<347 365> 90 70<67 264 67 277 67 295>
LayerCount: 2
Fore
SplineSet
160 264 m 2xc8
 160 67 l 2
 161 40 194 30 214 24 c 0
 225 20 237 16 237 6 c 0
 237 -2 224 -3 217 -3 c 0
 177 -3 165 2 130 2 c 0
 95 2 89 -3 49 -3 c 0
 42 -3 29 -2 29 6 c 0
 29 16 41 20 52 24 c 0
 72 30 89 35 90 62 c 2
 90 277 l 2xc8
 90 313 82 342 49 349 c 0
 44 350 39 356 39 362 c 0
 39 368 44 373 48 374 c 0xb0
 99 386 132 413 159 429 c 0
 160 429 160 430 161 430 c 0
 164 430 166 426 167 423 c 0
 167 416 166 380 164 348 c 0xd0
 164 346 164 346 165 346 c 0
 169 346 182 365 189 371 c 0
 220 399 257 414 281 414 c 0
 309 414 329 400 329 382 c 0
 329 362 310 330 290 330 c 0
 273 330 250 348 230 348 c 0
 198 348 160 331 160 264 c 2xc8
EndSplineSet
EndChar

StartChar: s
Encoding: 115 115 84
Width: 323
GlyphClass: 2
Flags: MW
TopAccentHorizontal: 217
HStem: -14 27<134.5 179 134.5 204.5> 388 26<157 192.5>
VStem: 30 32 53 60<302 324.5> 225 68<71.5 101> 239 40<325.5 327 311.5 330>
LayerCount: 2
Fore
SplineSet
176 388 m 0xd4
 138 388 113 362 113 322 c 0xd4
 113 282 166 251 198 231 c 0
 228 212 293 172 293 106 c 0
 293 37 260 -14 149 -14 c 0
 95 -14 49 9 43 22 c 0
 36 36 31 60 30 83 c 0
 30 89 39 92 47 92 c 0
 54 92 61 90 62 85 c 0
 69 51 114 13 155 13 c 0
 203 13 225 43 225 83 c 0xe8
 225 119 193 143 149 174 c 0
 101 208 53 247 53 296 c 0
 53 353 89 414 187 414 c 0
 227 414 252 401 262 391 c 0
 274 376 279 341 279 313 c 0
 279 310 277 309 273 309 c 0
 263 309 239 321 239 330 c 0
 238 358 209 388 176 388 c 0xd4
EndSplineSet
EndChar

StartChar: t
Encoding: 116 116 85
Width: 314
GlyphClass: 2
Flags: MW
ItalicCorrection: 29
TopAccentHorizontal: 146
HStem: -14 55<205.5 219.5> 352 27 352 48<180 195 195 294>
VStem: 85 70<105 135 135 324>
LayerCount: 2
Fore
SplineSet
189 -14 m 0xb0
 127 -14 85 22 85 105 c 2
 85 337 l 2
 85 349 78 352 47 352 c 0
 43 352 35 365 35 372 c 0
 35 375 38 378 40 379 c 0xd0
 93 394 136 468 146 468 c 0
 152 468 164 467 163 458 c 2
 155 414 l 2
 153 405 167 400 180 400 c 2
 294 400 l 2
 299 400 304 388 304 376 c 0
 304 364 299 352 294 352 c 2
 195 352 l 2
 161 352 155 351 155 324 c 2
 155 135 l 2
 155 61 190 41 221 41 c 0
 260 41 280 48 296 60 c 0
 302 64 306 55 306 47 c 0
 306 36 250 -14 189 -14 c 0xb0
EndSplineSet
EndChar

StartChar: u
Encoding: 117 117 86
Width: 527
GlyphClass: 2
Flags: MW
ItalicCorrection: 7
TopAccentHorizontal: 213
HStem: -19 56 21 24 365 32<301 303 301 303> 395 20G<432 434 434 438.5>
VStem: 85 70<105 128 128 308 308 322.5> 368 70<132 315 315 326>
LayerCount: 2
Fore
SplineSet
432 415 m 1x1c
 434 415 l 2x1c
 443 415 451 405 446 397 c 0
 442 390 438 342 438 326 c 2
 438 114 l 2
 438 73 440 45 456 45 c 0
 466 45 492 46 502 48 c 0
 507 49 517 47 517 35 c 0
 517 24 508 21 503 21 c 0x6c
 451 14 415 -1 386 -13 c 0
 382 -15 368 -19 362 -19 c 0
 358 -19 359 -18 359 -15 c 0
 359 -2 364 34 364 51 c 2
 364 57 l 1
 312 6 261 -14 199 -14 c 0
 134 -14 85 27 85 105 c 2
 85 308 l 2
 85 337 72 353 42 365 c 0
 39 366 29 370 29 380 c 0
 29 393 39 396 44 397 c 0
 98 399 108 405 147 414 c 0
 157 415 162 410 161 400 c 0
 157 369 155 353 155 323 c 2
 155 128 l 2
 155 80 196 37 239 37 c 0
 273 37 298 38 323 57 c 0
 338 68 368 91 368 132 c 2
 368 315 l 2
 368 356 323 364 303 365 c 0
 298 365 280 368 280 382 c 0
 280 394 299 397 303 397 c 0xac
 404 402 396 405 432 415 c 1x1c
EndSplineSet
EndChar

StartChar: v
Encoding: 118 118 87
Width: 438
GlyphClass: 2
Flags: MW
ItalicCorrection: 5
TopAccentHorizontal: 248
HStem: -22 21G<213.5 218.5> 378 27
VStem: 319 124<325.5 400>
LayerCount: 2
Fore
SplineSet
294 378 m 0
 283 382 271 386 271 396 c 0
 271 404 284 405 291 405 c 0
 306 405 329 400 364 400 c 0
 399 400 404 405 423 405 c 0
 430 405 443 404 443 396 c 0
 443 386 431 382 420 378 c 0
 400 372 372 344 358 311 c 2
 280 123 l 2
 275 112 243 23 243 23 c 1
 243 23 221 -22 216 -22 c 0
 211 -22 199 8 196 17 c 2
 74 329 l 2
 64 353 48 372 28 378 c 0
 17 382 5 386 5 396 c 0
 5 404 18 405 25 405 c 0
 64 405 63 400 98 400 c 0
 133 400 134 405 173 405 c 0
 180 405 193 404 193 396 c 0
 193 386 181 382 170 378 c 0
 156 374 150 356 150 337 c 0
 150 328 151 318 154 310 c 2
 228 111 l 2
 233 97 235 96 240 110 c 2
 312 295 l 2
 317 308 319 320 319 331 c 0
 319 356 308 374 294 378 c 0
EndSplineSet
EndChar

StartChar: w
Encoding: 119 119 88
Width: 685
GlyphClass: 2
Flags: MW
TopAccentHorizontal: 358
HStem: 378 27
VStem: 325 69<303.5 354> 575 115<321.5 400>
LayerCount: 2
Fore
SplineSet
614 312 m 2
 477 -16 l 2
 475 -20 472 -23 468 -23 c 0
 465 -23 462 -20 460 -16 c 2
 356 242 l 2
 352 252 349 255 343 241 c 2
 234 -16 l 2
 232 -20 229 -23 226 -23 c 0
 223 -23 220 -20 219 -16 c 2
 80 329 l 2
 70 355 48 372 28 378 c 0
 17 382 5 386 5 396 c 0
 5 404 18 405 25 405 c 0
 31 405 98 400 98 400 c 1
 98 400 174 405 181 405 c 0
 186 405 201 404 201 396 c 0
 201 386 189 382 178 378 c 0
 164 374 157 357 157 338 c 0
 157 329 159 320 162 312 c 2
 238 116 l 2
 243 102 247 103 253 117 c 2
 319 278 l 2
 323 289 325 299 325 308 c 0
 325 345 296 372 275 378 c 0
 264 381 252 386 252 396 c 0
 252 404 264 405 272 405 c 0
 290 405 310 400 347 400 c 0
 384 400 409 405 431 405 c 0
 438 405 451 404 451 396 c 0
 451 386 439 382 428 378 c 0
 413 373 394 366 394 342 c 0
 394 334 396 324 401 312 c 2
 476 119 l 2
 482 105 486 104 492 118 c 2
 568 295 l 2
 573 306 575 317 575 326 c 0
 575 355 555 373 540 378 c 0
 529 382 517 386 517 396 c 0
 517 404 530 405 537 405 c 0
 566 405 576 400 612 400 c 0
 649 400 648 405 670 405 c 0
 678 405 690 404 690 396 c 0
 690 386 678 382 667 378 c 0
 647 372 627 342 614 312 c 2
EndSplineSet
EndChar

StartChar: x
Encoding: 120 120 89
Width: 430
GlyphClass: 2
Flags: MW
ItalicCorrection: 7
TopAccentHorizontal: 229
HStem: -4 27 378 27
VStem: 276 144<1 54.5>
LayerCount: 2
Fore
SplineSet
220 8 m 0
 220 32 276 24 276 52 c 0
 276 57 274 63 270 70 c 2
 216 162 l 2
 213 167 210 168 208 165 c 2
 141 67 l 2
 139 64 136 56 136 48 c 0
 136 39 140 29 150 26 c 0
 161 22 173 18 173 8 c 0
 173 -2 155 -1 150 -1 c 0
 139 -1 113 1 97 1 c 0
 60 1 48 -4 30 -4 c 0
 22 -4 10 -3 10 5 c 0
 10 16 22 20 33 23 c 0
 53 29 69.98828125 42.5390625 100 80 c 2
 185 186 l 2
 194 197 192 201 187 209 c 2
 106 335 l 2
 90 361 80 371 60 377 c 0
 49 380 37 384 37 395 c 0
 37 405 55 404 60 404 c 0
 99 404 90 400 139 400 c 0
 163 400 167 402 190 402 c 0
 195 402 213 403 213 393 c 0
 213 376 174 382 174 362 c 0
 174 355 179 343 187 330 c 2
 227 268 l 2
 232 260 233 260 235 263 c 2
 284 338 l 2
 289 345 292 353 292 360 c 0
 292 367 289 373 279 376 c 0
 268 380 256 384 256 394 c 0
 256 404 274 403 279 403 c 0
 289 403 313 400 329 400 c 0
 366 400 375 405 392 405 c 0
 400 405 412 404 412 396 c 0
 412 386 400 382 389 378 c 0
 369 372 337 358 318 331 c 2
 253 239 l 2
 251 236 251 230 254 226 c 2
 351 65 l 2
 367 39 377 29 397 23 c 0
 408 20 420 16 420 5 c 0
 420 -3 408 -4 400 -4 c 0
 359 -4 366 0 316 0 c 0
 292 0 266 -1 243 -1 c 0
 238 -1 220 -2 220 8 c 0
EndSplineSet
EndChar

StartChar: y
Encoding: 121 121 90
Width: 438
GlyphClass: 2
Flags: MW
ItalicCorrection: 3
TopAccentHorizontal: 245
HStem: -285 66<30 78.5> 378 27
VStem: 322 121<327 400>
LayerCount: 2
Fore
SplineSet
13 -249 m 0
 13 -233 20 -219 40 -219 c 0
 55 -219 69 -225 80 -225 c 0
 88 -225 94 -222 99 -214 c 0
 120 -178 161 -93 190 -16 c 0
 192 -10 193 -2 193 7 c 0
 193 18 192 28 189 36 c 2
 73 329 l 2
 63 353 48 372 28 378 c 0
 17 382 5 386 5 396 c 0
 5 404 18 405 25 405 c 0
 65 405 63 400 98 400 c 0
 133 400 134 405 174 405 c 0
 182 405 194 402 194 394 c 0
 194 384 176 375 165 372 c 0
 151 368 145 359 145 340 c 0
 145 332 150 319 153 312 c 2
 232 116 l 2
 238 102 242 103 247 117 c 2
 314 295 l 2
 318 304 322 322 322 332 c 0
 322 357 314 365 302 370 c 0
 291 375 273 384 273 394 c 0
 273 402 286 405 293 405 c 0
 311 405 327 400 364 400 c 0
 401 400 401 405 423 405 c 0
 430 405 443 404 443 396 c 0
 443 386 431 382 420 378 c 0
 400 372 374 343 361 311 c 2
 225 -13 l 2
 221 -22 170 -148 129 -244 c 0
 117 -271 93 -285 64 -285 c 0
 40 -285 13 -271 13 -249 c 0
EndSplineSet
EndChar

StartChar: z
Encoding: 122 122 91
Width: 377
GlyphClass: 2
Flags: MW
TopAccentHorizontal: 229
HStem: -5 40 286 21G<38.5 48> 364 37<118 122 122 134.5 118 239> 396 20G<67 70.5>
VStem: 37 33
LayerCount: 2
Fore
SplineSet
256 35 m 2xe8
 286 35 312 69 342 112 c 0
 345 117 352 136 364 136 c 0
 373 136 372 117 372 113 c 0
 372 105 349 25 344 9 c 0
 343 4 336 -5 330 -5 c 0
 301 -5 228 0 119 0 c 0
 91 0 56 -5 39 -5 c 0
 34 -5 25 7 25 12 c 0
 25 17 48 51 62 70 c 0
 129 166 175 238 248 354 c 0
 251 358 254 364 239 364 c 2
 122 364 l 2xe8
 104 364 90 337 70 311 c 0
 65 305 53 286 43 286 c 0
 34 286 33 300 37 308 c 0
 45 327 54 373 54 398 c 0
 54 408 65 416 69 416 c 0xd8
 72 416 78 412 84 407 c 0
 90 402 109 401 127 401 c 0
 142 401 156 402 165 402 c 0
 234 402 290 403 351 405 c 0
 356 405 361 397 358 393 c 0
 344 376 334 363 320 343 c 2
 127 50 l 2
 122 42 133 35 139 35 c 2
 256 35 l 2xe8
EndSplineSet
EndChar

StartChar: braceleft
Encoding: 123 123 92
Width: 373
GlyphClass: 2
Flags: MW
GlyphVariantsVertical: braceleft braceleft.v1 braceleft.v2 braceleft.v3 braceleft.v4 braceleft.v5 braceleft.v6
GlyphCompositionVertical: 5  uni23A9%0,0,298,607 braceleft.ex%1,596,596,596 uni23A8%0,298,298,1194 braceleft.ex%1,596,596,596 uni23A7%0,298,0,607
HStem: -154 27<280 317.5 280 324.5> 688 27<280 317.5>
VStem: 118 65<-62.5 8 -62.5 14 553 623.5> 131 65<126 180 118 186 381 435>
CounterMasks: 1 e0
LayerCount: 2
Fore
SplineSet
90 279 m 0xd0
 123 270 196 213 196 147 c 0xd0
 196 89 183 42 183 -26 c 0
 183 -99 248 -127 312 -127 c 0
 323 -127 338 -128 338 -139 c 0
 338 -148 329 -154 320 -154 c 0
 226 -154 118 -115 118 -21 c 0xe0
 118 49 131 95 131 157 c 0
 131 215 90 253 36 273 c 0
 31 275 25 276 25 282 c 0
 25 288 31 286 36 288 c 0
 90 308 131 346 131 404 c 0xd0
 131 466 118 512 118 582 c 0
 118 676 226 715 320 715 c 0
 329 715 338 709 338 700 c 0
 338 689 323 688 312 688 c 0
 248 688 183 660 183 587 c 0xe0
 183 519 196 472 196 414 c 0
 196 348 130 300 88 283 c 0
 84 281 87 280 90 279 c 0xd0
EndSplineSet
EndChar

StartChar: bar
Encoding: 124 124 93
Width: 260
GlyphClass: 2
Flags: MW
GlyphVariantsVertical: bar divides.v1 divides.v2 divides.v3 divides.v4 divides.v5 divides.v6
GlyphCompositionVertical: 3  divides.bt%0,0,398,796 divides.ex%1,796,796,796 divides.tp%0,398,0,796
HStem: -289 21G<109 116.5>
VStem: 100 60<-275 -265 -265 676 676 687>
LayerCount: 2
Fore
SplineSet
100 676 m 2
 100 698 140 707 146 707 c 0
 153 707 160 701 160 694 c 2
 160 -265 l 2
 160 -286 121 -289 112 -289 c 0
 106 -289 100 -282 100 -275 c 2
 100 676 l 2
EndSplineSet
EndChar

StartChar: braceright
Encoding: 125 125 94
Width: 373
GlyphClass: 2
Flags: MW
GlyphVariantsVertical: braceright braceright.v1 braceright.v2 braceright.v3 braceright.v4 braceright.v5 braceright.v6
GlyphCompositionVertical: 5  uni23AD%0,0,298,607 braceright.ex%1,596,596,596 uni23AC%0,298,298,1194 braceright.ex%1,596,596,596 uni23AB%0,298,0,607
HStem: -154 27<55.5 93 55.5 100> 688 27<55.5 93>
VStem: 177 65<126 180 381 435> 190 65<-62.5 8 553 623.5>
CounterMasks: 1 e0
LayerCount: 2
Fore
SplineSet
283 279 m 0xe0
 285 280 288 281 285 283 c 0
 243 300 177 348 177 414 c 0xe0
 177 472 190 519 190 587 c 0
 190 660 125 688 61 688 c 0
 50 688 35 689 35 700 c 0
 35 709 44 715 53 715 c 0
 147 715 255 676 255 582 c 0xd0
 255 512 242 466 242 404 c 0
 242 346 282 308 337 288 c 0
 342 286 348 288 348 282 c 0
 348 276 342 275 337 273 c 0
 282 253 242 215 242 157 c 0xe0
 242 95 255 49 255 -21 c 0
 255 -115 147 -154 53 -154 c 0
 44 -154 35 -148 35 -139 c 0
 35 -128 50 -127 61 -127 c 0
 125 -127 190 -99 190 -26 c 0xd0
 190 42 177 89 177 147 c 0
 177 213 250 270 283 279 c 0xe0
EndSplineSet
EndChar

StartChar: asciitilde
Encoding: 126 126 95
Width: 500
GlyphClass: 2
Flags: MW
HStem: 260 73<304 349.5> 308 73<152.5 185>
LayerCount: 2
Fore
SplineSet
440 382 m 0x80
 445 382 450 368 450 362 c 0
 450 348 374 260 325 260 c 0x80
 277 260 212 308 158 308 c 0
 113 308 70 261 65 261 c 0
 57 261 50 272 50 279 c 0
 50 289 130 381 175 381 c 0x40
 221 381 271 333 337 333 c 0
 382 333 435 382 440 382 c 0x80
EndSplineSet
EndChar

StartChar: exclamdown
Encoding: 161 161 97
Width: 275
GlyphClass: 2
Flags: MW
HStem: -180 21G<108 142.5> 374 120<108.5 141.5>
VStem: 65 120<417.5 450.5> 74 100<-125.5 -74.5> 97 50
LayerCount: 2
Fore
SplineSet
126 -180 m 0xd0
 90 -180 74 -145 74 -106 c 0xd0
 74 -43 87 87 97 205 c 0
 99 234 110 263 125 263 c 0
 135 263 145 233 147 211 c 0xc8
 159 95 174 -21 174 -108 c 0
 174 -144 159 -180 126 -180 c 0xd0
125 374 m 0
 92 374 65 401 65 434 c 0
 65 467 92 494 125 494 c 0
 158 494 185 467 185 434 c 0xe0
 185 401 158 374 125 374 c 0
EndSplineSet
EndChar

StartChar: cent
Encoding: 162 162 98
Width: 412
GlyphClass: 2
Flags: MW
HStem: -14 59<228 271> 384 28<193 238 233 238>
VStem: 35 67<178.5 244.5>
LayerCount: 2
Fore
SplineSet
200 53 m 1
 235 384 l 1
 233 384 l 2
 153 384 102 297 102 222 c 0
 102 135 142 75 200 53 c 1
194 -12 m 1
 109 3 35 89 35 188 c 0
 35 301 119 401 238 412 c 1
 243 462 l 2
 244 473 254 479 265 479 c 0
 273 479 279 470 278 462 c 2
 273 413 l 1
 312 411 353 398 380 365 c 0
 383 361 384 357 384 353 c 0
 384 341 371 331 360 323 c 0
 356 321 351 319 347 319 c 0
 338 319 329 323 326 329 c 0
 312 354 296 372 269 379 c 1
 235 46 l 1
 240 45 245 45 250 45 c 0
 292 45 340 50 365 88 c 0
 367 91 370 93 374 93 c 0
 381 93 387 87 387 81 c 0
 387 80 387 78 386 77 c 0
 349 15 300 -12 228 -14 c 1
 223 -65 l 2
 222 -74 213 -80 204 -80 c 0
 195 -80 187 -74 188 -65 c 2
 194 -12 l 1
EndSplineSet
EndChar

StartChar: sterling
Encoding: 163 163 99
Width: 490
GlyphClass: 2
Flags: MW
ItalicCorrection: 18
HStem: -36 68<328.5 364.5> -14 21G<11.5 27> 600 29<293.5 343>
VStem: 130 88<336 342 342 342 342 408.5> 395 53<523 570> 434 43<72 96.5>
LayerCount: 2
Fore
SplineSet
130 341 m 2x74
 130 476 200 629 347 629 c 0
 425 629 448 593 448 547 c 0
 448 520 419 491 406 491 c 0
 396 491 394 496 394 505 c 0
 394 511 395 519 395 527 c 0x78
 394 560 360 600 326 600 c 0
 261 600 219 504 218 342 c 1
 351 351 l 2
 358 351 364 344 364 339 c 0
 364 332 348 313 333 313 c 2
 216 305 l 1
 206 217 160 123 135 102 c 0
 132 100 132 93 139 93 c 0
 259 93 280 32 377 32 c 0
 407 32 434 57 434 87 c 0
 434 106 422 118 421 138 c 0
 421 147 421 159 430 158 c 0
 459 155 477 133 477 105 c 0
 477 28 405 -36 324 -36 c 0xb4
 257 -36 219 -12 164 26 c 0
 142 42 110 55 100 55 c 0
 94 55 70 32 56 6 c 0
 48 -9 34 -14 20 -14 c 0
 3 -14 -10 0 -10 17 c 0
 -10 37 35 81 86 91 c 0
 92 92 94 97 97 103 c 0
 114 134 126 218 129 299 c 1
 45 293 l 2
 38 293 31 299 31 305 c 0
 31 314 42 330 55 331 c 2
 130 336 l 1
 130 341 l 2x74
EndSplineSet
EndChar

StartChar: currency
Encoding: 164 164 100
Width: 483
GlyphClass: 2
Flags: MW
ItalicCorrection: 50
HStem: 75 50<218.5 263.5> 415 50<218.5 263.5 218.5 280.5>
VStem: 49 50<248 292> 383 50<248 292 248 309.5>
LayerCount: 2
Fore
SplineSet
241 415 m 0
 162 415 99 349 99 270 c 0
 99 191 162 125 241 125 c 0
 320 125 383 191 383 270 c 0
 383 349 320 415 241 415 c 0
41 434 m 2
 39 436 38 438 38 441 c 0
 38 454 56 472 69 472 c 0
 72 472 75 471 77 469 c 2
 122 424 l 1
 155 449 196 465 241 465 c 0
 286 465 327 450 359 424 c 1
 405 470 l 2
 407 472 410 473 413 473 c 0
 425 473 443 457 443 443 c 0
 443 439 442 436 439 433 c 2
 394 388 l 1
 419 355 433 314 433 270 c 0
 433 226 419 185 394 152 c 1
 441 105 l 2
 443 103 444 101 444 98 c 0
 444 85 426 67 413 67 c 0
 410 67 407 68 405 70 c 2
 359 116 l 1
 327 90 286 75 241 75 c 0
 196 75 155 90 123 116 c 1
 76 70 l 2
 74 68 71 67 68 67 c 0
 55 67 38 84 38 97 c 0
 38 100 39 103 41 105 c 2
 88 152 l 1
 63 185 49 226 49 270 c 0
 49 314 63 355 88 387 c 1
 41 434 l 2
EndSplineSet
EndChar

StartChar: yen
Encoding: 165 165 101
Width: 619
GlyphClass: 2
Flags: MW
ItalicCorrection: 40
HStem: -5 29 197 35<140.5 270 154 270 154 270 350 458> 280 35<140.5 260 154 260 154 268 355 459> 620 33
VStem: 5 194<584 646> 270 80<232 256 256 260.5>
LayerCount: 2
Fore
SplineSet
127 522 m 2
 107 552 69 611 38 620 c 0
 16 627 5 633 5 642 c 0
 5 650 17 653 34 653 c 0
 64 653 105 650 151 650 c 0
 182 650 210 652 231 652 c 0
 248 652 260 649 260 641 c 0
 260 632 249 628 227 621 c 0
 216 617 199 608 199 588 c 0
 199 580 201 571 208 560 c 2
 301 395 l 2
 316 369 324 356 331 356 c 0
 339 356 347 370 362 395 c 2
 362 395 418 477 445 534 c 0
 450 545 452 557 452 568 c 0
 452 593 441 615 422 620 c 0
 408 624 389 631 389 640 c 0
 389 648 401 651 418 651 c 0
 448 651 464 650 493 650 c 0
 530 650 566 653 589 653 c 0
 606 653 618 650 618 642 c 0
 618 633 608 627 585 622 c 0
 550 615 506 557 485 526 c 0
 431 444 373 346 373 346 c 2
 365 334 358 323 355 315 c 1
 477 315 l 2
 484 315 490 310 490 304 c 0
 490 294 474 280 459 280 c 2
 350 280 l 1
 350 232 l 1
 476 232 l 2
 483 232 489 229 489 221 c 0
 489 211 473 197 458 197 c 2
 350 197 l 1
 350 108 l 2
 350 63 378 33 428 24 c 0
 451 20 461 15 461 6 c 0
 461 -2 449 -5 432 -5 c 0
 378 -5 361 0 315 0 c 0
 265 0 241 -5 187 -5 c 0
 170 -5 158 -2 158 6 c 0
 158 15 168 20 191 24 c 0
 241 33 269 60 269 108 c 2
 270 197 l 1
 144 197 l 2
 137 197 130 203 130 209 c 0
 130 218 141 232 154 232 c 2
 270 232 l 1
 270 256 l 2
 270 265 269 273 268 280 c 1
 144 280 l 2
 137 280 130 286 130 292 c 0
 130 301 141 315 154 315 c 2
 260 315 l 1
 256 322 254 326 251 330 c 2
 127 522 l 2
EndSplineSet
EndChar

StartChar: brokenbar
Encoding: 166 166 102
Width: 260
GlyphClass: 2
Flags: MW
HStem: -290 21G<109 116.5> 276 21G 685 20G<143 149.5>
VStem: 100 60<-276 -266 -266 156 156 157 299 674 674 685>
LayerCount: 2
Fore
SplineSet
146 179 m 0
 153 179 160 167 160 157 c 2
 160 -266 l 2
 160 -287 121 -290 112 -290 c 0
 106 -290 100 -283 100 -276 c 2
 100 156 l 2
 100 166 140 179 146 179 c 0
112 276 m 0
 106 276 100 289 100 299 c 2
 100 674 l 2
 100 696 140 705 146 705 c 0
 153 705 160 699 160 692 c 2
 160 297 l 2
 160 287 121 276 112 276 c 0
EndSplineSet
EndChar

StartChar: section
Encoding: 167 167 103
Width: 400
GlyphClass: 2
Flags: MW
HStem: -148 54<105.5 197> 596 44<193.5 207>
VStem: 24 49<350.5 373.5> 307 39<122.5 158.5>
LayerCount: 2
Fore
SplineSet
229 640 m 0
 254 640 288 631 299 621 c 0
 305 616 311 611 311 603 c 0
 311 599 294 556 273 556 c 0
 269 556 264 558 260 562 c 0
 240 580 216 596 198 596 c 0
 158 596 137 565 137 533 c 0
 137 496 182 438 241 385 c 0
 325 310 346 247 346 159 c 0
 346 86 330 49 296 -11 c 0
 262 -70 217 -113 177 -137 c 0
 162 -146 141 -148 123 -148 c 0
 88 -148 61 -134 61 -116 c 0
 61 -107 66 -81 89 -64 c 0
 96 -59 106 -66 111 -70 c 0
 128 -85 157 -94 180 -94 c 0
 214 -94 232 -64 232 -12 c 0
 232 38 170 95 118 149 c 0
 56 212 24 270 24 329 c 0
 24 418 52 467 90 513 c 1
 105 571 158 640 229 640 c 0
217 305 m 0
 175 348 110 412 94 458 c 0
 92 463 85 462 84 458 c 0
 77 431 73 412 73 385 c 0
 73 316 103 266 163 204 c 0
 205 161 270 97 286 51 c 0
 288 46 295 47 296 51 c 0
 303 78 307 97 307 124 c 0
 307 193 277 243 217 305 c 0
EndSplineSet
EndChar

StartChar: dieresis
Encoding: 168 168 104
Width: 317
GlyphClass: 2
Flags: MW
ItalicCorrection: 11
TopAccentHorizontal: 167
HStem: 474 100<57.5 82.5 234.5 259.5>
VStem: 20 100<511.5 536.5> 197 100<511.5 536.5>
LayerCount: 2
Fore
SplineSet
70 574 m 0
 95 574 120 549 120 524 c 0
 120 499 95 474 70 474 c 0
 45 474 20 499 20 524 c 0
 20 549 45 574 70 574 c 0
247 574 m 0
 272 574 297 549 297 524 c 0
 297 499 272 474 247 474 c 0
 222 474 197 499 197 524 c 0
 197 549 222 574 247 574 c 0
EndSplineSet
EndChar

StartChar: copyright
Encoding: 169 169 105
Width: 665
GlyphClass: 2
Flags: MW
HStem: 24 34<272 418.5 272 428.5> 154 30<337 380.5> 464 30<337 388 330.5 394> 590 40<273.5 418.5>
VStem: 43 40<254 399.5 254 410.5> 188 70<294.5 367.5 294.5 377.5> 456 22 609 40<253.5 399.5>
LayerCount: 2
Fore
SplineSet
462 225 m 0
 467 235 475 240 479 240 c 0
 483 240 484 236 484 227 c 0
 484 214 471 184 464 176 c 0
 446 158 402 154 359 154 c 0
 264 154 188 239 188 328 c 0
 188 427 281 494 380 494 c 0
 396 494 424 490 433 488 c 0
 441 485 462 481 471 478 c 0
 479 475 479 445 479 432 c 0
 479 425 479 417 478 409 c 0
 478 405 473 397 468 398 c 0
 462 398 459 405 456 413 c 0
 446 441 417 464 371 464 c 0
 303 464 258 404 258 331 c 0
 258 258 298 184 376 184 c 0
 413 184 446 193 462 225 c 0
346 630 m 0
 513 630 649 494 649 327 c 0
 649 160 512 24 345 24 c 0
 178 24 43 160 43 327 c 0
 43 494 179 630 346 630 c 0
346 590 m 0
 201 590 83 472 83 327 c 0
 83 181 199 58 345 58 c 0
 492 58 609 180 609 327 c 0
 609 472 491 590 346 590 c 0
EndSplineSet
EndChar

StartChar: ordfeminine
Encoding: 170 170 106
Width: 270
GlyphClass: 2
Flags: MW
ItalicCorrection: 22
HStem: 161 35<35.5 255 49 237> 268 40<105.5 110.5 224.5 231> 491 33<115 169.5>
VStem: 25 55<330.5 339.5> 160 55<350 379 379 385 432 455 455 465>
LayerCount: 2
Fore
SplineSet
219 268 m 0
 182 268 169 299 164 299 c 0
 155 299 137 268 84 268 c 0
 57 268 25 304 25 327 c 0
 25 352 31 368 63 380 c 2
 142 408 l 2
 159 414 160 416 160 432 c 2
 160 455 l 2
 160 475 147 491 123 491 c 0
 107 491 84 485 79 477 c 0
 76 471 78 456 78 453 c 0
 78 445 36 434 33 434 c 0
 29 434 28 436 28 439 c 0
 28 447 38 469 54 482 c 0
 74 499 120 524 154 524 c 0
 185 524 215 499 215 471 c 2
 215 347 l 2
 215 330 215 308 234 308 c 0
 252 308 257 318 259 318 c 0
 262 318 268 311 268 302 c 0
 268 298 243 268 219 268 c 0
80 342 m 0
 80 319 99 308 112 308 c 0
 126 308 142 319 152 327 c 0
 156 330 160 335 160 350 c 2
 160 379 l 2
 160 391 156 393 145 390 c 0
 95 376 80 356 80 342 c 0
49 196 m 2
 255 196 l 2
 261 196 269 191 269 185 c 0
 269 184 268 183 268 182 c 0
 261 169 252 161 237 161 c 2
 39 161 l 2
 32 161 25 167 25 173 c 0
 25 182 36 196 49 196 c 2
EndSplineSet
EndChar

StartChar: guillemotleft
Encoding: 171 171 107
Width: 676
GlyphClass: 2
Flags: MW
HStem: 380 20G<352.5 360 564.5 572>
LayerCount: 2
Fore
SplineSet
323 37 m 0
 254 106 177 155 118 182 c 0
 108 187 100 202 100 211 c 0
 100 214 101 217 103 218 c 0
 205 279 260 316 329 382 c 0
 335 388 347 400 358 400 c 0
 362 400 364 397 364 391 c 0
 364 362 282 275 207 217 c 0
 199 211 199 209 207 203 c 0
 279 147 362 55 362 31 c 0
 362 25 358 19 353 19 c 0
 345 19 336 24 323 37 c 0
535 37 m 0
 466 106 389 155 330 182 c 0
 320 187 312 202 312 211 c 0
 312 214 313 217 315 218 c 0
 417 279 472 316 541 382 c 0
 547 388 559 400 570 400 c 0
 574 400 576 397 576 391 c 0
 576 362 494 275 419 217 c 0
 411 211 411 209 419 203 c 0
 491 147 574 55 574 31 c 0
 574 25 570 19 565 19 c 0
 557 19 548 24 535 37 c 0
EndSplineSet
EndChar

StartChar: logicalnot
Encoding: 172 172 108
Width: 600
GlyphClass: 2
Flags: MW
HStem: 322 60<60.5 537 74 476>
VStem: 490 60<57 67 67 304 304 309>
LayerCount: 2
Fore
SplineSet
64 322 m 2
 57 322 50 328 50 334 c 0
 50 343 53 382 74 382 c 2
 537 382 l 2
 544 382 550 375 550 368 c 2
 550 67 l 2
 550 46 511 43 502 43 c 0
 496 43 490 50 490 57 c 2
 490 304 l 2
 490 314 486 322 476 322 c 2
 64 322 l 2
EndSplineSet
EndChar

StartChar: registered
Encoding: 174 174 109
Width: 665
GlyphClass: 2
Flags: MW
HStem: 24 34<272 418.5 272 428.5> 163 31<478 520> 320 32<324 332.5> 467 29<327 359.5> 590 40<273.5 418.5>
VStem: 43 40<254 399.5 254 410.5> 244 60<309 312.5 362.5 372 372 422 422 437> 406 64<396.5 429> 609 40<253.5 399.5>
LayerCount: 2
Fore
SplineSet
346 630 m 0
 513 630 649 494 649 327 c 0
 649 160 512 24 345 24 c 0
 178 24 43 160 43 327 c 0
 43 494 179 630 346 630 c 0
346 590 m 0
 201 590 83 472 83 327 c 0
 83 181 199 58 345 58 c 0
 492 58 609 180 609 327 c 0
 609 472 491 590 346 590 c 0
366 496 m 2
 418 496 470 470 470 417 c 0
 470 376 445 349 421 339 c 0
 412 335 417 329 421 322 c 2
 487 211 l 2
 495 197 506 194 518 194 c 0
 522 194 534 198 534 190 c 0
 534 172 509 163 490 163 c 0
 466 163 444 173 432 193 c 2
 374 290 l 2
 363 308 345 320 320 320 c 0
 312 320 304 316 304 309 c 2
 305 233 l 2
 305 211 323 206 339 201 c 0
 348 198 358 191 358 183 c 0
 358 177 348 172 342 172 c 0
 310 172 305 176 277 176 c 0
 249 176 248 172 216 172 c 0
 210 172 200 177 200 183 c 0
 200 191 210 198 219 201 c 0
 235 206 244 211 244 233 c 2
 244 422 l 2
 244 463 241 459 221 464 c 0
 207 468 202 474 202 482 c 0
 202 490 209 496 222 496 c 2
 366 496 l 2
406 413 m 0
 406 445 377 467 342 467 c 0
 312 467 304 455 304 437 c 2
 304 372 l 2
 304 353 317 352 331 352 c 0
 370 352 406 374 406 413 c 0
EndSplineSet
EndChar

StartChar: macron
Encoding: 175 175 110
Width: 300
GlyphClass: 2
Flags: MW
ItalicCorrection: 17
TopAccentHorizontal: 167
HStem: 501 55<40.5 257 54 239>
VStem: 30 240<510 547>
LayerCount: 2
Fore
SplineSet
54 556 m 2
 257 556 l 2
 263 556 270 550 270 544 c 0
 270 522 260 501 239 501 c 2
 44 501 l 2
 37 501 30 507 30 513 c 0
 30 522 35 556 54 556 c 2
EndSplineSet
EndChar

StartChar: degree
Encoding: 176 176 111
Width: 290
GlyphClass: 2
Flags: MW
HStem: 402 47<125 165 125 176.5> 597 48<125 165>
VStem: 25 47<503 543.5 503 560> 218 47<503 543.5>
LayerCount: 2
Fore
SplineSet
72 523 m 0
 72 483 105 449 145 449 c 0
 185 449 218 483 218 523 c 0
 218 564 185 597 145 597 c 0
 105 597 72 564 72 523 c 0
145 645 m 0
 208 645 265 592 265 528 c 0
 265 464 208 402 145 402 c 0
 82 402 25 464 25 528 c 0
 25 592 82 645 145 645 c 0
EndSplineSet
EndChar

StartChar: plusminus
Encoding: 177 177 112
Width: 590
GlyphClass: 2
Flags: MW
HStem: 38 50<60.5 527 74 509> 351 50<60.5 263 74 263 263 266 324 509>
VStem: 270 50<136 145 145 346 346 347 409 580 580 589.5>
LayerCount: 2
Fore
SplineSet
320 407 m 2
 320 400 321 401 324 401 c 2
 527 401 l 2
 533 401 541 396 541 390 c 0
 541 389 540 388 540 387 c 0
 534 370 528 351 509 351 c 2
 324 351 l 2
 321 351 320 350 320 347 c 2
 320 145 l 2
 320 127 291 121 282 121 c 0
 276 121 270 128 270 135 c 2
 270 346 l 2
 270 349 269 351 266 351 c 2
 64 351 l 2
 57 351 50 357 50 363 c 0
 50 372 56 401 74 401 c 2
 263 401 l 2
 269 401 270 403 270 409 c 2
 270 580 l 2
 270 599 300 611 306 611 c 0
 313 611 320 605 320 598 c 2
 320 407 l 2
64 38 m 2
 57 38 50 44 50 50 c 0
 50 59 56 88 74 88 c 2
 527 88 l 2
 533 88 541 83 541 77 c 0
 541 76 540 75 540 74 c 0
 534 57 528 38 509 38 c 2
 64 38 l 2
EndSplineSet
EndChar

StartChar: acute
Encoding: 180 180 113
Width: 382
GlyphClass: 2
Flags: MW
ItalicCorrection: 12
TopAccentHorizontal: 205
HStem: 449 201<151.5 290>
VStem: 143 173<457.5 638>
LayerCount: 2
Fore
SplineSet
281 650 m 0
 299 650 316 645 316 631 c 0
 316 612 263 582 183 471 c 0
 178 464 165 449 156 449 c 0
 147 449 143 453 143 462 c 0
 143 477 210 598 231 632 c 0
 242 650 259 650 281 650 c 0
EndSplineSet
EndChar

StartChar: uni00B5
Encoding: 181 181 114
Width: 510
GlyphClass: 2
Flags: MW
HStem: -285 21G<93 118.5> -15 79<397.5 427.5> -13 63<186 195.5 147 235> 398 20G<63.5 97.5>
VStem: 31 29<-37.5 38.5> 31 91<322 353> 38 53<76 152> 317 88<333.5 351.5>
LayerCount: 2
Fore
SplineSet
420 64 m 0xd3
 457 64 485 109 493 109 c 0
 498 109 504 105 504 100 c 0
 504 25 449 -15 406 -15 c 0xd3
 373 -15 359 0 339 48 c 0
 337 54 328 93 326 114 c 1
 319 98 260 -13 210 -13 c 0
 162 -13 138 6 98 38 c 0
 88 46 77 62 70 62 c 0
 63 62 60 49 60 28 c 0
 60 -1 66 -43 72 -78 c 0
 85 -156 137 -236 137 -254 c 0
 137 -274 128 -285 109 -285 c 0
 77 -285 58 -265 46 -234 c 0
 37 -210 31 -75 31 0 c 0xb9
 31 17 38 60 38 92 c 0xb3
 38 125 31 288 31 332 c 0
 31 374 44 418 83 418 c 0
 112 418 122 391 122 343 c 0xb5
 122 301 91 172 91 132 c 0
 91 106 125 50 169 50 c 0xb3
 222 50 255 77 279 122 c 0
 317 195 317 252 317 332 c 0
 317 371 332 415 366 415 c 0
 400 415 405 374 405 352 c 0
 405 315 357 215 357 162 c 0
 357 125 375 64 420 64 c 0xd3
EndSplineSet
EndChar

StartChar: paragraph
Encoding: 182 182 115
Width: 586
GlyphClass: 2
Flags: MW
ItalicCorrection: 25
HStem: -287 25<285.5 322 285.5 339> -208 68<254.5 298.5> 608 40<311.5 459.5>
VStem: 46 370<301.5 468.5> 215 36<-229.5 -214 -230.5 -187> 377 39<-180 -166 -166 94 94 99>
LayerCount: 2
Fore
SplineSet
251 -218 m 0xec
 251 -243 272 -262 299 -262 c 0
 345 -262 377 -227 377 -180 c 2
 377 94 l 2xec
 377 104 375 119 364 119 c 0
 203 119 46 221 46 382 c 0xf0
 46 555 225 648 398 648 c 0
 453 648 523 644 538 642 c 0
 548 640 553 631 553 622 c 0
 553 613 547 592 539 592 c 0
 533 592 485 608 434 608 c 0
 424 608 416 599 416 590 c 2
 416 -166 l 2
 416 -210 375 -287 303 -287 c 0
 256 -287 215 -253 215 -206 c 0
 215 -168 247 -140 285 -140 c 0
 312 -140 339 -157 339 -184 c 0
 339 -206 322 -227 304 -227 c 0
 284 -227 265 -208 256 -208 c 0
 253 -208 251 -210 251 -218 c 0xec
EndSplineSet
EndChar

StartChar: periodcentered
Encoding: 183 183 116
Width: 200
GlyphClass: 2
Flags: MW
HStem: 150 110<85 115>
VStem: 45 110<190 220>
LayerCount: 2
Fore
SplineSet
100 260 m 0
 130 260 155 235 155 205 c 0
 155 175 130 150 100 150 c 0
 70 150 45 175 45 205 c 0
 45 235 70 260 100 260 c 0
EndSplineSet
EndChar

StartChar: cedilla
Encoding: 184 184 117
Width: 377
GlyphClass: 2
Flags: MW
HStem: -274 49<127.5 190>
VStem: 216 50<-179 -162>
LayerCount: 2
Fore
SplineSet
131 -129 m 0
 124 -129 113 -123 113 -114 c 0
 113 -111 115 -108 118 -104 c 2
 206 8 l 1
 237 8 l 1
 198 -43 l 2
 196 -45 194 -49 194 -51 c 0
 194 -57 201 -62 205 -63 c 0
 237 -77 266 -106 266 -139 c 0
 266 -219 177 -274 141 -274 c 0
 114 -274 111 -252 111 -233 c 0
 111 -219 120 -214 124 -214 c 0
 131 -214 144 -225 177 -225 c 0
 203 -225 216 -206 216 -180 c 0
 216 -144 192 -123 157 -123 c 0
 144 -123 138 -129 131 -129 c 0
EndSplineSet
EndChar

StartChar: ordmasculine
Encoding: 186 186 118
Width: 309
GlyphClass: 2
Flags: MW
ItalicCorrection: 22
HStem: 161 35<35.5 271 49 253> 268 31<138 182 138 193> 491 33<126.5 171.5>
VStem: 25 61<374.5 425 374.5 425> 223 61<369 415>
LayerCount: 2
Fore
SplineSet
160 524 m 0
 225 524 284 469 284 404 c 0
 284 334 238 268 148 268 c 0
 81 268 25 316 25 388 c 0
 25 462 86 524 160 524 c 0
149 491 m 0
 104 491 86 448 86 402 c 0
 86 347 116 299 160 299 c 0
 204 299 223 341 223 389 c 0
 223 441 194 491 149 491 c 0
49 196 m 2
 271 196 l 2
 277 196 285 191 285 185 c 0
 285 184 284 183 284 182 c 0
 277 169 268 161 253 161 c 2
 39 161 l 2
 32 161 25 167 25 173 c 0
 25 182 36 196 49 196 c 2
EndSplineSet
EndChar

StartChar: guillemotright
Encoding: 187 187 119
Width: 676
GlyphClass: 2
Flags: MW
HStem: 380 20G<104 111.5 316 323.5>
LayerCount: 2
Fore
SplineSet
353 37 m 0
 340 24 331 19 323 19 c 0
 318 19 314 25 314 31 c 0
 314 55 397 147 469 203 c 0
 477 209 477 211 469 217 c 0
 394 275 312 362 312 391 c 0
 312 397 314 400 318 400 c 0
 329 400 341 388 347 382 c 0
 416 316 471 279 573 218 c 0
 575 217 576 214 576 211 c 0
 576 202 568 187 558 182 c 0
 499 155 422 106 353 37 c 0
141 37 m 0
 128 24 119 19 111 19 c 0
 106 19 102 25 102 31 c 0
 102 55 185 147 257 203 c 0
 265 209 265 211 257 217 c 0
 182 275 100 362 100 391 c 0
 100 397 102 400 106 400 c 0
 117 400 129 388 135 382 c 0
 204 316 259 279 361 218 c 0
 363 217 364 214 364 211 c 0
 364 202 356 187 346 182 c 0
 287 155 210 106 141 37 c 0
EndSplineSet
EndChar

StartChar: questiondown
Encoding: 191 191 120
Width: 370
GlyphClass: 2
Flags: MW
HStem: -181 92<233.5 253.5 233.5 253.5> 374 120<188.5 221.5>
VStem: 40 55<-11 89.5> 145 120<417.5 450.5> 204 37 204 53
LayerCount: 2
Fore
SplineSet
245 -181 m 0xe4
 212 -181 170 -164 137 -131 c 0
 81 -75 40 14 40 65 c 0
 40 114 64 149 84 160 c 0
 128 184 142 192 174 213 c 0
 202 231 203 244 204 276 c 0xe4
 204 286 209 299 219 299 c 0
 226 299 237 286 241 270 c 0xe8
 247 249 257 228 257 183 c 0
 257 149 219 125 156 93 c 0
 128 79 95 51 95 22 c 0
 95 -44 128 -92 196 -93 c 0
 215 -93 224 -89 243 -89 c 0
 264 -89 285 -118 285 -145 c 0
 285 -164 262 -181 245 -181 c 0xe4
205 374 m 0
 172 374 145 401 145 434 c 0
 145 467 172 494 205 494 c 0
 238 494 265 467 265 434 c 0xf0
 265 401 238 374 205 374 c 0
EndSplineSet
EndChar

StartChar: Agrave
Encoding: 192 192 121
Width: 692
GlyphClass: 2
Flags: MW
ItalicCorrection: 12
HStem: -5 36 244 43<230 417 262 417 417 422 262 424> 685 153<285 397>
VStem: -2 178<4 93.5> 234 167<689.5 822> 489 208<1 90.5>
LayerCount: 2
Fore
SplineSet
395 685 m 0
 392 685 386 687 377 694 c 0
 337 724 287 762 247 796 c 0
 238 804 234 808 234 815 c 0
 234 829 278 838 292 838 c 0
 303 838 312 835 319 825 c 0
 346 786 372 746 396 706 c 0
 399 701 401 695 401 691 c 0
 401 688 399 685 395 685 c 0
333 542 m 2
 243 302 l 2
 242 299 241 296 241 294 c 0
 241 287 249 287 262 287 c 2
 417 287 l 2
 427 287 431 287 431 292 c 0
 431 294 430 298 429 302 c 2
 350 541 l 2
 346 553 344 559 341 559 c 0
 339 559 337 553 333 542 c 2
668 -5 m 0
 640 -5 574 1 529 1 c 0
 490 1 448 0 424 0 c 0
 407 0 395 4 395 12 c 0
 395 21 410 28 428 31 c 0
 472 38 489 54 489 76 c 0
 489 105 466 183 451 233 c 0
 448 243 442 244 424 244 c 2
 233 244 l 2
 227 244 221 240 216 226 c 0
 207 200 176 100 176 87 c 0
 176 58 202 38 234 30 c 0
 257 24 267 19 267 10 c 0
 267 2 255 -1 238 -1 c 0
 220 -1 184 1 147 1 c 0
 103 1 60 -5 27 -5 c 0
 10 -5 -2 0 -2 8 c 0
 -2 17 9 24 31 31 c 0
 65 41 95 58 117 108 c 0
 192 279 237 393 304 578 c 0
 319 620 316 635 318 636 c 0
 330 640 342 643 354 651 c 0
 368 660 370 686 375 686 c 0
 380 686 382 671 385 662 c 0
 449 459 530 223 563 128 c 0
 591 48 624 35 664 28 c 0
 687 24 697 14 697 5 c 0
 697 -3 685 -5 668 -5 c 0
EndSplineSet
EndChar

StartChar: Aacute
Encoding: 193 193 122
Width: 692
GlyphClass: 2
Flags: MW
ItalicCorrection: 12
HStem: -5 36 244 43<230 417 262 417 417 422 262 424> 685 153<329 441>
VStem: -2 178<4 93.5> 325 167<689.5 822> 489 208<1 90.5>
LayerCount: 2
Fore
SplineSet
331 685 m 0x28
 327 685 325 688 325 691 c 0
 325 695 327 701 330 706 c 0
 354 746 380 786 407 825 c 0
 414 835 423 838 434 838 c 0
 448 838 492 829 492 815 c 0
 492 808 488 804 479 796 c 0
 439 762 389 724 349 694 c 0
 340 687 334 685 331 685 c 0x28
333 542 m 2xd4
 243 302 l 2
 242 299 241 296 241 294 c 0
 241 287 249 287 262 287 c 2
 417 287 l 2
 427 287 431 287 431 292 c 0
 431 294 430 298 429 302 c 2
 350 541 l 2
 346 553 344 559 341 559 c 0
 339 559 337 553 333 542 c 2xd4
668 -5 m 0
 640 -5 574 1 529 1 c 0
 490 1 448 0 424 0 c 0
 407 0 395 4 395 12 c 0
 395 21 410 28 428 31 c 0
 472 38 489 54 489 76 c 0
 489 105 466 183 451 233 c 0
 448 243 442 244 424 244 c 2
 233 244 l 2
 227 244 221 240 216 226 c 0
 207 200 176 100 176 87 c 0
 176 58 202 38 234 30 c 0
 257 24 267 19 267 10 c 0
 267 2 255 -1 238 -1 c 0
 220 -1 184 1 147 1 c 0
 103 1 60 -5 27 -5 c 0
 10 -5 -2 0 -2 8 c 0
 -2 17 9 24 31 31 c 0
 65 41 95 58 117 108 c 0
 192 279 237 393 304 578 c 0
 319 620 316 635 318 636 c 0
 330 640 342 643 354 651 c 0
 368 660 370 686 375 686 c 0
 380 686 382 671 385 662 c 0
 449 459 530 223 563 128 c 0
 591 48 624 35 664 28 c 0
 687 24 697 14 697 5 c 0
 697 -3 685 -5 668 -5 c 0
EndSplineSet
EndChar

StartChar: Acircumflex
Encoding: 194 194 123
Width: 692
GlyphClass: 2
Flags: MW
ItalicCorrection: 12
HStem: -5 36 244 43<230 417 262 417 417 422 262 424> 681 127<227.5 370.5>
VStem: -2 178<4 93.5> 217 291<688 693> 489 208<1 90.5>
LayerCount: 2
Fore
SplineSet
232 681 m 0x28
 223 681 217 685 217 691 c 0
 217 695 219 699 224 703 c 2
 322 786 l 2
 341 803 348 808 363 808 c 0
 378 808 385 803 404 786 c 2
 502 703 l 2
 507 699 508 695 508 691 c 0
 508 685 503 680 494 680 c 0
 481 680 399 721 373 736 c 0
 364 741 362 741 353 736 c 0
 327 721 245 681 232 681 c 0x28
333 542 m 2xd4
 243 302 l 2
 242 299 241 296 241 294 c 0
 241 287 249 287 262 287 c 2
 417 287 l 2
 427 287 431 287 431 292 c 0
 431 294 430 298 429 302 c 2
 350 541 l 2
 346 553 344 559 341 559 c 0
 339 559 337 553 333 542 c 2xd4
668 -5 m 0
 640 -5 574 1 529 1 c 0
 490 1 448 0 424 0 c 0
 407 0 395 4 395 12 c 0
 395 21 410 28 428 31 c 0
 472 38 489 54 489 76 c 0
 489 105 466 183 451 233 c 0
 448 243 442 244 424 244 c 2
 233 244 l 2
 227 244 221 240 216 226 c 0
 207 200 176 100 176 87 c 0
 176 58 202 38 234 30 c 0
 257 24 267 19 267 10 c 0
 267 2 255 -1 238 -1 c 0
 220 -1 184 1 147 1 c 0
 103 1 60 -5 27 -5 c 0
 10 -5 -2 0 -2 8 c 0
 -2 17 9 24 31 31 c 0
 65 41 95 58 117 108 c 0
 192 279 237 393 304 578 c 0
 319 620 316 635 318 636 c 0
 330 640 342 643 354 651 c 0
 368 660 370 686 375 686 c 0
 380 686 382 671 385 662 c 0
 449 459 530 223 563 128 c 0
 591 48 624 35 664 28 c 0
 687 24 697 14 697 5 c 0
 697 -3 685 -5 668 -5 c 0
EndSplineSet
EndChar

StartChar: Atilde
Encoding: 195 195 124
Width: 692
GlyphClass: 2
Flags: MW
ItalicCorrection: 12
HStem: -5 36 244 43<230 417 262 417 417 422 262 424> 715 55<415.5 435.5> 725 54<296.5 310.5>
VStem: -2 178<4 93.5> 225 280<706 789> 489 208<1 90.5>
LayerCount: 2
Fore
SplineSet
422 715 m 0x24
 397 715 323 725 298 725 c 0
 278 725 251 694 241 694 c 0
 233 694 225 701 225 711 c 0
 225 734 284 779 309 779 c 0x14
 334 779 403 770 428 770 c 0
 463 770 476 801 488 801 c 0
 498 801 505 794 505 784 c 0
 505 764 449 715 422 715 c 0x24
333 542 m 2xca
 243 302 l 2
 242 299 241 296 241 294 c 0
 241 287 249 287 262 287 c 2
 417 287 l 2
 427 287 431 287 431 292 c 0
 431 294 430 298 429 302 c 2
 350 541 l 2
 346 553 344 559 341 559 c 0
 339 559 337 553 333 542 c 2xca
668 -5 m 0
 640 -5 574 1 529 1 c 0
 490 1 448 0 424 0 c 0
 407 0 395 4 395 12 c 0
 395 21 410 28 428 31 c 0
 472 38 489 54 489 76 c 0
 489 105 466 183 451 233 c 0
 448 243 442 244 424 244 c 2
 233 244 l 2
 227 244 221 240 216 226 c 0
 207 200 176 100 176 87 c 0
 176 58 202 38 234 30 c 0
 257 24 267 19 267 10 c 0
 267 2 255 -1 238 -1 c 0
 220 -1 184 1 147 1 c 0
 103 1 60 -5 27 -5 c 0
 10 -5 -2 0 -2 8 c 0
 -2 17 9 24 31 31 c 0
 65 41 95 58 117 108 c 0
 192 279 237 393 304 578 c 0
 319 620 316 635 318 636 c 0
 330 640 342 643 354 651 c 0
 368 660 370 686 375 686 c 0
 380 686 382 671 385 662 c 0
 449 459 530 223 563 128 c 0
 591 48 624 35 664 28 c 0
 687 24 697 14 697 5 c 0
 697 -3 685 -5 668 -5 c 0
EndSplineSet
EndChar

StartChar: Adieresis
Encoding: 196 196 125
Width: 692
GlyphClass: 2
Flags: MW
ItalicCorrection: 12
HStem: -5 36 244 43<230 417 262 417 417 422 262 424> 695 100<251 279 446 474>
VStem: -2 178<4 93.5> 215 100<731 759> 410 100<731 759> 489 208<1 90.5>
LayerCount: 2
Fore
SplineSet
265 795 m 0x2c
 293 795 315 773 315 745 c 0
 315 717 293 695 265 695 c 0
 237 695 215 717 215 745 c 0
 215 773 237 795 265 795 c 0x2c
460 795 m 0
 488 795 510 773 510 745 c 0
 510 717 488 695 460 695 c 0
 432 695 410 717 410 745 c 0
 410 773 432 795 460 795 c 0
333 542 m 2xd2
 243 302 l 2
 242 299 241 296 241 294 c 0
 241 287 249 287 262 287 c 2
 417 287 l 2
 427 287 431 287 431 292 c 0
 431 294 430 298 429 302 c 2
 350 541 l 2
 346 553 344 559 341 559 c 0
 339 559 337 553 333 542 c 2xd2
668 -5 m 0
 640 -5 574 1 529 1 c 0
 490 1 448 0 424 0 c 0
 407 0 395 4 395 12 c 0
 395 21 410 28 428 31 c 0
 472 38 489 54 489 76 c 0
 489 105 466 183 451 233 c 0
 448 243 442 244 424 244 c 2
 233 244 l 2
 227 244 221 240 216 226 c 0
 207 200 176 100 176 87 c 0
 176 58 202 38 234 30 c 0
 257 24 267 19 267 10 c 0
 267 2 255 -1 238 -1 c 0
 220 -1 184 1 147 1 c 0
 103 1 60 -5 27 -5 c 0
 10 -5 -2 0 -2 8 c 0
 -2 17 9 24 31 31 c 0
 65 41 95 58 117 108 c 0
 192 279 237 393 304 578 c 0
 319 620 316 635 318 636 c 0
 330 640 342 643 354 651 c 0
 368 660 370 686 375 686 c 0
 380 686 382 671 385 662 c 0
 449 459 530 223 563 128 c 0
 591 48 624 35 664 28 c 0
 687 24 697 14 697 5 c 0
 697 -3 685 -5 668 -5 c 0
EndSplineSet
EndChar

StartChar: Aring
Encoding: 197 197 126
Width: 692
GlyphClass: 2
Flags: MW
ItalicCorrection: 12
HStem: -5 36 244 43<230 417 262 417 417 422 262 424> 700 22<348 374.5 348 376.5> 821 23<341 367.5>
VStem: -2 178<4 93.5> 270 42<758 785 758 792> 402 42<759.5 785.5> 489 208<1 90.5>
LayerCount: 2
Fore
SplineSet
312 772 m 0
 312 744 334 722 362 722 c 0
 387 722 402 747 402 772 c 0
 402 799 381 821 354 821 c 0
 328 821 312 798 312 772 c 0
361 844 m 0
 403 844 444 819 444 777 c 0
 444 730 400 700 353 700 c 0
 310 700 270 726 270 769 c 0
 270 815 315 844 361 844 c 0
333 542 m 2
 243 302 l 2
 242 299 241 296 241 294 c 0
 241 287 249 287 262 287 c 2
 417 287 l 2
 427 287 431 287 431 292 c 0
 431 294 430 298 429 302 c 2
 350 541 l 2
 346 553 344 559 341 559 c 0
 339 559 337 553 333 542 c 2
668 -5 m 0
 640 -5 574 1 529 1 c 0
 490 1 448 0 424 0 c 0
 407 0 395 4 395 12 c 0
 395 21 410 28 428 31 c 0
 472 38 489 54 489 76 c 0
 489 105 466 183 451 233 c 0
 448 243 442 244 424 244 c 2
 233 244 l 2
 227 244 221 240 216 226 c 0
 207 200 176 100 176 87 c 0
 176 58 202 38 234 30 c 0
 257 24 267 19 267 10 c 0
 267 2 255 -1 238 -1 c 0
 220 -1 184 1 147 1 c 0
 103 1 60 -5 27 -5 c 0
 10 -5 -2 0 -2 8 c 0
 -2 17 9 24 31 31 c 0
 65 41 95 58 117 108 c 0
 192 279 237 393 304 578 c 0
 319 620 316 635 318 636 c 0
 330 640 342 643 354 651 c 0
 368 660 370 686 375 686 c 0
 380 686 382 671 385 662 c 0
 449 459 530 223 563 128 c 0
 591 48 624 35 664 28 c 0
 687 24 697 14 697 5 c 0
 697 -3 685 -5 668 -5 c 0
EndSplineSet
EndChar

StartChar: AE
Encoding: 198 198 127
Width: 866
GlyphClass: 2
Flags: MW
HStem: -5 33 1 34 285 43<283.5 438 314 432> 598 50<449.5 452.5> 618 35 626 25<300 300>
VStem: -5 175<2 86.5> 454 79<96 111 111 264 348.5 354 354 580 580 586> 706 32 789 25<542 542>
LayerCount: 2
Fore
SplineSet
438 581 m 2x33c0
 302 343 l 2
 299 338 298 335 298 333 c 0
 298 329 303 328 314 328 c 2
 438 328 l 2
 453 328 454 328 454 343 c 2
 454 580 l 2
 454 592 454 598 451 598 c 0
 448 598 444 592 438 581 c 2x33c0
533 354 m 2
 533 343 540 332 550 332 c 0
 592 332 622 333 646 334 c 0
 665 335 678 336 690 347 c 0
 699 355 702 359 707 371 c 0
 709 376 720 388 725 388 c 0
 730 388 739 381 738 372 c 0
 736 349 735 331 735 313 c 0
 735 290 736 269 738 240 c 0
 738 231 737 223 729 223 c 0
 716 223 708 239 706 246 c 0
 696 277 675 284 659 285 c 0
 617 287 595 287 556 287 c 0
 544 287 533 280 533 264 c 2
 533 111 l 2
 533 73 553 35 598 35 c 2
 702 35 l 2x6bc0
 707 35 765 43 778 53 c 0
 796 67 812 99 820 116 c 0
 824 124 827 127 834 126 c 0
 841 125 847 121 847 115 c 0
 847 77 838 43 830 12 c 0
 828 4 826 -5 816 -5 c 0xa3c0
 698 -5 606 1 512 1 c 2
 492 1 l 2x63c0
 447 1 431 -5 377 -5 c 0xa3c0
 360 -5 348 -2 348 6 c 0
 348 15 358 20 381 24 c 0
 430 33 454 50 454 96 c 2
 454 267 l 2
 454 277 452 285 432 285 c 2
 291 285 l 2
 276 285 268 275 261 262 c 0
 235 218 211 174 179 112 c 0
 173 101 170 91 170 82 c 0
 170 50 206 37 235 30 c 0
 258 24 268 19 268 10 c 0
 268 2 256 -1 239 -1 c 0
 221 -1 186 1 150 1 c 0x63c0
 105 1 57 -5 24 -5 c 0
 7 -5 -5 -2 -5 6 c 0
 -5 15 6 21 28 28 c 0
 62 38 104 78 132 126 c 2
 405 594 l 2
 410 602 401 610 388 611 c 2
 300 626 l 2
 293 629 290 634 290 639 c 0
 290 645 294 651 300 651 c 0xa7c0
 342 651 407 648 475 648 c 0x33c0
 587 648 733 653 776 653 c 2
 784 653 l 2
 791 653 801 651 802 644 c 0
 809 606 813 576 814 541 c 0
 814 535 806 532 800 532 c 0
 793 532 791 535 789 542 c 0
 782 564 775 581 766 591 c 0
 747 612 724 618 699 618 c 2
 568 618 l 2x2bc0
 557 618 533 610 533 592 c 2
 533 354 l 2
EndSplineSet
EndChar

StartChar: Ccedilla
Encoding: 199 199 128
Width: 640
GlyphClass: 2
Flags: MW
HStem: -275 53<358.5 371.5> -15 31<322 399> 632 31<320.5 426 313 440>
VStem: 46 100<265.5 420> 425 53<-193 -171> 576 37
LayerCount: 2
Fore
SplineSet
326 -115 m 0
 326 -108 329 -104 332 -100 c 2
 412 8 l 1
 443 8 l 1
 402 -54 l 2
 397 -61 407 -68 412 -70 c 0
 440 -82 478 -112 478 -159 c 0
 478 -227 394 -275 349 -275 c 0
 314 -275 304 -258 304 -243 c 0
 304 -220 312 -209 320 -209 c 0
 328 -209 334 -222 383 -222 c 0
 400 -222 425 -212 425 -183 c 0
 425 -159 413 -129 378 -129 c 0
 366 -129 361 -132 352 -132 c 0
 335 -132 326 -121 326 -115 c 0
586 137 m 0
 592 148 606 152 611 156 c 0
 612 157 612 157 613 157 c 0
 617 157 620 147 620 138 c 0
 620 135 619 132 619 130 c 0
 615 105 601 49 586 26 c 0
 581 18 562 13 537 5 c 0
 502 -6 429 -15 369 -15 c 0
 187 -15 46 141 46 323 c 0
 46 517 216 663 410 663 c 0
 442 663 498 657 516 651 c 0
 534 645 572 636 592 633 c 0
 600 632 604 617 605 603 c 0
 609 572 612 546 613 494 c 0
 614 485 612 470 602 471 c 0
 591 472 580 485 576 508 c 0
 571 548 553 570 541 581 c 0
 531 591 486 632 394 632 c 0
 247 632 146 494 146 347 c 0
 146 184 244 16 400 16 c 0
 512 16 560 86 586 137 c 0
EndSplineSet
EndChar

StartChar: Egrave
Encoding: 200 200 129
Width: 535
GlyphClass: 2
Flags: MW
ItalicCorrection: 14
HStem: -5 29 -5 40 320 32<232.5 244 244 324 324 337> 388 20<400.5 405.5> 618 35 685 153<209 321>
VStem: 130 80<99 102 102 294 368 374 374 549 549 573> 158 167<689.5 822> 383 32 466 25
LayerCount: 2
Fore
SplineSet
319 685 m 0x05
 316 685 310 687 301 694 c 0
 261 724 211 762 171 796 c 0
 162 804 158 808 158 815 c 0
 158 829 202 838 216 838 c 0
 227 838 236 835 243 825 c 0
 270 786 296 746 320 706 c 0
 323 701 325 695 325 691 c 0
 325 688 323 685 319 685 c 0x05
210 102 m 2xbac0
 210 51 231 35 276 35 c 2
 380 35 l 2x7ac0
 430 35 443 43 456 53 c 0
 474 67 490 99 498 116 c 0
 502 124 505 127 512 126 c 0
 519 125 525 123 525 115 c 0
 525 97 515 38 508 12 c 0
 506 3 502 -5 494 -5 c 0
 366 -5 267 1 167 1 c 0
 122 1 106 -5 52 -5 c 0
 35 -5 23 -2 23 6 c 0
 23 15 33 20 56 24 c 0
 106 33 130 51 130 99 c 2
 130 549 l 2
 130 597 113 613 63 622 c 0
 40 626 30 633 30 642 c 0
 30 650 42 653 59 653 c 0
 134 653 166 650 236 650 c 0
 327 650 448 653 458 653 c 0
 465 653 475 651 476 644 c 0
 483 606 491 568 491 541 c 0
 491 529 483 526 477 526 c 0
 470 526 468 529 466 536 c 0
 459 558 453 581 444 591 c 0
 425 612 402 618 377 618 c 2
 246 618 l 2
 235 618 210 605 210 586 c 2
 210 374 l 2
 210 362 218 352 228 352 c 2
 324 352 l 2
 353 352 375 368 385 391 c 0
 387 396 398 408 403 408 c 0
 408 408 416 402 416 392 c 0
 416 383 413 353 413 337 c 0
 413 317 415 277 415 269 c 0
 415 260 414 252 406 252 c 0
 393 252 385 268 383 275 c 0
 373 306 354 320 337 320 c 2
 244 320 l 2
 221 320 210 317 210 294 c 2
 210 102 l 2xbac0
EndSplineSet
EndChar

StartChar: Eacute
Encoding: 201 201 130
Width: 535
GlyphClass: 2
Flags: MW
ItalicCorrection: 14
HStem: -5 29 -5 40 320 32<232.5 244 244 324 324 337> 388 20<400.5 405.5> 618 35 685 153<253 365>
VStem: 130 80<99 102 102 294 368 374 374 549 549 573> 249 167 383 32 466 25
LayerCount: 2
Fore
SplineSet
255 685 m 0x05
 251 685 249 688 249 691 c 0
 249 695 251 701 254 706 c 0
 278 746 304 786 331 825 c 0
 338 835 347 838 358 838 c 0
 372 838 416 829 416 815 c 0
 416 808 412 804 403 796 c 0
 363 762 313 724 273 694 c 0
 264 687 258 685 255 685 c 0x05
210 102 m 2xbac0
 210 51 231 35 276 35 c 2
 380 35 l 2x7ac0
 430 35 443 43 456 53 c 0
 474 67 490 99 498 116 c 0
 502 124 505 127 512 126 c 0
 519 125 525 123 525 115 c 0
 525 97 515 38 508 12 c 0
 506 3 502 -5 494 -5 c 0
 366 -5 267 1 167 1 c 0
 122 1 106 -5 52 -5 c 0
 35 -5 23 -2 23 6 c 0
 23 15 33 20 56 24 c 0
 106 33 130 51 130 99 c 2
 130 549 l 2
 130 597 113 613 63 622 c 0
 40 626 30 633 30 642 c 0
 30 650 42 653 59 653 c 0
 134 653 166 650 236 650 c 0
 327 650 448 653 458 653 c 0
 465 653 475 651 476 644 c 0
 483 606 491 568 491 541 c 0
 491 529 483 526 477 526 c 0
 470 526 468 529 466 536 c 0
 459 558 453 581 444 591 c 0
 425 612 402 618 377 618 c 2
 246 618 l 2
 235 618 210 605 210 586 c 2
 210 374 l 2
 210 362 218 352 228 352 c 2
 324 352 l 2
 353 352 375 368 385 391 c 0
 387 396 398 408 403 408 c 0
 408 408 416 402 416 392 c 0
 416 383 413 353 413 337 c 0
 413 317 415 277 415 269 c 0
 415 260 414 252 406 252 c 0
 393 252 385 268 383 275 c 0
 373 306 354 320 337 320 c 2
 244 320 l 2
 221 320 210 317 210 294 c 2
 210 102 l 2xbac0
EndSplineSet
EndChar

StartChar: Ecircumflex
Encoding: 202 202 131
Width: 535
GlyphClass: 2
Flags: MW
ItalicCorrection: 14
HStem: -5 29 -5 40 320 32<232.5 244 244 324 324 337> 388 20<400.5 405.5> 618 35 681 127<151.5 294.5>
VStem: 130 80<99 102 102 294 368 374 374 549 549 573> 141 291<688 693> 383 32 466 25
LayerCount: 2
Fore
SplineSet
156 681 m 0x05
 147 681 141 685 141 691 c 0
 141 695 143 699 148 703 c 2
 246 786 l 2
 265 803 272 808 287 808 c 0
 302 808 309 803 328 786 c 2
 426 703 l 2
 431 699 432 695 432 691 c 0
 432 685 427 680 418 680 c 0
 405 680 323 721 297 736 c 0
 288 741 286 741 277 736 c 0
 251 721 169 681 156 681 c 0x05
210 102 m 2xbac0
 210 51 231 35 276 35 c 2
 380 35 l 2x7ac0
 430 35 443 43 456 53 c 0
 474 67 490 99 498 116 c 0
 502 124 505 127 512 126 c 0
 519 125 525 123 525 115 c 0
 525 97 515 38 508 12 c 0
 506 3 502 -5 494 -5 c 0
 366 -5 267 1 167 1 c 0
 122 1 106 -5 52 -5 c 0
 35 -5 23 -2 23 6 c 0
 23 15 33 20 56 24 c 0
 106 33 130 51 130 99 c 2
 130 549 l 2
 130 597 113 613 63 622 c 0
 40 626 30 633 30 642 c 0
 30 650 42 653 59 653 c 0
 134 653 166 650 236 650 c 0
 327 650 448 653 458 653 c 0
 465 653 475 651 476 644 c 0
 483 606 491 568 491 541 c 0
 491 529 483 526 477 526 c 0
 470 526 468 529 466 536 c 0
 459 558 453 581 444 591 c 0
 425 612 402 618 377 618 c 2
 246 618 l 2
 235 618 210 605 210 586 c 2
 210 374 l 2
 210 362 218 352 228 352 c 2
 324 352 l 2
 353 352 375 368 385 391 c 0
 387 396 398 408 403 408 c 0
 408 408 416 402 416 392 c 0
 416 383 413 353 413 337 c 0
 413 317 415 277 415 269 c 0
 415 260 414 252 406 252 c 0
 393 252 385 268 383 275 c 0
 373 306 354 320 337 320 c 2
 244 320 l 2
 221 320 210 317 210 294 c 2
 210 102 l 2xbac0
EndSplineSet
EndChar

StartChar: Edieresis
Encoding: 203 203 132
Width: 535
GlyphClass: 2
Flags: MW
ItalicCorrection: 14
HStem: -5 29 -5 40 320 32<232.5 244 244 324 324 337> 388 20<400.5 405.5> 618 35 695 100<175 203 370 398>
VStem: 130 80<99 102 102 294 368 374 374 549 549 573> 139 100<731 759> 334 100<731 759> 383 32 466 25
LayerCount: 2
Fore
SplineSet
189 795 m 0x0580
 217 795 239 773 239 745 c 0
 239 717 217 695 189 695 c 0
 161 695 139 717 139 745 c 0
 139 773 161 795 189 795 c 0x0580
384 795 m 0
 412 795 434 773 434 745 c 0
 434 717 412 695 384 695 c 0
 356 695 334 717 334 745 c 0
 334 773 356 795 384 795 c 0
210 102 m 2xba60
 210 51 231 35 276 35 c 2
 380 35 l 2x7a60
 430 35 443 43 456 53 c 0
 474 67 490 99 498 116 c 0
 502 124 505 127 512 126 c 0
 519 125 525 123 525 115 c 0
 525 97 515 38 508 12 c 0
 506 3 502 -5 494 -5 c 0
 366 -5 267 1 167 1 c 0
 122 1 106 -5 52 -5 c 0
 35 -5 23 -2 23 6 c 0
 23 15 33 20 56 24 c 0
 106 33 130 51 130 99 c 2
 130 549 l 2
 130 597 113 613 63 622 c 0
 40 626 30 633 30 642 c 0
 30 650 42 653 59 653 c 0
 134 653 166 650 236 650 c 0
 327 650 448 653 458 653 c 0
 465 653 475 651 476 644 c 0
 483 606 491 568 491 541 c 0
 491 529 483 526 477 526 c 0
 470 526 468 529 466 536 c 0
 459 558 453 581 444 591 c 0
 425 612 402 618 377 618 c 2
 246 618 l 2
 235 618 210 605 210 586 c 2
 210 374 l 2
 210 362 218 352 228 352 c 2
 324 352 l 2
 353 352 375 368 385 391 c 0
 387 396 398 408 403 408 c 0
 408 408 416 402 416 392 c 0
 416 383 413 353 413 337 c 0
 413 317 415 277 415 269 c 0
 415 260 414 252 406 252 c 0
 393 252 385 268 383 275 c 0
 373 306 354 320 337 320 c 2
 244 320 l 2
 221 320 210 317 210 294 c 2
 210 102 l 2xba60
EndSplineSet
EndChar

StartChar: Igrave
Encoding: 204 204 133
Width: 340
GlyphClass: 2
Flags: MW
ItalicCorrection: 10
HStem: -5 29 622 31 685 153<103 215>
VStem: 52 167<689.5 822> 130 80<98 550>
LayerCount: 2
Fore
SplineSet
213 685 m 0x30
 210 685 204 687 195 694 c 0
 155 724 105 762 65 796 c 0
 56 804 52 808 52 815 c 0
 52 829 96 838 110 838 c 0
 121 838 130 835 137 825 c 0
 164 786 190 746 214 706 c 0
 217 701 219 695 219 691 c 0
 219 688 217 685 213 685 c 0x30
130 550 m 2xc8
 130 597 113 613 63 622 c 0
 40 626 30 633 30 642 c 0
 30 650 42 653 59 653 c 0
 113 653 130 650 176 650 c 0
 219 650 231 653 285 653 c 0
 302 653 314 650 314 642 c 0
 314 633 304 626 281 622 c 0
 231 613 210 597 210 550 c 2
 210 98 l 2
 210 51 239 33 289 24 c 0
 312 20 322 15 322 6 c 0
 322 -2 310 -5 293 -5 c 0
 239 -5 222 0 176 0 c 0
 126 0 102 -5 48 -5 c 0
 31 -5 19 -2 19 6 c 0
 19 15 29 20 52 24 c 0
 102 33 130 51 130 98 c 2
 130 550 l 2xc8
EndSplineSet
EndChar

StartChar: Iacute
Encoding: 205 205 134
Width: 340
GlyphClass: 2
Flags: MW
ItalicCorrection: 16
HStem: -5 29 622 31 685 153<147 259>
VStem: 130 80<98 550> 143 167<689.5 822>
LayerCount: 2
Fore
SplineSet
149 685 m 0x28
 145 685 143 688 143 691 c 0
 143 695 145 701 148 706 c 0
 172 746 198 786 225 825 c 0
 232 835 241 838 252 838 c 0
 266 838 310 829 310 815 c 0
 310 808 306 804 297 796 c 0
 257 762 207 724 167 694 c 0
 158 687 152 685 149 685 c 0x28
130 550 m 2xd0
 130 597 113 613 63 622 c 0
 40 626 30 633 30 642 c 0
 30 650 42 653 59 653 c 0
 113 653 130 650 176 650 c 0
 219 650 231 653 285 653 c 0
 302 653 314 650 314 642 c 0
 314 633 304 626 281 622 c 0
 231 613 210 597 210 550 c 2
 210 98 l 2
 210 51 239 33 289 24 c 0
 312 20 322 15 322 6 c 0
 322 -2 310 -5 293 -5 c 0
 239 -5 222 0 176 0 c 0
 126 0 102 -5 48 -5 c 0
 31 -5 19 -2 19 6 c 0
 19 15 29 20 52 24 c 0
 102 33 130 51 130 98 c 2
 130 550 l 2xd0
EndSplineSet
EndChar

StartChar: Icircumflex
Encoding: 206 206 135
Width: 340
GlyphClass: 2
Flags: MW
ItalicCorrection: 35
HStem: -5 29 622 31 681 127<38.5 181.5>
VStem: 28 291<688 693> 130 80<98 550>
LayerCount: 2
Fore
SplineSet
43 681 m 0x30
 34 681 28 685 28 691 c 0
 28 695 30 699 35 703 c 2
 133 786 l 2
 152 803 159 808 174 808 c 0
 189 808 196 803 215 786 c 2
 313 703 l 2
 318 699 319 695 319 691 c 0
 319 685 314 680 305 680 c 0
 292 680 210 721 184 736 c 0
 175 741 173 741 164 736 c 0
 138 721 56 681 43 681 c 0x30
130 550 m 2xc8
 130 597 113 613 63 622 c 0
 40 626 30 633 30 642 c 0
 30 650 42 653 59 653 c 0
 113 653 130 650 176 650 c 0
 219 650 231 653 285 653 c 0
 302 653 314 650 314 642 c 0
 314 633 304 626 281 622 c 0
 231 613 210 597 210 550 c 2
 210 98 l 2
 210 51 239 33 289 24 c 0
 312 20 322 15 322 6 c 0
 322 -2 310 -5 293 -5 c 0
 239 -5 222 0 176 0 c 0
 126 0 102 -5 48 -5 c 0
 31 -5 19 -2 19 6 c 0
 19 15 29 20 52 24 c 0
 102 33 130 51 130 98 c 2
 130 550 l 2xc8
EndSplineSet
EndChar

StartChar: Idieresis
Encoding: 207 207 136
Width: 340
GlyphClass: 2
Flags: MW
ItalicCorrection: 11
HStem: -5 29 622 31 695 100<58 86 253 281>
VStem: 22 100<731 759> 130 80<98 550> 217 100<731 759>
LayerCount: 2
Fore
SplineSet
72 795 m 0
 100 795 122 773 122 745 c 0
 122 717 100 695 72 695 c 0
 44 695 22 717 22 745 c 0
 22 773 44 795 72 795 c 0
267 795 m 0
 295 795 317 773 317 745 c 0
 317 717 295 695 267 695 c 0
 239 695 217 717 217 745 c 0
 217 773 239 795 267 795 c 0
130 550 m 2
 130 597 113 613 63 622 c 0
 40 626 30 633 30 642 c 0
 30 650 42 653 59 653 c 0
 113 653 130 650 176 650 c 0
 219 650 231 653 285 653 c 0
 302 653 314 650 314 642 c 0
 314 633 304 626 281 622 c 0
 231 613 210 597 210 550 c 2
 210 98 l 2
 210 51 239 33 289 24 c 0
 312 20 322 15 322 6 c 0
 322 -2 310 -5 293 -5 c 0
 239 -5 222 0 176 0 c 0
 126 0 102 -5 48 -5 c 0
 31 -5 19 -2 19 6 c 0
 19 15 29 20 52 24 c 0
 102 33 130 51 130 98 c 2
 130 550 l 2
EndSplineSet
EndChar

StartChar: Eth
Encoding: 208 208 137
Width: 754
GlyphClass: 2
Flags: MW
HStem: -7 35 317 36<55.5 129 70 129 70 129 210 359> 628 31<326.5 423.5>
VStem: 129 81<100.5 121 121 317 353 549 549 567> 609 95<269.5 424.5>
LayerCount: 2
Fore
SplineSet
371 -7 m 0
 351 -7 242 0 163 0 c 0
 123 0 111 -5 58 -5 c 0
 41 -5 29 -2 29 6 c 0
 29 15 39 20 62 24 c 0
 112 33 129 51 129 99 c 2
 129 317 l 1
 60 317 l 2
 51 317 46 329 46 335 c 0
 46 344 58 353 70 353 c 2
 129 353 l 1
 129 549 l 2
 129 597 112 613 62 622 c 0
 39 626 29 633 29 642 c 0
 29 650 41 653 58 653 c 0
 112 653 121 651 162 651 c 2
 169 651 l 2
 212 651 313 659 340 659 c 0
 611 659 704 530 704 335 c 0
 704 149 562 -7 371 -7 c 0
609 346 m 0
 609 503 502 628 345 628 c 0
 258 628 210 627 210 567 c 2
 210 353 l 1
 377 353 l 2
 383 353 391 348 391 342 c 0
 391 341 390 340 390 339 c 0
 383 326 374 317 359 317 c 2
 210 317 l 1
 210 121 l 2
 210 80 224 66 245 50 c 0
 269 32 292 28 317 28 c 0
 335 28 354 30 376 30 c 0
 529 30 609 193 609 346 c 0
EndSplineSet
EndChar

StartChar: Ntilde
Encoding: 209 209 138
Width: 770
GlyphClass: 2
Flags: MW
ItalicCorrection: 13
HStem: -17 21<635 646> -5 30 620 38 715 55<463.5 483.5> 725 54<344.5 358.5>
VStem: 132 37 273 280<706 789> 621 43
LayerCount: 2
Fore
SplineSet
470 715 m 0x12
 445 715 371 725 346 725 c 0
 326 725 299 694 289 694 c 0
 281 694 273 701 273 711 c 0
 273 734 332 779 357 779 c 0x0a
 382 779 451 770 476 770 c 0
 511 770 524 801 536 801 c 0
 546 801 553 794 553 784 c 0
 553 764 497 715 470 715 c 0x12
616 650 m 2x65
 664 650 670 653 731 653 c 0
 748 653 760 650 760 642 c 0
 760 633 750 626 727 622 c 0
 677 613 665 601 664 568 c 0
 663 544 662 63 662 8 c 0
 662 -13 651 -17 641 -17 c 0xa5
 629 -17 592 2 560 46 c 0
 542 71 227 456 204 484 c 0
 194 496 188 500 183 500 c 0
 176 500 174 487 174 479 c 0
 172 380 169 227 169 104 c 0
 169 68 183 33 233 24 c 0
 256 20 266 15 266 6 c 0
 266 -2 254 -5 237 -5 c 0
 183 -5 180 0 143 0 c 0
 107 0 106 -5 52 -5 c 0
 35 -5 23 -2 23 6 c 0
 23 15 33 19 56 25 c 0
 94 35 110 66 114 107 c 0
 122 182 132 342 132 507 c 0
 132 578 92 601 33 620 c 0
 27 622 2 632 2 644 c 0
 2 656 18 658 25 658 c 0
 103 656 107 653 179 653 c 0
 191 653 196 645 203 636 c 0
 222 609 564 180 584 156 c 0
 589 150 601 136 609 136 c 0
 614 136 618 142 619 157 c 0
 620 189 621 365 621 477 c 2
 621 564 l 2
 620 590 585 615 563 619 c 0
 540 623 530 630 530 639 c 0
 530 647 542 650 559 650 c 2
 616 650 l 2x65
EndSplineSet
EndChar

StartChar: Ograve
Encoding: 210 210 139
Width: 763
GlyphClass: 2
Flags: MW
HStem: -14 39<321 470 321 491.5> 625 39<301 455> 685 153<305 417>
VStem: 45 97<264.5 410.5> 254 167<689.5 822> 621 97<245 400>
LayerCount: 2
Fore
SplineSet
415 685 m 0
 412 685 406 687 397 694 c 0
 357 724 307 762 267 796 c 0
 258 804 254 808 254 815 c 0
 254 829 298 838 312 838 c 0
 323 838 332 835 339 825 c 0
 366 786 392 746 416 706 c 0
 419 701 421 695 421 691 c 0
 421 688 419 685 415 685 c 0
45 320 m 0
 45 501 166 664 390 664 c 0
 564 664 718 532 718 335 c 0
 718 155 601 -14 382 -14 c 0
 205 -14 45 130 45 320 c 0
375 625 m 0
 227 625 142 490 142 350 c 0
 142 179 247 25 395 25 c 0
 545 25 621 134 621 305 c 0
 621 495 535 625 375 625 c 0
EndSplineSet
EndChar

StartChar: Oacute
Encoding: 211 211 140
Width: 763
GlyphClass: 2
Flags: MW
HStem: -14 39<321 470 321 491.5> 625 39<301 455> 685 153<349 461>
VStem: 45 97<264.5 410.5> 345 167<689.5 822> 621 97<245 400>
LayerCount: 2
Fore
SplineSet
351 685 m 0
 347 685 345 688 345 691 c 0
 345 695 347 701 350 706 c 0
 374 746 400 786 427 825 c 0
 434 835 443 838 454 838 c 0
 468 838 512 829 512 815 c 0
 512 808 508 804 499 796 c 0
 459 762 409 724 369 694 c 0
 360 687 354 685 351 685 c 0
45 320 m 0
 45 501 166 664 390 664 c 0
 564 664 718 532 718 335 c 0
 718 155 601 -14 382 -14 c 0
 205 -14 45 130 45 320 c 0
375 625 m 0
 227 625 142 490 142 350 c 0
 142 179 247 25 395 25 c 0
 545 25 621 134 621 305 c 0
 621 495 535 625 375 625 c 0
EndSplineSet
EndChar

StartChar: Ocircumflex
Encoding: 212 212 141
Width: 763
GlyphClass: 2
Flags: MW
HStem: -14 39<321 470 321 491.5> 625 39<301 455> 681 127<247.5 390.5>
VStem: 45 97<264.5 410.5> 237 291<688 693> 621 97<245 400>
LayerCount: 2
Fore
SplineSet
252 681 m 0
 243 681 237 685 237 691 c 0
 237 695 239 699 244 703 c 2
 342 786 l 2
 361 803 368 808 383 808 c 0
 398 808 405 803 424 786 c 2
 522 703 l 2
 527 699 528 695 528 691 c 0
 528 685 523 680 514 680 c 0
 501 680 419 721 393 736 c 0
 384 741 382 741 373 736 c 0
 347 721 265 681 252 681 c 0
45 320 m 0
 45 501 166 664 390 664 c 0
 564 664 718 532 718 335 c 0
 718 155 601 -14 382 -14 c 0
 205 -14 45 130 45 320 c 0
375 625 m 0
 227 625 142 490 142 350 c 0
 142 179 247 25 395 25 c 0
 545 25 621 134 621 305 c 0
 621 495 535 625 375 625 c 0
EndSplineSet
EndChar

StartChar: Otilde
Encoding: 213 213 142
Width: 763
GlyphClass: 2
Flags: MW
HStem: -14 39<321 470 321 491.5> 625 39<301 455> 715 55<435.5 455.5> 725 54<316.5 330.5>
VStem: 45 97<264.5 410.5> 245 280<706 789> 621 97<245 400>
LayerCount: 2
Fore
SplineSet
442 715 m 0x24
 417 715 343 725 318 725 c 0
 298 725 271 694 261 694 c 0
 253 694 245 701 245 711 c 0
 245 734 304 779 329 779 c 0x14
 354 779 423 770 448 770 c 0
 483 770 496 801 508 801 c 0
 518 801 525 794 525 784 c 0
 525 764 469 715 442 715 c 0x24
45 320 m 0xca
 45 501 166 664 390 664 c 0
 564 664 718 532 718 335 c 0
 718 155 601 -14 382 -14 c 0
 205 -14 45 130 45 320 c 0xca
375 625 m 0
 227 625 142 490 142 350 c 0
 142 179 247 25 395 25 c 0
 545 25 621 134 621 305 c 0
 621 495 535 625 375 625 c 0
EndSplineSet
EndChar

StartChar: Odieresis
Encoding: 214 214 143
Width: 763
GlyphClass: 2
Flags: MW
HStem: -14 39<321 470 321 491.5> 625 39<301 455> 695 100<271 299 466 494>
VStem: 45 97<264.5 410.5> 235 100<731 759> 430 100<731 759> 621 97<245 400>
LayerCount: 2
Fore
SplineSet
285 795 m 0
 313 795 335 773 335 745 c 0
 335 717 313 695 285 695 c 0
 257 695 235 717 235 745 c 0
 235 773 257 795 285 795 c 0
480 795 m 0
 508 795 530 773 530 745 c 0
 530 717 508 695 480 695 c 0
 452 695 430 717 430 745 c 0
 430 773 452 795 480 795 c 0
45 320 m 0
 45 501 166 664 390 664 c 0
 564 664 718 532 718 335 c 0
 718 155 601 -14 382 -14 c 0
 205 -14 45 130 45 320 c 0
375 625 m 0
 227 625 142 490 142 350 c 0
 142 179 247 25 395 25 c 0
 545 25 621 134 621 305 c 0
 621 495 535 625 375 625 c 0
EndSplineSet
EndChar

StartChar: multiply
Encoding: 215 215 144
Width: 600
GlyphClass: 2
Flags: W
LayerCount: 2
Fore
SplineSet
290 299 m 2
 295 294 295 296 297 298 c 2
 441 441 l 2
 444 444 447 446 451 446 c 0
 454 446 458 444 460 441 c 0
 467 428 477 413 477 401 c 0
 477 396 475 391 470 386 c 2
 339 255 l 2
 337 253 337 252 339 250 c 2
 482 107 l 2
 485 104 487 100 487 95 c 0
 487 77 468 53 457 53 c 0
 453 53 450 54 447 57 c 2
 298 207 l 2
 296 209 293 209 291 207 c 2
 148 64 l 2
 143 59 134 59 130 63 c 0
 125 68 108 87 108 102 c 0
 108 106 110 111 113 114 c 2
 247 248 l 2
 251 252 250 254 246 258 c 2
 125 379 l 2
 121 383 120 388 120 393 c 0
 120 409 133 430 136 434 c 0
 141 439 150 439 155 434 c 2
 290 299 l 2
EndSplineSet
EndChar

StartChar: Oslash
Encoding: 216 216 145
Width: 773
GlyphClass: 2
Flags: MW
HStem: -14 39<363.5 475 363.5 496.5> 625 39<306 421.5>
VStem: 50 97<315.5 410.5> 626 97<245 341>
LayerCount: 2
Fore
SplineSet
589 492 m 1
 216 123 l 1
 261 64 327 25 400 25 c 0
 550 25 626 134 626 305 c 0
 626 377 614 441 589 492 c 1
77 -14 m 0
 63 -14 49 -4 49 6 c 0
 49 13 53 20 59 26 c 2
 134 100 l 1
 82 158 50 234 50 320 c 0
 50 501 171 664 395 664 c 0
 479 664 559 633 619 579 c 1
 699 658 l 2
 706 665 720 663 723 654 c 0
 724 650 726 644 726 639 c 0
 726 632 724 626 719 621 c 2
 647 549 l 1
 694 494 723 420 723 335 c 0
 723 155 606 -14 387 -14 c 0
 305 -14 227 17 166 69 c 1
 86 -11 l 2
 84 -13 81 -14 77 -14 c 0
380 625 m 0
 232 625 147 490 147 350 c 0
 147 281 161 215 191 161 c 1
 568 529 l 1
 527 590 463 625 380 625 c 0
EndSplineSet
EndChar

StartChar: Ugrave
Encoding: 217 217 146
Width: 738
GlyphClass: 2
Flags: MW
ItalicCorrection: 11
HStem: -14 50<332 445.5> 620 33 685 153<312 424>
VStem: 103 80<240 268 268 547 547 549> 261 167<689.5 822> 588 57 592 43
LayerCount: 2
Fore
SplineSet
422 685 m 0x28
 419 685 413 687 404 694 c 0
 364 724 314 762 274 796 c 0
 265 804 261 808 261 815 c 0
 261 829 305 838 319 838 c 0
 330 838 339 835 346 825 c 0
 373 786 399 746 423 706 c 0
 426 701 428 695 428 691 c 0
 428 688 426 685 422 685 c 0x28
645 547 m 0xd4
 638 432 638 342 635 250 c 0
 630 95 519 -14 372 -14 c 0
 193 -14 103 87 103 240 c 2
 103 547 l 2
 103 595 79 614 57 620 c 0
 34 626 24 633 24 642 c 0
 24 650 36 653 53 653 c 0
 83 653 112 650 149 650 c 0
 180 650 208 652 229 652 c 0
 246 652 258 649 258 641 c 0
 258 632 247 628 225 621 c 0
 209 616 183 589 183 549 c 2
 183 268 l 2
 183 108 271 36 393 36 c 0
 530 36 592 140 592 296 c 0xd2
 592 340 590 434 588 511 c 0
 587 562 575 612 547 620 c 0
 533 624 514 631 514 640 c 0
 514 648 526 651 543 651 c 0
 573 651 589 650 618 650 c 0
 650 650 676 653 699 653 c 0
 716 653 728 650 728 642 c 0
 728 633 718 627 695 622 c 0
 660 615 647 587 645 547 c 0xd4
EndSplineSet
EndChar

StartChar: Uacute
Encoding: 218 218 147
Width: 738
GlyphClass: 2
Flags: MW
ItalicCorrection: 11
HStem: -14 50<332 445.5> 620 33 685 153<356 468>
VStem: 103 80<240 268 268 547 547 549> 352 167<689.5 822> 588 57 592 43
LayerCount: 2
Fore
SplineSet
358 685 m 0x28
 354 685 352 688 352 691 c 0
 352 695 354 701 357 706 c 0
 381 746 407 786 434 825 c 0
 441 835 450 838 461 838 c 0
 475 838 519 829 519 815 c 0
 519 808 515 804 506 796 c 0
 466 762 416 724 376 694 c 0
 367 687 361 685 358 685 c 0x28
645 547 m 0xd4
 638 432 638 342 635 250 c 0
 630 95 519 -14 372 -14 c 0
 193 -14 103 87 103 240 c 2
 103 547 l 2
 103 595 79 614 57 620 c 0
 34 626 24 633 24 642 c 0
 24 650 36 653 53 653 c 0
 83 653 112 650 149 650 c 0
 180 650 208 652 229 652 c 0
 246 652 258 649 258 641 c 0
 258 632 247 628 225 621 c 0
 209 616 183 589 183 549 c 2
 183 268 l 2
 183 108 271 36 393 36 c 0
 530 36 592 140 592 296 c 0xd2
 592 340 590 434 588 511 c 0
 587 562 575 612 547 620 c 0
 533 624 514 631 514 640 c 0
 514 648 526 651 543 651 c 0
 573 651 589 650 618 650 c 0
 650 650 676 653 699 653 c 0
 716 653 728 650 728 642 c 0
 728 633 718 627 695 622 c 0
 660 615 647 587 645 547 c 0xd4
EndSplineSet
EndChar

StartChar: Ucircumflex
Encoding: 219 219 148
Width: 738
GlyphClass: 2
Flags: MW
ItalicCorrection: 11
HStem: -14 50<332 445.5> 620 33 701 127<254.5 397.5>
VStem: 103 80<240 268 268 547 547 549> 244 291<708 713> 588 57 592 43
LayerCount: 2
Fore
SplineSet
259 701 m 0x28
 250 701 244 705 244 711 c 0
 244 715 246 719 251 723 c 2
 349 806 l 2
 368 823 375 828 390 828 c 0
 405 828 412 823 431 806 c 2
 529 723 l 2
 534 719 535 715 535 711 c 0
 535 705 530 700 521 700 c 0
 508 700 426 741 400 756 c 0
 391 761 389 761 380 756 c 0
 354 741 272 701 259 701 c 0x28
645 547 m 0xd4
 638 432 638 342 635 250 c 0
 630 95 519 -14 372 -14 c 0
 193 -14 103 87 103 240 c 2
 103 547 l 2
 103 595 79 614 57 620 c 0
 34 626 24 633 24 642 c 0
 24 650 36 653 53 653 c 0
 83 653 112 650 149 650 c 0
 180 650 208 652 229 652 c 0
 246 652 258 649 258 641 c 0
 258 632 247 628 225 621 c 0
 209 616 183 589 183 549 c 2
 183 268 l 2
 183 108 271 36 393 36 c 0
 530 36 592 140 592 296 c 0xd2
 592 340 590 434 588 511 c 0
 587 562 575 612 547 620 c 0
 533 624 514 631 514 640 c 0
 514 648 526 651 543 651 c 0
 573 651 589 650 618 650 c 0
 650 650 676 653 699 653 c 0
 716 653 728 650 728 642 c 0
 728 633 718 627 695 622 c 0
 660 615 647 587 645 547 c 0xd4
EndSplineSet
EndChar

StartChar: Udieresis
Encoding: 220 220 149
Width: 738
GlyphClass: 2
Flags: MW
ItalicCorrection: 11
HStem: -14 50<332 445.5> 620 33 695 100<278 306 473 501>
VStem: 103 80<240 268 268 547 547 549> 242 100<731 759> 437 100<731 759> 588 57 592 43
LayerCount: 2
Fore
SplineSet
292 795 m 0x2c
 320 795 342 773 342 745 c 0
 342 717 320 695 292 695 c 0
 264 695 242 717 242 745 c 0
 242 773 264 795 292 795 c 0x2c
487 795 m 0
 515 795 537 773 537 745 c 0
 537 717 515 695 487 695 c 0
 459 695 437 717 437 745 c 0
 437 773 459 795 487 795 c 0
645 547 m 0xd2
 638 432 638 342 635 250 c 0
 630 95 519 -14 372 -14 c 0
 193 -14 103 87 103 240 c 2
 103 547 l 2
 103 595 79 614 57 620 c 0
 34 626 24 633 24 642 c 0
 24 650 36 653 53 653 c 0
 83 653 112 650 149 650 c 0
 180 650 208 652 229 652 c 0
 246 652 258 649 258 641 c 0
 258 632 247 628 225 621 c 0
 209 616 183 589 183 549 c 2
 183 268 l 2
 183 108 271 36 393 36 c 0
 530 36 592 140 592 296 c 0xd1
 592 340 590 434 588 511 c 0
 587 562 575 612 547 620 c 0
 533 624 514 631 514 640 c 0
 514 648 526 651 543 651 c 0
 573 651 589 650 618 650 c 0
 650 650 676 653 699 653 c 0
 716 653 728 650 728 642 c 0
 728 633 718 627 695 622 c 0
 660 615 647 587 645 547 c 0xd2
EndSplineSet
EndChar

StartChar: Yacute
Encoding: 221 221 150
Width: 578
GlyphClass: 2
Flags: MW
ItalicCorrection: 9
HStem: -5 29 620 33 685 153<286 398>
VStem: 264 80<108 256> 282 167<689.5 822> 458 163<579 646>
LayerCount: 2
Fore
SplineSet
288 685 m 0x28
 284 685 282 688 282 691 c 0
 282 695 284 701 287 706 c 0
 311 746 337 786 364 825 c 0
 371 835 380 838 391 838 c 0
 405 838 449 829 449 815 c 0
 449 808 445 804 436 796 c 0
 396 762 346 724 306 694 c 0
 297 687 291 685 288 685 c 0x28
264 108 m 2xd4
 264 256 l 2
 264 283 244 321 239 330 c 2
 122 522 l 2
 107 546 67 610 33 620 c 0
 11 627 0 633 0 642 c 0
 0 650 12 653 29 653 c 0
 59 653 100 650 146 650 c 0
 177 650 205 652 226 652 c 0
 243 652 255 649 255 641 c 0
 255 632 244 626 222 621 c 0
 203 616 190 611 190 596 c 0
 190 588 194 576 203 560 c 2
 295 395 l 2
 310 369 317 357 323 357 c 0
 331 357 338 367 356 395 c 0
 387 442 406 474 440 534 c 0
 453 556 458 573 458 585 c 0
 458 610 436 617 417 620 c 0
 403 622 384 631 384 640 c 0
 384 648 396 651 413 651 c 0
 443 651 459 650 488 650 c 0
 529 650 569 653 592 653 c 0
 609 653 621 650 621 642 c 0
 621 633 596 625 568 617 c 0
 533 607 516 581 480 526 c 0
 426 443 415 425 369 346 c 0
 344 303 344 295 344 256 c 2
 344 108 l 2
 344 63 373 33 423 24 c 0
 446 20 456 15 456 6 c 0
 456 -2 444 -5 427 -5 c 0
 373 -5 356 0 310 0 c 0
 260 0 236 -5 182 -5 c 0
 165 -5 153 -2 153 6 c 0
 153 15 163 20 186 24 c 0
 236 33 264 60 264 108 c 2xd4
EndSplineSet
EndChar

StartChar: Thorn
Encoding: 222 222 151
Width: 559
GlyphClass: 2
Flags: MW
ItalicCorrection: 14
HStem: -5 29 134 29<256 283.5> 491 33<301.5 337> 622 31
VStem: 134 80<99 128 180.5 189 189 452 526.5 532 532 549> 426 92<324.5 373.5>
LayerCount: 2
Fore
SplineSet
265 163 m 0
 305 163 342 174 362 189 c 0
 412 226 426 277 426 335 c 0
 426 412 375 491 299 491 c 0
 262 491 214 482 214 452 c 2
 214 189 l 2
 214 172 247 163 265 163 c 0
256 134 m 0
 242 134 231 137 222 137 c 0
 218 137 214 134 214 128 c 2
 214 96 l 2
 214 54 243 33 293 24 c 0
 316 20 326 15 326 6 c 0
 326 -2 314 -5 297 -5 c 0
 243 -5 226 0 180 0 c 0
 130 0 105 -5 51 -5 c 0
 34 -5 22 -2 22 6 c 0
 22 15 32 20 55 24 c 0
 105 33 134 51 134 99 c 2
 134 549 l 2
 134 588 127 613 77 622 c 0
 54 626 44 633 44 642 c 0
 44 650 56 653 73 653 c 0
 127 653 136 650 177 650 c 0
 223 650 242 653 296 653 c 0
 313 653 325 650 325 642 c 0
 325 633 315 626 292 622 c 0
 242 613 214 597 214 549 c 2
 214 532 l 2
 214 521 214 512 220 512 c 0
 223 512 242 517 243 517 c 0
 262 522 288 524 315 524 c 0
 424 524 518 465 518 347 c 0
 518 302 483 220 439 186 c 0
 393 151 311 134 256 134 c 0
EndSplineSet
EndChar

StartChar: germandbls
Encoding: 223 223 152
Width: 505
GlyphClass: 2
Flags: MW
HStem: -12 56<292 379> -3 27<48 48 202 202> 352 24 665 41<264.5 323>
VStem: 90 70<69 350 350 350 402 475> 246 79<358.5 359.5> 392 63<546 577.5> 423 52<105.5 116>
LayerCount: 2
Fore
SplineSet
287 264 m 2xbd
 263 286 246 305 246 336 c 0
 246 383 305 410 351 458 c 0
 374 482 392 519 392 555 c 0
 392 600 373 665 273 665 c 0
 210 665 160 609 160 475 c 2
 160 69 l 2
 160 41 182 30 202 24 c 0
 213 20 225 16 225 6 c 0
 225 -4 207 -3 202 -3 c 0
 163 -3 161 2 126 2 c 0
 91 2 87 -3 48 -3 c 0
 43 -3 25 -4 25 6 c 0
 25 16 37 20 48 24 c 0
 68 30 90 41 90 69 c 2
 90 350 l 1
 77 350 59 350 38 352 c 0
 34 353 27 362 27 369 c 0
 27 372 29 375 31 376 c 0
 61 384 72 392 90 402 c 1
 90 633 221 706 308 706 c 0
 393 706 455 643 455 572 c 0x7e
 455 520 429 492 409 473 c 2
 376 443 l 2
 355 421 325 406 325 364 c 0
 325 353 328 338 344 323 c 2
 437 233 l 2
 464 205 475 179 475 140 c 0
 475 71 404 16 373 0 c 0
 349 -12 336 -12 300 -12 c 0
 284 -12 242 6 242 29 c 0
 242 46 253 84 271 84 c 0
 274 84 277 82 280 80 c 0
 307 59 335 44 366 44 c 0
 392 44 423 58 423 98 c 0
 423 134 399 156 357 196 c 2
 287 264 l 2xbd
EndSplineSet
EndChar

StartChar: agrave
Encoding: 224 224 153
Width: 399
GlyphClass: 2
Flags: MW
ItalicCorrection: 26
HStem: -14 46<100.5 177 327.5 337> 365 49<169 252.5> 456 193<102.5 218.5>
VStem: 35 80<68 86> 66 157<464.5 634> 238 68<89.5 148>
LayerCount: 2
Fore
SplineSet
184 478 m 0x28
 153 511 66 612 66 626 c 0
 66 642 90 649 115 649 c 0
 125 649 136 641 142 631 c 0
 161 598 223 484 223 469 c 0
 223 460 223 456 214 456 c 0
 206 456 192 469 184 478 c 0x28
342 32 m 0xd4
 360 32 371 36 382 46 c 0
 388 52 398 45 398 37 c 0
 398 29 356 -14 318 -14 c 0
 261 -14 252 38 244 38 c 0
 231 38 203 -13 121 -14 c 0
 80 -14 35 26 35 65 c 0
 35 107 59 135 108 155 c 2
 210 197 l 2
 236 208 237 210 238 237 c 2
 240 301 l 2
 241 335 217 365 181 365 c 0
 157 365 128 347 120 333 c 0
 117 328 116 321 116 314 c 0
 116 309 117 305 117 300 c 0
 117 286 61 265 48 265 c 0
 42 265 40 271 40 274 c 0
 40 295 55 321 80 343 c 0
 111 371 176 414 229 414 c 0
 276 414 312 374 311 325 c 2
 306 109 l 2
 306 70 313 32 342 32 c 0xd4
115 87 m 0
 115 49 145 32 164 32 c 0
 190 32 208 45 224 59 c 0
 231 65 235 74 236 99 c 2
 238 148 l 2
 239 163 237 169 229 169 c 0
 226 169 220 168 215 166 c 0
 138 140 115 110 115 87 c 0
EndSplineSet
EndChar

StartChar: aacute
Encoding: 225 225 154
Width: 399
GlyphClass: 2
Flags: MW
ItalicCorrection: 26
HStem: -14 46<100.5 177 327.5 337> 365 49<169 252.5> 456 193<163.5 279.5>
VStem: 35 80<68 86> 159 157<464.5 634> 238 68<89.5 148>
LayerCount: 2
Fore
SplineSet
198 478 m 0x28
 190 469 176 456 168 456 c 0
 159 456 159 460 159 469 c 0
 159 484 221 598 240 631 c 0
 246 641 257 649 267 649 c 0
 292 649 316 642 316 626 c 0
 316 612 229 511 198 478 c 0x28
342 32 m 0xd4
 360 32 371 36 382 46 c 0
 388 52 398 45 398 37 c 0
 398 29 356 -14 318 -14 c 0
 261 -14 252 38 244 38 c 0
 231 38 203 -13 121 -14 c 0
 80 -14 35 26 35 65 c 0
 35 107 59 135 108 155 c 2
 210 197 l 2
 236 208 237 210 238 237 c 2
 240 301 l 2
 241 335 217 365 181 365 c 0
 157 365 128 347 120 333 c 0
 117 328 116 321 116 314 c 0
 116 309 117 305 117 300 c 0
 117 286 61 265 48 265 c 0
 42 265 40 271 40 274 c 0
 40 295 55 321 80 343 c 0
 111 371 176 414 229 414 c 0
 276 414 312 374 311 325 c 2
 306 109 l 2
 306 70 313 32 342 32 c 0xd4
115 87 m 0
 115 49 145 32 164 32 c 0
 190 32 208 45 224 59 c 0
 231 65 235 74 236 99 c 2
 238 148 l 2
 239 163 237 169 229 169 c 0
 226 169 220 168 215 166 c 0
 138 140 115 110 115 87 c 0
EndSplineSet
EndChar

StartChar: acircumflex
Encoding: 226 226 155
Width: 399
GlyphClass: 2
Flags: MW
ItalicCorrection: 26
HStem: -14 46<100.5 177 327.5 337> 365 49<169 252.5> 447 201<87.5 195 187 295.5>
VStem: 35 80<68 86> 83 217<455.5 467.5> 238 68<89.5 148>
LayerCount: 2
Fore
SplineSet
188 553 m 0x28
 163 523 134 485 122 469 c 0
 115 460 100 447 92 447 c 0
 83 447 83 451 83 460 c 0
 83 475 151 597 171 630 c 0
 176 639 183 648 191 648 c 0
 199 648 206 639 211 630 c 0
 231 597 300 475 300 460 c 0
 300 451 300 447 291 447 c 0
 283 447 268 459 261 469 c 0
 249 485 219 523 195 553 c 0
 192 557 191 557 188 553 c 0x28
342 32 m 0xd4
 360 32 371 36 382 46 c 0
 388 52 398 45 398 37 c 0
 398 29 356 -14 318 -14 c 0
 261 -14 252 38 244 38 c 0
 231 38 203 -13 121 -14 c 0
 80 -14 35 26 35 65 c 0
 35 107 59 135 108 155 c 2
 210 197 l 2
 236 208 237 210 238 237 c 2
 240 301 l 2
 241 335 217 365 181 365 c 0
 157 365 128 347 120 333 c 0
 117 328 116 321 116 314 c 0
 116 309 117 305 117 300 c 0
 117 286 61 265 48 265 c 0
 42 265 40 271 40 274 c 0
 40 295 55 321 80 343 c 0
 111 371 176 414 229 414 c 0
 276 414 312 374 311 325 c 2
 306 109 l 2
 306 70 313 32 342 32 c 0xd4
115 87 m 0
 115 49 145 32 164 32 c 0
 190 32 208 45 224 59 c 0
 231 65 235 74 236 99 c 2
 238 148 l 2
 239 163 237 169 229 169 c 0
 226 169 220 168 215 166 c 0
 138 140 115 110 115 87 c 0
EndSplineSet
EndChar

StartChar: atilde
Encoding: 227 227 156
Width: 399
GlyphClass: 2
Flags: MW
ItalicCorrection: 26
HStem: -14 46<100.5 177 327.5 337> 365 49<169 252.5> 470 21<74 83> 500 66<247.5 260.5> 507 67<140.5 148.5>
VStem: 35 80<68 86> 65 268<485 588> 238 68<89.5 148>
LayerCount: 2
Fore
SplineSet
79 470 m 0x2a
 69 470 65 480 65 490 c 0
 65 500 128 574 153 574 c 0x2a
 178 574 235 566 260 566 c 0
 295 566 309 600 317 600 c 0
 327 600 333 593 333 583 c 0
 333 573 273 500 248 500 c 0x32
 223 500 161 507 136 507 c 0
 111 507 87 470 79 470 c 0x2a
342 32 m 0xc5
 360 32 371 36 382 46 c 0
 388 52 398 45 398 37 c 0
 398 29 356 -14 318 -14 c 0
 261 -14 252 38 244 38 c 0
 231 38 203 -13 121 -14 c 0
 80 -14 35 26 35 65 c 0
 35 107 59 135 108 155 c 2
 210 197 l 2
 236 208 237 210 238 237 c 2
 240 301 l 2
 241 335 217 365 181 365 c 0
 157 365 128 347 120 333 c 0
 117 328 116 321 116 314 c 0
 116 309 117 305 117 300 c 0
 117 286 61 265 48 265 c 0
 42 265 40 271 40 274 c 0
 40 295 55 321 80 343 c 0
 111 371 176 414 229 414 c 0
 276 414 312 374 311 325 c 2
 306 109 l 2
 306 70 313 32 342 32 c 0xc5
115 87 m 0
 115 49 145 32 164 32 c 0
 190 32 208 45 224 59 c 0
 231 65 235 74 236 99 c 2
 238 148 l 2
 239 163 237 169 229 169 c 0
 226 169 220 168 215 166 c 0
 138 140 115 110 115 87 c 0
EndSplineSet
EndChar

StartChar: adieresis
Encoding: 228 228 157
Width: 399
GlyphClass: 2
Flags: MW
ItalicCorrection: 26
HStem: -14 46<100.5 177 327.5 337> 365 49<169 252.5> 493 100<94.5 119.5 271.5 296.5>
VStem: 35 80<68 86> 57 100<530.5 555.5> 234 100<530.5 555.5> 238 68<89.5 148>
LayerCount: 2
Fore
SplineSet
107 593 m 0x2c
 132 593 157 568 157 543 c 0
 157 518 132 493 107 493 c 0
 82 493 57 518 57 543 c 0
 57 568 82 593 107 593 c 0x2c
284 593 m 0
 309 593 334 568 334 543 c 0
 334 518 309 493 284 493 c 0
 259 493 234 518 234 543 c 0
 234 568 259 593 284 593 c 0
342 32 m 0xd2
 360 32 371 36 382 46 c 0
 388 52 398 45 398 37 c 0
 398 29 356 -14 318 -14 c 0
 261 -14 252 38 244 38 c 0
 231 38 203 -13 121 -14 c 0
 80 -14 35 26 35 65 c 0
 35 107 59 135 108 155 c 2
 210 197 l 2
 236 208 237 210 238 237 c 2
 240 301 l 2
 241 335 217 365 181 365 c 0
 157 365 128 347 120 333 c 0
 117 328 116 321 116 314 c 0
 116 309 117 305 117 300 c 0
 117 286 61 265 48 265 c 0
 42 265 40 271 40 274 c 0
 40 295 55 321 80 343 c 0
 111 371 176 414 229 414 c 0
 276 414 312 374 311 325 c 2
 306 109 l 2
 306 70 313 32 342 32 c 0xd2
115 87 m 0
 115 49 145 32 164 32 c 0
 190 32 208 45 224 59 c 0
 231 65 235 74 236 99 c 2
 238 148 l 2
 239 163 237 169 229 169 c 0
 226 169 220 168 215 166 c 0
 138 140 115 110 115 87 c 0
EndSplineSet
EndChar

StartChar: aring
Encoding: 229 229 158
Width: 399
GlyphClass: 2
Flags: MW
ItalicCorrection: 26
HStem: -14 46<100.5 177 327.5 337> 365 49<169 252.5> 480 26<182 211 182 211> 620 27<173 200>
VStem: 35 80<68 86> 108 41<551.5 582 551.5 585> 235 41<546 576> 238 68<89.5 148>
LayerCount: 2
Fore
SplineSet
149 568 m 0x36
 149 535 168 506 196 506 c 0
 226 506 235 530 235 562 c 0
 235 590 214 620 186 620 c 0
 158 620 149 596 149 568 c 0x36
195 647 m 0
 239 647 276 613 276 569 c 0
 276 517 233 480 189 480 c 0
 145 480 108 519 108 563 c 0
 108 607 151 647 195 647 c 0
342 32 m 0xc9
 360 32 371 36 382 46 c 0
 388 52 398 45 398 37 c 0
 398 29 356 -14 318 -14 c 0
 261 -14 252 38 244 38 c 0
 231 38 203 -13 121 -14 c 0
 80 -14 35 26 35 65 c 0
 35 107 59 135 108 155 c 2
 210 197 l 2
 236 208 237 210 238 237 c 2
 240 301 l 2
 241 335 217 365 181 365 c 0
 157 365 128 347 120 333 c 0
 117 328 116 321 116 314 c 0
 116 309 117 305 117 300 c 0
 117 286 61 265 48 265 c 0
 42 265 40 271 40 274 c 0
 40 295 55 321 80 343 c 0
 111 371 176 414 229 414 c 0
 276 414 312 374 311 325 c 2
 306 109 l 2
 306 70 313 32 342 32 c 0xc9
115 87 m 0
 115 49 145 32 164 32 c 0
 190 32 208 45 224 59 c 0
 231 65 235 74 236 99 c 2
 238 148 l 2
 239 163 237 169 229 169 c 0
 226 169 220 168 215 166 c 0
 138 140 115 110 115 87 c 0
EndSplineSet
EndChar

StartChar: ae
Encoding: 230 230 159
Width: 544
GlyphClass: 2
Flags: MW
HStem: -14 46<100.5 177> -14 60<375 404> 365 49<169 239> 378 35<394.5 400>
VStem: 35 80<68 86> 241 69<249 254 254 299 299 316.5> 459 69<307 310.5>
LayerCount: 2
Fore
SplineSet
115 87 m 0x8e
 115 49 145 32 164 32 c 0
 190 32 210 45 226 59 c 0
 233 65 240 71 240 96 c 2
 240 148 l 2
 240 164 240 172 232 172 c 0
 216 172 117 139 115 87 c 0x8e
310 321 m 2
 310 254 l 2
 310 244 320 242 325 244 c 0
 374 264 433 284 452 292 c 0
 458 294 459 300 459 306 c 0
 459 315 456 325 455 328 c 0
 440 365 415 378 385 378 c 0x1e
 368 378 311 356 310 321 c 2
120 332 m 0
 117 327 116 320 116 313 c 0
 116 308 117 304 117 299 c 0
 117 285 61 264 48 264 c 0
 42 264 40 270 40 273 c 0
 40 294 55 320 80 342 c 0
 111 370 176 414 229 414 c 0xae
 249 414 284 395 292 381 c 0
 295 375 297 375 304 380 c 0
 328 397 378 413 411 413 c 0
 463 413 528 383 528 318 c 0
 528 296 518 291 504 284 c 0
 491 277 354 218 320 203 c 0
 314 200 309 190 309 185 c 2
 309 129 l 2
 309 63 353 46 397 46 c 0
 437 46 476 57 508 94 c 0
 511 97 514 98 517 98 c 0
 524 98 530 93 530 87 c 0
 530 86 530 84 529 83 c 0
 485 19 442 -14 366 -14 c 0x5e
 327 -14 288 0 257 26 c 0
 254 29 246 38 244 38 c 0
 242 38 239 37 236 34 c 0
 220 22 189 -13 121 -14 c 0
 80 -14 35 26 35 65 c 0
 35 107 59 133 108 155 c 2
 212 202 l 2
 238 214 241 217 241 233 c 2
 241 299 l 2
 241 334 218 365 181 365 c 0xae
 157 365 128 346 120 332 c 0
EndSplineSet
EndChar

StartChar: ccedilla
Encoding: 231 231 160
Width: 377
GlyphClass: 2
Flags: MW
HStem: -274 49<147.5 210> -14 52<155.5 284 206 284> 376 37<184.5 239>
VStem: 35 69<178 241.5> 236 50<-179 -162>
LayerCount: 2
Fore
SplineSet
151 -129 m 0
 144 -129 133 -123 133 -114 c 0
 133 -111 135 -108 138 -104 c 2
 209 -14 l 1
 206 -14 l 2
 105 -14 35 77 35 180 c 0
 35 303 123 413 246 413 c 0
 289 413 336 402 366 365 c 0
 369 361 371 357 371 353 c 0
 371 336 343 319 333 319 c 0
 324 319 313 324 308 329 c 0
 275 365 264 376 214 376 c 0
 141 376 104 299 104 226 c 0
 104 130 167 38 263 38 c 0
 305 38 325 54 351 88 c 0
 354 91 357 93 360 93 c 0
 366 93 372 86 372 79 c 0
 372 47 314 2 243 -11 c 1
 218 -43 l 2
 216 -45 214 -49 214 -51 c 0
 214 -57 221 -62 225 -63 c 0
 257 -77 286 -106 286 -139 c 0
 286 -219 197 -274 161 -274 c 0
 134 -274 131 -252 131 -233 c 0
 131 -219 140 -214 144 -214 c 0
 151 -214 164 -225 197 -225 c 0
 223 -225 236 -206 236 -180 c 0
 236 -144 212 -123 177 -123 c 0
 164 -123 158 -129 151 -129 c 0
EndSplineSet
EndChar

StartChar: egrave
Encoding: 232 232 161
Width: 390
GlyphClass: 2
Flags: MW
ItalicCorrection: 8
HStem: -14 60<198 244> 257 31<109 212 130 212 212 226.5 130 325> 383 31<185 232.5> 456 193<122.5 238.5>
VStem: 30 62<175 237 175 259.5> 86 157<464.5 634> 295 65<315.5 339 287 341> 339 17
LayerCount: 2
Fore
SplineSet
204 478 m 0x14
 173 511 86 612 86 626 c 0
 86 642 110 649 135 649 c 0
 145 649 156 641 162 631 c 0
 181 598 243 484 243 469 c 0
 243 460 243 456 234 456 c 0
 226 456 212 469 204 478 c 0x14
213 383 m 0xea
 157 383 111 329 111 303 c 0
 111 295 116 288 130 288 c 2
 212 288 l 2
 241 288 264 289 285 293 c 0
 292 294 295 310 295 321 c 0
 295 361 252 383 213 383 c 0xea
229 414 m 0
 306 414 360 376 360 302 c 0xea
 360 272 351 257 325 257 c 2
 117 257 l 2
 101 257 92 254 92 220 c 0
 92 130 153 46 243 46 c 0
 268 46 313 57 339 91 c 0
 342 94 347 98 350 98 c 0
 357 98 358 86 356 78 c 0xe9
 346 43 290 -14 198 -14 c 0
 107 -14 30 70 30 203 c 0
 30 316 116 414 229 414 c 0
EndSplineSet
EndChar

StartChar: eacute
Encoding: 233 233 162
Width: 390
GlyphClass: 2
Flags: MW
ItalicCorrection: 8
HStem: -14 60<198 244> 257 31<109 212 130 212 212 226.5 130 325> 383 31<185 232.5> 456 193<183.5 299.5>
VStem: 30 62<175 237 175 259.5> 179 157<464.5 634> 295 65<315.5 339 287 341> 339 17
LayerCount: 2
Fore
SplineSet
218 478 m 0x14
 210 469 196 456 188 456 c 0
 179 456 179 460 179 469 c 0
 179 484 241 598 260 631 c 0
 266 641 277 649 287 649 c 0
 312 649 336 642 336 626 c 0
 336 612 249 511 218 478 c 0x14
213 383 m 0xea
 157 383 111 329 111 303 c 0
 111 295 116 288 130 288 c 2
 212 288 l 2
 241 288 264 289 285 293 c 0
 292 294 295 310 295 321 c 0
 295 361 252 383 213 383 c 0xea
229 414 m 0
 306 414 360 376 360 302 c 0xea
 360 272 351 257 325 257 c 2
 117 257 l 2
 101 257 92 254 92 220 c 0
 92 130 153 46 243 46 c 0
 268 46 313 57 339 91 c 0
 342 94 347 98 350 98 c 0
 357 98 358 86 356 78 c 0xe9
 346 43 290 -14 198 -14 c 0
 107 -14 30 70 30 203 c 0
 30 316 116 414 229 414 c 0
EndSplineSet
EndChar

StartChar: ecircumflex
Encoding: 234 234 163
Width: 390
GlyphClass: 2
Flags: MW
ItalicCorrection: 8
HStem: -14 60<198 244> 257 31<109 212 130 212 212 226.5 130 325> 383 31<185 232.5> 447 201<107.5 215 207 315.5>
VStem: 30 62<175 237 175 259.5> 103 217<455.5 467.5> 295 65<315.5 339 287 341> 339 17
LayerCount: 2
Fore
SplineSet
208 553 m 0x14
 183 523 154 485 142 469 c 0
 135 460 120 447 112 447 c 0
 103 447 103 451 103 460 c 0
 103 475 171 597 191 630 c 0
 196 639 203 648 211 648 c 0
 219 648 226 639 231 630 c 0
 251 597 320 475 320 460 c 0
 320 451 320 447 311 447 c 0
 303 447 288 459 281 469 c 0
 269 485 239 523 215 553 c 0
 212 557 211 557 208 553 c 0x14
213 383 m 0xea
 157 383 111 329 111 303 c 0
 111 295 116 288 130 288 c 2
 212 288 l 2
 241 288 264 289 285 293 c 0
 292 294 295 310 295 321 c 0
 295 361 252 383 213 383 c 0xea
229 414 m 0
 306 414 360 376 360 302 c 0xea
 360 272 351 257 325 257 c 2
 117 257 l 2
 101 257 92 254 92 220 c 0
 92 130 153 46 243 46 c 0
 268 46 313 57 339 91 c 0
 342 94 347 98 350 98 c 0
 357 98 358 86 356 78 c 0xe9
 346 43 290 -14 198 -14 c 0
 107 -14 30 70 30 203 c 0
 30 316 116 414 229 414 c 0
EndSplineSet
EndChar

StartChar: edieresis
Encoding: 235 235 164
Width: 390
GlyphClass: 2
Flags: MW
ItalicCorrection: 8
HStem: -14 60<198 244> 257 31<109 212 130 212 212 226.5 130 325> 383 31<185 232.5> 493 100<114.5 139.5 291.5 316.5>
VStem: 30 62<175 237 175 259.5> 77 100<530.5 555.5> 254 100<530.5 555.5> 295 65<315.5 339 287 341> 339 17
LayerCount: 2
Fore
SplineSet
127 593 m 0x16
 152 593 177 568 177 543 c 0
 177 518 152 493 127 493 c 0
 102 493 77 518 77 543 c 0
 77 568 102 593 127 593 c 0x16
304 593 m 0
 329 593 354 568 354 543 c 0
 354 518 329 493 304 493 c 0
 279 493 254 518 254 543 c 0
 254 568 279 593 304 593 c 0
213 383 m 0xe9
 157 383 111 329 111 303 c 0
 111 295 116 288 130 288 c 2
 212 288 l 2
 241 288 264 289 285 293 c 0
 292 294 295 310 295 321 c 0
 295 361 252 383 213 383 c 0xe9
229 414 m 0
 306 414 360 376 360 302 c 0xe9
 360 272 351 257 325 257 c 2
 117 257 l 2
 101 257 92 254 92 220 c 0
 92 130 153 46 243 46 c 0
 268 46 313 57 339 91 c 0
 342 94 347 98 350 98 c 0
 357 98 358 86 356 78 c 0xe880
 346 43 290 -14 198 -14 c 0
 107 -14 30 70 30 203 c 0
 30 316 116 414 229 414 c 0
EndSplineSet
EndChar

StartChar: igrave
Encoding: 236 236 165
Width: 245
GlyphClass: 2
Flags: MW
ItalicCorrection: 3
HStem: -3 27 352 25<43 43> 456 193<26.5 142.5>
VStem: -10 157<464.5 634> 90 70<62 279 279 294>
LayerCount: 2
Fore
SplineSet
108 478 m 0x30
 77 511 -10 612 -10 626 c 0
 -10 642 14 649 39 649 c 0
 49 649 60 641 66 631 c 0
 85 598 147 484 147 469 c 0
 147 460 147 456 138 456 c 0
 130 456 116 469 108 478 c 0x30
162 434 m 0xc8
 166 434 169 432 169 429 c 0
 165 388 160 339 160 294 c 2
 160 62 l 2
 160 35 183 30 203 24 c 0
 214 20 226 16 226 6 c 0
 226 -2 215 -3 206 -3 c 0
 168 -3 160 2 125 2 c 0
 90 2 83 -3 44 -3 c 0
 36 -3 24 -2 24 6 c 0
 24 16 36 20 47 24 c 0
 67 30 90 35 90 62 c 2
 90 279 l 2
 90 315 77 345 43 352 c 0
 38 353 35 359 35 365 c 0
 35 370 38 376 42 377 c 0
 109 393 154 434 162 434 c 0xc8
EndSplineSet
EndChar

StartChar: iacute
Encoding: 237 237 166
Width: 245
GlyphClass: 2
Flags: MW
ItalicCorrection: 38
HStem: -3 27 352 25<43 43> 456 193<87.5 203.5>
VStem: 83 157<464.5 634> 90 70<62 279 279 294>
LayerCount: 2
Fore
SplineSet
122 478 m 0x30
 114 469 100 456 92 456 c 0
 83 456 83 460 83 469 c 0
 83 484 145 598 164 631 c 0
 170 641 181 649 191 649 c 0
 216 649 240 642 240 626 c 0
 240 612 153 511 122 478 c 0x30
162 434 m 0xc8
 166 434 169 432 169 429 c 0
 165 388 160 339 160 294 c 2
 160 62 l 2
 160 35 183 30 203 24 c 0
 214 20 226 16 226 6 c 0
 226 -2 215 -3 206 -3 c 0
 168 -3 160 2 125 2 c 0
 90 2 83 -3 44 -3 c 0
 36 -3 24 -2 24 6 c 0
 24 16 36 20 47 24 c 0
 67 30 90 35 90 62 c 2
 90 279 l 2
 90 315 77 345 43 352 c 0
 38 353 35 359 35 365 c 0
 35 370 38 376 42 377 c 0
 109 393 154 434 162 434 c 0xc8
EndSplineSet
EndChar

StartChar: icircumflex
Encoding: 238 238 167
Width: 245
GlyphClass: 2
Flags: MW
ItalicCorrection: 43
HStem: -3 27 352 25<43 43> 447 201<11.5 119 111 219.5>
VStem: 7 217<455.5 467.5> 90 70<62 279 279 294>
LayerCount: 2
Fore
SplineSet
112 553 m 0x30
 87 523 58 485 46 469 c 0
 39 460 24 447 16 447 c 0
 7 447 7 451 7 460 c 0
 7 475 75 597 95 630 c 0
 100 639 107 648 115 648 c 0
 123 648 130 639 135 630 c 0
 155 597 224 475 224 460 c 0
 224 451 224 447 215 447 c 0
 207 447 192 459 185 469 c 0
 173 485 143 523 119 553 c 0
 116 557 115 557 112 553 c 0x30
162 434 m 0xc8
 166 434 169 432 169 429 c 0
 165 388 160 339 160 294 c 2
 160 62 l 2
 160 35 183 30 203 24 c 0
 214 20 226 16 226 6 c 0
 226 -2 215 -3 206 -3 c 0
 168 -3 160 2 125 2 c 0
 90 2 83 -3 44 -3 c 0
 36 -3 24 -2 24 6 c 0
 24 16 36 20 47 24 c 0
 67 30 90 35 90 62 c 2
 90 279 l 2
 90 315 77 345 43 352 c 0
 38 353 35 359 35 365 c 0
 35 370 38 376 42 377 c 0
 109 393 154 434 162 434 c 0xc8
EndSplineSet
EndChar

StartChar: idieresis
Encoding: 239 239 168
Width: 245
GlyphClass: 2
Flags: MW
ItalicCorrection: 37
HStem: -3 27 352 25<43 43> 493 100<18.5 43.5 195.5 220.5>
VStem: -19 100<530.5 555.5> 90 70<62 279 279 294> 158 100<530.5 555.5>
LayerCount: 2
Fore
SplineSet
31 593 m 0x34
 56 593 81 568 81 543 c 0
 81 518 56 493 31 493 c 0
 6 493 -19 518 -19 543 c 0
 -19 568 6 593 31 593 c 0x34
208 593 m 0
 233 593 258 568 258 543 c 0
 258 518 233 493 208 493 c 0
 183 493 158 518 158 543 c 0
 158 568 183 593 208 593 c 0
162 434 m 0xc8
 166 434 169 432 169 429 c 0
 165 388 160 339 160 294 c 2
 160 62 l 2
 160 35 183 30 203 24 c 0
 214 20 226 16 226 6 c 0
 226 -2 215 -3 206 -3 c 0
 168 -3 160 2 125 2 c 0
 90 2 83 -3 44 -3 c 0
 36 -3 24 -2 24 6 c 0
 24 16 36 20 47 24 c 0
 67 30 90 35 90 62 c 2
 90 279 l 2
 90 315 77 345 43 352 c 0
 38 353 35 359 35 365 c 0
 35 370 38 376 42 377 c 0
 109 393 154 434 162 434 c 0xc8
EndSplineSet
EndChar

StartChar: eth
Encoding: 240 240 169
Width: 487
GlyphClass: 2
Flags: MW
HStem: -14 30<212 292 212 306> 380 34<191.5 267 189.5 274.5> 678 27
VStem: 25 83<160.5 248> 378 78<191.5 270.5>
LayerCount: 2
Fore
SplineSet
456 250 m 0
 456 133 381 -14 231 -14 c 0
 119 -14 25 66 25 186 c 0
 25 310 128 414 251 414 c 0
 283 414 315 406 343 391 c 0
 352 387 353 390 351 400 c 0
 335 459 313 516 283 552 c 1
 128 472 l 2
 120 468 114 475 114 480 c 0
 114 489 114 511 122 515 c 2
 254 584 l 1
 199 636 134 667 84 678 c 0
 76 680 64 683 64 693 c 0
 64 702 76 705 90 705 c 0
 151 705 236 671 309 612 c 1
 410 665 l 2
 418 670 435 674 435 664 c 0
 435 646 433 630 417 622 c 2
 342 583 l 1
 399 522 456 427 456 250 c 0
234 380 m 0
 149 380 108 293 108 210 c 0
 108 111 172 16 252 16 c 0
 332 16 378 130 378 219 c 0
 378 322 315 380 234 380 c 0
EndSplineSet
EndChar

StartChar: ntilde
Encoding: 241 241 170
Width: 528
GlyphClass: 2
Flags: MW
ItalicCorrection: 13
HStem: -3 27 349 25<51 51> 366 48<262 358.5> 410 20<161 162.5> 470 21<141 150> 500 66<314.5 327.5> 507 67<207.5 215.5>
VStem: 90 70<62 268> 132 268<485 588> 369 70<62 272 272 275>
LayerCount: 2
Fore
SplineSet
146 470 m 0x0a80
 136 470 132 480 132 490 c 0
 132 500 195 574 220 574 c 0x0a80
 245 574 302 566 327 566 c 0
 362 566 376 600 384 600 c 0
 394 600 400 593 400 583 c 0
 400 573 340 500 315 500 c 0x0c80
 290 500 228 507 203 507 c 0
 178 507 154 470 146 470 c 0x0a80
279 366 m 0xa140
 245 366 212 360 187 340 c 0
 175 331 160 309 160 268 c 2
 160 62 l 2
 160 35 183 30 203 24 c 0
 214 20 226 16 226 6 c 0
 226 -2 214 -3 206 -3 c 0
 166 -3 160 2 125 2 c 0
 90 2 84 -3 44 -3 c 0
 36 -3 24 -2 24 6 c 0
 24 16 36 20 47 24 c 0
 67 30 90 35 90 62 c 2
 90 277 l 2
 90.1669921875 313 85 342 51 349 c 0
 46 350 43 356 43 362 c 0
 43 368 46 373 50 374 c 0
 102 386 127 407 161 430 c 0xd140
 164 430 168 427 168 423 c 0
 168 414 163 378 163 359 c 0
 163 353 163.5859375 348.4140625 165 347 c 0
 211.5 391.5 263 414 326 414 c 0
 391 414 439 353 439 275 c 2
 439 62 l 2
 439 35 462 30 482 24 c 0
 493 20 505 16 505 6 c 0
 505 -2 493 -3 485 -3 c 0
 445 -3 440 2 405 2 c 0
 370 2 363 -3 323 -3 c 0
 316 -3 303 -2 303 6 c 0
 303 16 315 20 326 24 c 0
 346 30 369 35 369 62 c 2
 369 272 l 2
 369 330 333 365 279 366 c 0xa140
EndSplineSet
EndChar

StartChar: ograve
Encoding: 242 242 171
Width: 495
GlyphClass: 2
Flags: MW
HStem: -14 30<215 277.5 215 309> 383 31<219 279.5> 456 193<157.5 273.5>
VStem: 35 82<160.5 234 160.5 242.5> 121 157<464.5 634> 378 82<169.5 236.5>
LayerCount: 2
Fore
SplineSet
239 478 m 0
 208 511 121 612 121 626 c 0
 121 642 145 649 170 649 c 0
 180 649 191 641 197 631 c 0
 216 598 278 484 278 469 c 0
 278 460 278 456 269 456 c 0
 261 456 247 469 239 478 c 0
254 414 m 0
 370 414 460 321 460 213 c 0
 460 96 384 -14 234 -14 c 0
 122 -14 35 70 35 187 c 0
 35 298 131 414 254 414 c 0
237 383 m 0
 201 383 173 374 149 343 c 0
 122 309 117 258 117 210 c 0
 117 111 175 16 255 16 c 0
 300 16 338 32 358 71 c 0
 374 102 378 150 378 189 c 0
 378 284 322 383 237 383 c 0
EndSplineSet
EndChar

StartChar: oacute
Encoding: 243 243 172
Width: 495
GlyphClass: 2
Flags: MW
HStem: -14 30<215 277.5 215 309> 383 31<219 279.5> 456 193<218.5 334.5>
VStem: 35 82<160.5 234 160.5 242.5> 214 157<464.5 634> 378 82<169.5 236.5>
LayerCount: 2
Fore
SplineSet
253 478 m 0
 245 469 231 456 223 456 c 0
 214 456 214 460 214 469 c 0
 214 484 276 598 295 631 c 0
 301 641 312 649 322 649 c 0
 347 649 371 642 371 626 c 0
 371 612 284 511 253 478 c 0
254 414 m 0
 370 414 460 321 460 213 c 0
 460 96 384 -14 234 -14 c 0
 122 -14 35 70 35 187 c 0
 35 298 131 414 254 414 c 0
237 383 m 0
 201 383 173 374 149 343 c 0
 122 309 117 258 117 210 c 0
 117 111 175 16 255 16 c 0
 300 16 338 32 358 71 c 0
 374 102 378 150 378 189 c 0
 378 284 322 383 237 383 c 0
EndSplineSet
EndChar

StartChar: ocircumflex
Encoding: 244 244 173
Width: 495
GlyphClass: 2
Flags: MW
HStem: -14 30<215 277.5 215 309> 383 31<219 279.5> 447 201<142.5 250 242 350.5>
VStem: 35 82<160.5 234 160.5 242.5> 138 217<455.5 467.5> 378 82<169.5 236.5>
LayerCount: 2
Fore
SplineSet
243 553 m 0
 218 523 189 485 177 469 c 0
 170 460 155 447 147 447 c 0
 138 447 138 451 138 460 c 0
 138 475 206 597 226 630 c 0
 231 639 238 648 246 648 c 0
 254 648 261 639 266 630 c 0
 286 597 355 475 355 460 c 0
 355 451 355 447 346 447 c 0
 338 447 323 459 316 469 c 0
 304 485 274 523 250 553 c 0
 247 557 246 557 243 553 c 0
254 414 m 0
 370 414 460 321 460 213 c 0
 460 96 384 -14 234 -14 c 0
 122 -14 35 70 35 187 c 0
 35 298 131 414 254 414 c 0
237 383 m 0
 201 383 173 374 149 343 c 0
 122 309 117 258 117 210 c 0
 117 111 175 16 255 16 c 0
 300 16 338 32 358 71 c 0
 374 102 378 150 378 189 c 0
 378 284 322 383 237 383 c 0
EndSplineSet
EndChar

StartChar: otilde
Encoding: 245 245 174
Width: 495
GlyphClass: 2
Flags: MW
HStem: -14 30<215 277.5 215 309> 383 31<219 279.5> 470 21<129 138> 500 66<302.5 315.5> 507 67<195.5 203.5>
VStem: 35 82<160.5 234 160.5 242.5> 120 268<485 588> 378 82<169.5 236.5>
LayerCount: 2
Fore
SplineSet
134 470 m 0x2a
 124 470 120 480 120 490 c 0
 120 500 183 574 208 574 c 0x2a
 233 574 290 566 315 566 c 0
 350 566 364 600 372 600 c 0
 382 600 388 593 388 583 c 0
 388 573 328 500 303 500 c 0x32
 278 500 216 507 191 507 c 0
 166 507 142 470 134 470 c 0x2a
254 414 m 0xc5
 370 414 460 321 460 213 c 0
 460 96 384 -14 234 -14 c 0
 122 -14 35 70 35 187 c 0
 35 298 131 414 254 414 c 0xc5
237 383 m 0
 201 383 173 374 149 343 c 0
 122 309 117 258 117 210 c 0
 117 111 175 16 255 16 c 0
 300 16 338 32 358 71 c 0
 374 102 378 150 378 189 c 0
 378 284 322 383 237 383 c 0
EndSplineSet
EndChar

StartChar: odieresis
Encoding: 246 246 175
Width: 495
GlyphClass: 2
Flags: MW
HStem: -14 30<215 277.5 215 309> 383 31<219 279.5> 493 100<149.5 174.5 326.5 351.5>
VStem: 35 82<160.5 234 160.5 242.5> 112 100<530.5 555.5> 289 100<530.5 555.5> 378 82<169.5 236.5>
LayerCount: 2
Fore
SplineSet
162 593 m 0x2c
 187 593 212 568 212 543 c 0
 212 518 187 493 162 493 c 0
 137 493 112 518 112 543 c 0
 112 568 137 593 162 593 c 0x2c
339 593 m 0
 364 593 389 568 389 543 c 0
 389 518 364 493 339 493 c 0
 314 493 289 518 289 543 c 0
 289 568 314 593 339 593 c 0
254 414 m 0xd2
 370 414 460 321 460 213 c 0
 460 96 384 -14 234 -14 c 0
 122 -14 35 70 35 187 c 0
 35 298 131 414 254 414 c 0xd2
237 383 m 0
 201 383 173 374 149 343 c 0
 122 309 117 258 117 210 c 0
 117 111 175 16 255 16 c 0
 300 16 338 32 358 71 c 0
 374 102 378 150 378 189 c 0
 378 284 322 383 237 383 c 0
EndSplineSet
EndChar

StartChar: divide
Encoding: 247 247 176
Width: 590
GlyphClass: 2
Flags: MW
HStem: 69 92<282.5 307.5> 232 50<60.5 527 74 509> 353 92<282 306.5>
VStem: 249 92<102.5 127.5>
CounterMasks: 1 e0
LayerCount: 2
Fore
SplineSet
64 232 m 2
 57 232 50 238 50 244 c 0
 50 253 56 282 74 282 c 2
 527 282 l 2
 533 282 541 277 541 271 c 0
 541 270 540 269 540 268 c 0
 534 251 528 232 509 232 c 2
 64 232 l 2
295 445 m 0
 320 445 340 424 340 399 c 0
 340 374 319 353 294 353 c 0
 269 353 248 374 248 399 c 0
 248 425 269 445 295 445 c 0
295 161 m 0
 320 161 341 140 341 115 c 0
 341 90 320 69 295 69 c 0
 270 69 249 90 249 115 c 0
 249 140 270 161 295 161 c 0
EndSplineSet
EndChar

StartChar: oslash
Encoding: 248 248 177
Width: 485
GlyphClass: 2
Flags: MW
HStem: -14 30<230.5 273.5 230.5 305> 380 34<215 255>
VStem: 30 83<193.5 234 193.5 248> 373 82<169.5 205>
LayerCount: 2
Fore
SplineSet
356 281 m 1
 150 79 l 1
 174 41 210 16 251 16 c 0
 296 16 334 33 354 72 c 0
 370 103 373 150 373 189 c 0
 373 221 367 252 356 281 c 1
49 -15 m 0
 37 -15 25 -4 25 5 c 0
 25 12 29 20 35 25 c 2
 75 63 l 1
 47 99 30 142 30 186 c 0
 30 310 127 414 250 414 c 0
 300 414 348 394 385 361 c 1
 437 411 l 2
 440 414 444 415 448 415 c 0
 458 415 462 408 462 400 c 0
 462 391 458 380 451 374 c 2
 411 335 l 1
 438 300 455 258 455 213 c 0
 455 96 380 -14 230 -14 c 0
 182 -14 138 5 103 34 c 1
 56 -12 l 2
 54 -14 52 -15 49 -15 c 0
233 380 m 0
 197 380 165 364 146 340 c 0
 120 307 113 258 113 210 c 0
 113 177 119 145 131 117 c 1
 338 316 l 1
 313 354 277 380 233 380 c 0
EndSplineSet
EndChar

StartChar: ugrave
Encoding: 249 249 178
Width: 527
GlyphClass: 2
Flags: MW
ItalicCorrection: 7
HStem: -19 56 21 24 365 32<301 303 301 303> 395 20<432 434 434 438.5> 456 193<162.5 278.5>
VStem: 85 70<105 128 128 308 308 322.5> 126 157<464.5 634> 368 70<132 315 315 326>
LayerCount: 2
Fore
SplineSet
244 478 m 0x0a
 213 511 126 612 126 626 c 0
 126 642 150 649 175 649 c 0
 185 649 196 641 202 631 c 0
 221 598 283 484 283 469 c 0
 283 460 283 456 274 456 c 0
 266 456 252 469 244 478 c 0x0a
432 415 m 1x15
 434 415 l 2x15
 443 415 451 405 446 397 c 0
 442 390 438 342 438 326 c 2
 438 114 l 2
 438 73 440 45 456 45 c 0
 466 45 492 46 502 48 c 0
 507 49 517 47 517 35 c 0
 517 24 508 21 503 21 c 0x65
 451 14 415 -1 386 -13 c 0
 382 -15 368 -19 362 -19 c 0
 358 -19 359 -18 359 -15 c 0
 359 -2 364 34 364 51 c 2
 364 57 l 1
 312 6 261 -14 199 -14 c 0
 134 -14 85 27 85 105 c 2
 85 308 l 2
 85 337 72 353 42 365 c 0
 39 366 29 370 29 380 c 0
 29 393 39 396 44 397 c 0
 98 399 108 405 147 414 c 0
 157 415 162 410 161 400 c 0
 157 369 155 353 155 323 c 2
 155 128 l 2
 155 80 196 37 239 37 c 0
 273 37 298 38 323 57 c 0
 338 68 368 91 368 132 c 2
 368 315 l 2
 368 356 323 364 303 365 c 0
 298 365 280 368 280 382 c 0
 280 394 299 397 303 397 c 0xa5
 404 402 396 405 432 415 c 1x15
EndSplineSet
EndChar

StartChar: uacute
Encoding: 250 250 179
Width: 527
GlyphClass: 2
Flags: MW
ItalicCorrection: 7
HStem: -19 56 21 24 365 32<301 303 301 303> 395 20<432 434 434 438.5> 456 193<223.5 339.5>
VStem: 85 70<105 128 128 308 308 322.5> 219 157<464.5 634> 368 70<132 315 315 326>
LayerCount: 2
Fore
SplineSet
258 478 m 0x0a
 250 469 236 456 228 456 c 0
 219 456 219 460 219 469 c 0
 219 484 281 598 300 631 c 0
 306 641 317 649 327 649 c 0
 352 649 376 642 376 626 c 0
 376 612 289 511 258 478 c 0x0a
432 415 m 1x15
 434 415 l 2x15
 443 415 451 405 446 397 c 0
 442 390 438 342 438 326 c 2
 438 114 l 2
 438 73 440 45 456 45 c 0
 466 45 492 46 502 48 c 0
 507 49 517 47 517 35 c 0
 517 24 508 21 503 21 c 0x65
 451 14 415 -1 386 -13 c 0
 382 -15 368 -19 362 -19 c 0
 358 -19 359 -18 359 -15 c 0
 359 -2 364 34 364 51 c 2
 364 57 l 1
 312 6 261 -14 199 -14 c 0
 134 -14 85 27 85 105 c 2
 85 308 l 2
 85 337 72 353 42 365 c 0
 39 366 29 370 29 380 c 0
 29 393 39 396 44 397 c 0
 98 399 108 405 147 414 c 0
 157 415 162 410 161 400 c 0
 157 369 155 353 155 323 c 2
 155 128 l 2
 155 80 196 37 239 37 c 0
 273 37 298 38 323 57 c 0
 338 68 368 91 368 132 c 2
 368 315 l 2
 368 356 323 364 303 365 c 0
 298 365 280 368 280 382 c 0
 280 394 299 397 303 397 c 0xa5
 404 402 396 405 432 415 c 1x15
EndSplineSet
EndChar

StartChar: ucircumflex
Encoding: 251 251 180
Width: 527
GlyphClass: 2
Flags: MW
ItalicCorrection: 7
HStem: -19 56 21 24 365 32<301 303 301 303> 395 20<432 434 434 438.5> 447 201<147.5 255 247 355.5>
VStem: 85 70<105 128 128 308 308 322.5> 143 217<455.5 467.5> 368 70<132 315 315 326>
LayerCount: 2
Fore
SplineSet
248 553 m 0x0a
 223 523 194 485 182 469 c 0
 175 460 160 447 152 447 c 0
 143 447 143 451 143 460 c 0
 143 475 211 597 231 630 c 0
 236 639 243 648 251 648 c 0
 259 648 266 639 271 630 c 0
 291 597 360 475 360 460 c 0
 360 451 360 447 351 447 c 0
 343 447 328 459 321 469 c 0
 309 485 279 523 255 553 c 0
 252 557 251 557 248 553 c 0x0a
432 415 m 1x15
 434 415 l 2x15
 443 415 451 405 446 397 c 0
 442 390 438 342 438 326 c 2
 438 114 l 2
 438 73 440 45 456 45 c 0
 466 45 492 46 502 48 c 0
 507 49 517 47 517 35 c 0
 517 24 508 21 503 21 c 0x65
 451 14 415 -1 386 -13 c 0
 382 -15 368 -19 362 -19 c 0
 358 -19 359 -18 359 -15 c 0
 359 -2 364 34 364 51 c 2
 364 57 l 1
 312 6 261 -14 199 -14 c 0
 134 -14 85 27 85 105 c 2
 85 308 l 2
 85 337 72 353 42 365 c 0
 39 366 29 370 29 380 c 0
 29 393 39 396 44 397 c 0
 98 399 108 405 147 414 c 0
 157 415 162 410 161 400 c 0
 157 369 155 353 155 323 c 2
 155 128 l 2
 155 80 196 37 239 37 c 0
 273 37 298 38 323 57 c 0
 338 68 368 91 368 132 c 2
 368 315 l 2
 368 356 323 364 303 365 c 0
 298 365 280 368 280 382 c 0
 280 394 299 397 303 397 c 0xa5
 404 402 396 405 432 415 c 1x15
EndSplineSet
EndChar

StartChar: udieresis
Encoding: 252 252 181
Width: 527
GlyphClass: 2
Flags: MW
ItalicCorrection: 7
HStem: -19 56 21 24 365 32<301 303 301 303> 395 20<432 434 434 438.5> 493 100<154.5 179.5 331.5 356.5>
VStem: 85 70<105 128 128 308 308 322.5> 117 100<530.5 555.5> 294 100<530.5 555.5> 368 70<132 315 315 326>
LayerCount: 2
Fore
SplineSet
167 593 m 0x0b
 192 593 217 568 217 543 c 0
 217 518 192 493 167 493 c 0
 142 493 117 518 117 543 c 0
 117 568 142 593 167 593 c 0x0b
344 593 m 0
 369 593 394 568 394 543 c 0
 394 518 369 493 344 493 c 0
 319 493 294 518 294 543 c 0
 294 568 319 593 344 593 c 0
432 415 m 1x1480
 434 415 l 2x1480
 443 415 451 405 446 397 c 0
 442 390 438 342 438 326 c 2
 438 114 l 2
 438 73 440 45 456 45 c 0
 466 45 492 46 502 48 c 0
 507 49 517 47 517 35 c 0
 517 24 508 21 503 21 c 0x6480
 451 14 415 -1 386 -13 c 0
 382 -15 368 -19 362 -19 c 0
 358 -19 359 -18 359 -15 c 0
 359 -2 364 34 364 51 c 2
 364 57 l 1
 312 6 261 -14 199 -14 c 0
 134 -14 85 27 85 105 c 2
 85 308 l 2
 85 337 72 353 42 365 c 0
 39 366 29 370 29 380 c 0
 29 393 39 396 44 397 c 0
 98 399 108 405 147 414 c 0
 157 415 162 410 161 400 c 0
 157 369 155 353 155 323 c 2
 155 128 l 2
 155 80 196 37 239 37 c 0
 273 37 298 38 323 57 c 0
 338 68 368 91 368 132 c 2
 368 315 l 2
 368 356 323 364 303 365 c 0
 298 365 280 368 280 382 c 0
 280 394 299 397 303 397 c 0xa480
 404 402 396 405 432 415 c 1x1480
EndSplineSet
EndChar

StartChar: yacute
Encoding: 253 253 182
Width: 438
GlyphClass: 2
Flags: MW
ItalicCorrection: 3
HStem: -285 66<30 78.5> 378 27 456 193<206.5 322.5>
VStem: 202 157<464.5 634> 322 121<327 400>
LayerCount: 2
Fore
SplineSet
241 478 m 0x30
 233 469 219 456 211 456 c 0
 202 456 202 460 202 469 c 0
 202 484 264 598 283 631 c 0
 289 641 300 649 310 649 c 0
 335 649 359 642 359 626 c 0
 359 612 272 511 241 478 c 0x30
13 -249 m 0xc8
 13 -233 20 -219 40 -219 c 0
 55 -219 69 -225 80 -225 c 0
 88 -225 94 -222 99 -214 c 0
 120 -178 161 -93 190 -16 c 0
 192 -10 193 -2 193 7 c 0
 193 18 192 28 189 36 c 2
 73 329 l 2
 63 353 48 372 28 378 c 0
 17 382 5 386 5 396 c 0
 5 404 18 405 25 405 c 0
 65 405 63 400 98 400 c 0
 133 400 134 405 174 405 c 0
 182 405 194 402 194 394 c 0
 194 384 176 375 165 372 c 0
 151 368 145 359 145 340 c 0
 145 332 150 319 153 312 c 2
 232 116 l 2
 238 102 242 103 247 117 c 2
 314 295 l 2
 318 304 322 322 322 332 c 0
 322 357 314 365 302 370 c 0
 291 375 273 384 273 394 c 0
 273 402 286 405 293 405 c 0
 311 405 327 400 364 400 c 0
 401 400 401 405 423 405 c 0
 430 405 443 404 443 396 c 0
 443 386 431 382 420 378 c 0
 400 372 374 343 361 311 c 2
 225 -13 l 2
 221 -22 170 -148 129 -244 c 0
 117 -271 93 -285 64 -285 c 0
 40 -285 13 -271 13 -249 c 0xc8
EndSplineSet
EndChar

StartChar: thorn
Encoding: 254 254 183
Width: 505
GlyphClass: 2
Flags: MW
HStem: -285 27<39 39 195 195> -14 31<249 290.5 249 319> 369 45<285.5 286.5> 685 20G<155.5 157.5>
VStem: 85 70<-219 -33 105.5 115 115 269 374.5 386 386 562> 401 80<165.5 270>
LayerCount: 2
Fore
SplineSet
271 17 m 0
 310 17 401 59 401 193 c 0
 401 347 308 369 265 369 c 0
 231 369 204 359 179 340 c 0
 164 329 155 310 155 269 c 2
 155 115 l 2
 155 96 159 60 178 42 c 0
 193 28 227 17 271 17 c 0
85 566 m 2
 85 599 72 632 39 639 c 0
 34 640 31 646 31 652 c 0
 31 658 34 663 38 664 c 0
 89 676 122 692 154 704 c 0
 155 704 155 705 156 705 c 0
 159 705 162 701 162 698 c 0
 162 686 156 652 155 562 c 2
 155 386 l 2
 155 363 156 349 157 348 c 1
 176 367 254 414 317 414 c 0
 420 414 481 319 481 225 c 0
 481 106 382 -14 256 -14 c 0
 228 -14 178 0 158 18 c 0
 155 18 155 -27 155 -33 c 2
 155 -219 l 2
 155 -247 175 -252 195 -258 c 0
 206 -262 218 -266 218 -276 c 0
 218 -285 204 -285 195 -285 c 0
 156 -285 152 -280 117 -280 c 0
 82 -280 78 -285 39 -285 c 0
 30 -285 16 -285 16 -276 c 0
 16 -266 28 -262 39 -258 c 0
 59 -252 85 -247 85 -219 c 2
 85 566 l 2
EndSplineSet
EndChar

StartChar: ydieresis
Encoding: 255 255 184
Width: 438
GlyphClass: 2
Flags: MW
ItalicCorrection: 3
HStem: -285 66<30 78.5> 378 27 493 100<137.5 162.5 314.5 339.5>
VStem: 100 100<530.5 555.5> 277 100<530.5 555.5> 322 121<327 400>
LayerCount: 2
Fore
SplineSet
150 593 m 0x38
 175 593 200 568 200 543 c 0
 200 518 175 493 150 493 c 0
 125 493 100 518 100 543 c 0
 100 568 125 593 150 593 c 0x38
327 593 m 0
 352 593 377 568 377 543 c 0
 377 518 352 493 327 493 c 0
 302 493 277 518 277 543 c 0
 277 568 302 593 327 593 c 0
13 -249 m 0xc4
 13 -233 20 -219 40 -219 c 0
 55 -219 69 -225 80 -225 c 0
 88 -225 94 -222 99 -214 c 0
 120 -178 161 -93 190 -16 c 0
 192 -10 193 -2 193 7 c 0
 193 18 192 28 189 36 c 2
 73 329 l 2
 63 353 48 372 28 378 c 0
 17 382 5 386 5 396 c 0
 5 404 18 405 25 405 c 0
 65 405 63 400 98 400 c 0
 133 400 134 405 174 405 c 0
 182 405 194 402 194 394 c 0
 194 384 176 375 165 372 c 0
 151 368 145 359 145 340 c 0
 145 332 150 319 153 312 c 2
 232 116 l 2
 238 102 242 103 247 117 c 2
 314 295 l 2
 318 304 322 322 322 332 c 0
 322 357 314 365 302 370 c 0
 291 375 273 384 273 394 c 0
 273 402 286 405 293 405 c 0
 311 405 327 400 364 400 c 0
 401 400 401 405 423 405 c 0
 430 405 443 404 443 396 c 0
 443 386 431 382 420 378 c 0
 400 372 374 343 361 311 c 2
 225 -13 l 2
 221 -22 170 -148 129 -244 c 0
 117 -271 93 -285 64 -285 c 0
 40 -285 13 -271 13 -249 c 0xc4
EndSplineSet
EndChar

StartChar: Amacron
Encoding: 256 256 185
Width: 692
GlyphClass: 2
Flags: MW
ItalicCorrection: 12
HStem: -5 36 244 43<230 417 262 417 417 422 262 424> 723 54<223.5 500 237 482>
VStem: -2 178<4 93.5> 213 300<732 768> 489 208<1 90.5>
LayerCount: 2
Fore
SplineSet
237 777 m 2x28
 500 777 l 2
 506 777 513 771 513 765 c 0
 513 745 498 723 482 723 c 2
 227 723 l 2
 220 723 213 729 213 735 c 0
 213 744 218 777 237 777 c 2x28
333 542 m 2xd4
 243 302 l 2
 242 299 241 296 241 294 c 0
 241 287 249 287 262 287 c 2
 417 287 l 2
 427 287 431 287 431 292 c 0
 431 294 430 298 429 302 c 2
 350 541 l 2
 346 553 344 559 341 559 c 0
 339 559 337 553 333 542 c 2xd4
668 -5 m 0
 640 -5 574 1 529 1 c 0
 490 1 448 0 424 0 c 0
 407 0 395 4 395 12 c 0
 395 21 410 28 428 31 c 0
 472 38 489 54 489 76 c 0
 489 105 466 183 451 233 c 0
 448 243 442 244 424 244 c 2
 233 244 l 2
 227 244 221 240 216 226 c 0
 207 200 176 100 176 87 c 0
 176 58 202 38 234 30 c 0
 257 24 267 19 267 10 c 0
 267 2 255 -1 238 -1 c 0
 220 -1 184 1 147 1 c 0
 103 1 60 -5 27 -5 c 0
 10 -5 -2 0 -2 8 c 0
 -2 17 9 24 31 31 c 0
 65 41 95 58 117 108 c 0
 192 279 237 393 304 578 c 0
 319 620 316 635 318 636 c 0
 330 640 342 643 354 651 c 0
 368 660 370 686 375 686 c 0
 380 686 382 671 385 662 c 0
 449 459 530 223 563 128 c 0
 591 48 624 35 664 28 c 0
 687 24 697 14 697 5 c 0
 697 -3 685 -5 668 -5 c 0
EndSplineSet
EndChar

StartChar: amacron
Encoding: 257 257 186
Width: 399
GlyphClass: 2
Flags: MW
ItalicCorrection: 26
HStem: -14 46<100.5 177 327.5 337> 365 49<169 252.5> 500 55<81.5 298 95 280>
VStem: 35 80<68 86> 71 240<325 516.5> 238 68<89.5 148>
LayerCount: 2
Fore
SplineSet
95 555 m 2x28
 298 555 l 2
 304 555 311 549 311 543 c 0
 311 521 301 500 280 500 c 2
 85 500 l 2
 78 500 71 506 71 512 c 0
 71 521 76 555 95 555 c 2x28
342 32 m 0xd4
 360 32 371 36 382 46 c 0
 388 52 398 45 398 37 c 0
 398 29 356 -14 318 -14 c 0
 261 -14 252 38 244 38 c 0
 231 38 203 -13 121 -14 c 0
 80 -14 35 26 35 65 c 0
 35 107 59 135 108 155 c 2
 210 197 l 2
 236 208 237 210 238 237 c 2
 240 301 l 2
 241 335 217 365 181 365 c 0
 157 365 128 347 120 333 c 0
 117 328 116 321 116 314 c 0
 116 309 117 305 117 300 c 0
 117 286 61 265 48 265 c 0
 42 265 40 271 40 274 c 0
 40 295 55 321 80 343 c 0
 111 371 176 414 229 414 c 0
 276 414 312 374 311 325 c 2
 306 109 l 2
 306 70 313 32 342 32 c 0xd4
115 87 m 0
 115 49 145 32 164 32 c 0
 190 32 208 45 224 59 c 0
 231 65 235 74 236 99 c 2
 238 148 l 2
 239 163 237 169 229 169 c 0
 226 169 220 168 215 166 c 0
 138 140 115 110 115 87 c 0
EndSplineSet
EndChar

StartChar: Abreve
Encoding: 258 258 187
Width: 692
GlyphClass: 2
Flags: MW
ItalicCorrection: 12
HStem: -5 36 244 43<230 417 262 417 417 422 262 424> 692 60<341.5 384.5 341.5 405.5>
VStem: -2 178<4 93.5> 226 274<776 802.5> 489 208<1 90.5>
LayerCount: 2
Fore
SplineSet
260 799 m 0x28
 287 767 320 752 363 752 c 0
 406 752 439 767 466 799 c 0
 472 807 480 820 490 820 c 0
 500 820 500 809 500 796 c 0
 500 756 448 692 363 692 c 0
 278 692 226 756 226 796 c 0
 226 809 230 820 236 820 c 0
 246 820 254 807 260 799 c 0x28
333 542 m 2xd4
 243 302 l 2
 242 299 241 296 241 294 c 0
 241 287 249 287 262 287 c 2
 417 287 l 2
 427 287 431 287 431 292 c 0
 431 294 430 298 429 302 c 2
 350 541 l 2
 346 553 344 559 341 559 c 0
 339 559 337 553 333 542 c 2xd4
668 -5 m 0
 640 -5 574 1 529 1 c 0
 490 1 448 0 424 0 c 0
 407 0 395 4 395 12 c 0
 395 21 410 28 428 31 c 0
 472 38 489 54 489 76 c 0
 489 105 466 183 451 233 c 0
 448 243 442 244 424 244 c 2
 233 244 l 2
 227 244 221 240 216 226 c 0
 207 200 176 100 176 87 c 0
 176 58 202 38 234 30 c 0
 257 24 267 19 267 10 c 0
 267 2 255 -1 238 -1 c 0
 220 -1 184 1 147 1 c 0
 103 1 60 -5 27 -5 c 0
 10 -5 -2 0 -2 8 c 0
 -2 17 9 24 31 31 c 0
 65 41 95 58 117 108 c 0
 192 279 237 393 304 578 c 0
 319 620 316 635 318 636 c 0
 330 640 342 643 354 651 c 0
 368 660 370 686 375 686 c 0
 380 686 382 671 385 662 c 0
 449 459 530 223 563 128 c 0
 591 48 624 35 664 28 c 0
 687 24 697 14 697 5 c 0
 697 -3 685 -5 668 -5 c 0
EndSplineSet
EndChar

StartChar: abreve
Encoding: 259 259 188
Width: 399
GlyphClass: 2
Flags: MW
ItalicCorrection: 26
HStem: -14 46<100.5 177 327.5 337> 365 49<169 252.5> 478 60<166 216 166 226>
VStem: 35 80<68 86> 84 30 238 68<89.5 148> 268 30
LayerCount: 2
Fore
SplineSet
114 587 m 0x2a
 119 562 141 538 191 538 c 0
 241 538 263 562 268 587 c 0
 270 597 273 608 283 608 c 0
 293 608 298 597 298 584 c 0
 298 534 261 478 191 478 c 0
 121 478 84 534 84 584 c 0
 84 597 89 608 99 608 c 0
 109 608 112 597 114 587 c 0x2a
342 32 m 0xd4
 360 32 371 36 382 46 c 0
 388 52 398 45 398 37 c 0
 398 29 356 -14 318 -14 c 0
 261 -14 252 38 244 38 c 0
 231 38 203 -13 121 -14 c 0
 80 -14 35 26 35 65 c 0
 35 107 59 135 108 155 c 2
 210 197 l 2
 236 208 237 210 238 237 c 2
 240 301 l 2
 241 335 217 365 181 365 c 0
 157 365 128 347 120 333 c 0
 117 328 116 321 116 314 c 0
 116 309 117 305 117 300 c 0
 117 286 61 265 48 265 c 0
 42 265 40 271 40 274 c 0
 40 295 55 321 80 343 c 0
 111 371 176 414 229 414 c 0
 276 414 312 374 311 325 c 2
 306 109 l 2
 306 70 313 32 342 32 c 0xd4
115 87 m 0
 115 49 145 32 164 32 c 0
 190 32 208 45 224 59 c 0
 231 65 235 74 236 99 c 2
 238 148 l 2
 239 163 237 169 229 169 c 0
 226 169 220 168 215 166 c 0
 138 140 115 110 115 87 c 0
EndSplineSet
EndChar

StartChar: Aogonek
Encoding: 260 260 189
Width: 684
GlyphClass: 2
Flags: MW
ItalicCorrection: 12
HStem: -287 71<527.5 535> -5 36 244 43<230 417 262 417 417 422 262 424>
VStem: -2 178<4 93.5> 394 85<-172.5 -136.5> 489 208<1 90.5>
LayerCount: 2
Fore
SplineSet
508 -287 m 0
 445 -287 394 -237 394 -174 c 0
 394 -99 487 -30 536 1 c 1
 497 2 449 0 424 0 c 0
 407 0 395 4 395 12 c 0
 395 21 410 28 428 31 c 0
 472 38 489 54 489 76 c 0
 489 105 466 183 451 233 c 0
 448 243 442 244 424 244 c 2
 233 244 l 2
 227 244 221 240 216 226 c 0
 207 200 176 100 176 87 c 0
 176 58 202 38 234 30 c 0
 257 24 267 19 267 10 c 0
 267 2 255 -1 238 -1 c 0
 220 -1 184 1 147 1 c 0
 103 1 60 -5 27 -5 c 0
 10 -5 -2 0 -2 8 c 0
 -2 17 9 24 31 31 c 0
 65 41 95 58 117 108 c 0
 192 279 237 393 304 578 c 0
 319 620 316 635 318 636 c 0
 330 640 342 643 354 651 c 0
 368 660 370 676 375 676 c 0
 380 676 382 671 385 662 c 0
 449 459 530 223 563 128 c 0
 591 48 624 35 664 28 c 0
 687 24 697 14 697 5 c 0
 697 -3 685 -5 668 -5 c 0
 647 -5 605 -2 567 0 c 1
 534 -28 479 -85 479 -155 c 0
 479 -190 510 -216 545 -216 c 0
 580 -216 618 -181 627 -176 c 0
 632 -173 639 -174 639 -182 c 0
 639 -225 562 -287 508 -287 c 0
333 542 m 2
 243 302 l 2
 242 299 241 296 241 294 c 0
 241 287 249 287 262 287 c 2
 417 287 l 2
 427 287 431 287 431 292 c 0
 431 294 430 298 429 302 c 2
 350 541 l 2
 346 553 344 559 341 559 c 0
 339 559 337 553 333 542 c 2
EndSplineSet
EndChar

StartChar: aogonek
Encoding: 261 261 190
Width: 399
GlyphClass: 2
Flags: MW
ItalicCorrection: 26
HStem: -287 66<308 320> -14 46<100.5 177> 365 49<169 252.5>
VStem: 35 80<68 86> 191 74<-174 -144> 238 68<84.5 148>
LayerCount: 2
Fore
SplineSet
115 87 m 0xf4
 115 49 145 32 164 32 c 0
 190 32 208 45 224 59 c 0
 231 65 235 74 236 99 c 2
 238 148 l 2
 239 163 237 169 229 169 c 0
 226 169 220 168 215 166 c 0
 138 140 115 110 115 87 c 0xf4
292 -287 m 0
 234 -287 191 -253 191 -179 c 0xf8
 191 -109 254 -47 299 -12 c 1
 258 -2 251 38 244 38 c 0
 231 38 203 -13 121 -14 c 0
 80 -14 35 26 35 65 c 0
 35 107 59 135 108 155 c 2
 210 197 l 2
 236 208 237 210 238 237 c 2
 240 299 l 1
 240 301 l 2
 240 335 217 365 181 365 c 0
 157 365 128 347 120 333 c 0
 117 328 116 321 116 314 c 0
 116 309 117 305 117 300 c 0
 117 286 61 265 48 265 c 0
 42 265 40 271 40 274 c 0
 40 295 55 321 80 343 c 0
 111 371 176 414 229 414 c 0
 276 414 312 374 311 325 c 2
 306 109 l 1
 306 103 l 2xf4
 306 66 315 32 342 32 c 0
 360 32 371 36 382 46 c 0
 388 52 398 45 398 37 c 0
 398 36 397 35 397 34 c 0
 395 29 371 3 343 -9 c 1
 309 -37 265 -85 265 -152 c 0xf8
 265 -196 291 -221 325 -221 c 0
 360 -221 379 -200 384 -200 c 0
 388 -200 392 -201 392 -207 c 0
 392 -226 348 -287 292 -287 c 0
EndSplineSet
EndChar

StartChar: Cacute
Encoding: 262 262 191
Width: 640
GlyphClass: 2
Flags: MW
HStem: -15 31<322 399> 632 31<320.5 426 313 440> 685 153<347 459>
VStem: 46 100<265.5 420> 343 167<689.5 822> 576 37
LayerCount: 2
Fore
SplineSet
349 685 m 0
 345 685 343 688 343 691 c 0
 343 695 345 701 348 706 c 0
 372 746 398 786 425 825 c 0
 432 835 441 838 452 838 c 0
 466 838 510 829 510 815 c 0
 510 808 506 804 497 796 c 0
 457 762 407 724 367 694 c 0
 358 687 352 685 349 685 c 0
586 137 m 0
 592 148 606 152 611 156 c 0
 612 157 612 157 613 157 c 0
 617 157 620 147 620 138 c 0
 620 135 619 132 619 130 c 0
 615 105 601 49 586 26 c 0
 581 18 562 13 537 5 c 0
 502 -6 429 -15 369 -15 c 0
 187 -15 46 141 46 323 c 0
 46 517 216 663 410 663 c 0
 442 663 498 657 516 651 c 0
 534 645 572 636 592 633 c 0
 600 632 604 617 605 603 c 0
 609 572 612 546 613 494 c 0
 614 485 612 470 602 471 c 0
 591 472 580 485 576 508 c 0
 571 548 553 570 541 581 c 0
 531 591 486 632 394 632 c 0
 247 632 146 494 146 347 c 0
 146 184 244 16 400 16 c 0
 512 16 560 86 586 137 c 0
EndSplineSet
EndChar

StartChar: cacute
Encoding: 263 263 192
Width: 377
GlyphClass: 2
Flags: MW
HStem: -14 52<215 249> 376 37<184.5 239> 456 193<202.5 318.5>
VStem: 35 69<178 241.5> 198 157<464.5 634>
LayerCount: 2
Fore
SplineSet
237 478 m 0
 229 469 215 456 207 456 c 0
 198 456 198 460 198 469 c 0
 198 484 260 598 279 631 c 0
 285 641 296 649 306 649 c 0
 331 649 355 642 355 626 c 0
 355 612 268 511 237 478 c 0
333 319 m 0
 324 319 313 324 308 329 c 0
 275 365 264 376 214 376 c 0
 141 376 104 299 104 226 c 0
 104 130 167 38 263 38 c 0
 305 38 325 54 351 88 c 0
 354 91 357 93 360 93 c 0
 366 93 372 86 372 79 c 0
 372 42 292 -14 206 -14 c 0
 105 -14 35 77 35 180 c 0
 35 303 123 413 246 413 c 0
 289 413 336 402 366 365 c 0
 369 361 371 357 371 353 c 0
 371 336 343 319 333 319 c 0
EndSplineSet
EndChar

StartChar: Ccaron
Encoding: 268 268 193
Width: 640
GlyphClass: 2
Flags: MW
HStem: -15 31<322 399> 632 31<320.5 426 313 440> 700 122<245.5 388.5>
VStem: 46 100<265.5 420> 235 291<810 815> 576 37
LayerCount: 2
Fore
SplineSet
250 822 m 0
 263 822 345 782 371 767 c 0
 380 762 382 762 391 767 c 0
 417 782 499 823 512 823 c 0
 521 823 526 818 526 812 c 0
 526 808 525 804 520 800 c 2
 422 722 l 2
 402 706 396 700 381 700 c 0
 366 700 360 706 340 722 c 2
 242 800 l 2
 237 804 235 808 235 812 c 0
 235 818 241 822 250 822 c 0
586 137 m 0
 592 148 606 152 611 156 c 0
 612 157 612 157 613 157 c 0
 617 157 620 147 620 138 c 0
 620 135 619 132 619 130 c 0
 615 105 601 49 586 26 c 0
 581 18 562 13 537 5 c 0
 502 -6 429 -15 369 -15 c 0
 187 -15 46 141 46 323 c 0
 46 517 216 663 410 663 c 0
 442 663 498 657 516 651 c 0
 534 645 572 636 592 633 c 0
 600 632 604 617 605 603 c 0
 609 572 612 546 613 494 c 0
 614 485 612 470 602 471 c 0
 591 472 580 485 576 508 c 0
 571 548 553 570 541 581 c 0
 531 591 486 632 394 632 c 0
 247 632 146 494 146 347 c 0
 146 184 244 16 400 16 c 0
 512 16 560 86 586 137 c 0
EndSplineSet
EndChar

StartChar: ccaron
Encoding: 269 269 194
Width: 377
GlyphClass: 2
Flags: MW
HStem: -14 52<215 249> 376 37<184.5 239> 472 185<125.5 233>
VStem: 35 69<178 241.5> 121 216<637.5 648.5>
LayerCount: 2
Fore
SplineSet
226 550 m 0
 229 546 230 546 233 550 c 0
 255 580 286 620 299 635 c 0
 307 644 320 657 328 657 c 0
 337 657 337 653 337 644 c 0
 337 631 269 521 249 490 c 0
 244 482 237 472 229 472 c 0
 221 472 214 482 209 490 c 0
 189 521 121 631 121 644 c 0
 121 653 121 657 130 657 c 0
 138 657 152 644 160 635 c 0
 173 620 204 580 226 550 c 0
333 319 m 0
 324 319 313 324 308 329 c 0
 275 365 264 376 214 376 c 0
 141 376 104 299 104 226 c 0
 104 130 167 38 263 38 c 0
 305 38 325 54 351 88 c 0
 354 91 357 93 360 93 c 0
 366 93 372 86 372 79 c 0
 372 42 292 -14 206 -14 c 0
 105 -14 35 77 35 180 c 0
 35 303 123 413 246 413 c 0
 289 413 336 402 366 365 c 0
 369 361 371 357 371 353 c 0
 371 336 343 319 333 319 c 0
EndSplineSet
EndChar

StartChar: Dcaron
Encoding: 270 270 195
Width: 754
GlyphClass: 2
Flags: MW
HStem: -7 35<361 437 321.5 466.5> 628 31<326.5 413.5> 700 122<206.5 349.5>
VStem: 129 80<99 121 121 549 549 567> 196 291<810 815> 624 95<246 421>
LayerCount: 2
Fore
SplineSet
211 822 m 0x28
 224 822 306 782 332 767 c 0
 341 762 343 762 352 767 c 0
 378 782 460 823 473 823 c 0
 482 823 487 818 487 812 c 0
 487 808 486 804 481 800 c 2
 383 722 l 2
 363 706 357 700 342 700 c 0
 327 700 321 706 301 722 c 2
 203 800 l 2
 198 804 196 808 196 812 c 0
 196 818 202 822 211 822 c 0x28
209 121 m 2xd4
 209 40 284 28 359 28 c 0
 515 28 624 151 624 325 c 0
 624 517 482 628 345 628 c 0
 258 628 209 627 209 567 c 2
 209 121 l 2xd4
371 -7 m 0
 351 -7 242 0 163 0 c 0
 123 0 111 -5 58 -5 c 0
 41 -5 29 -2 29 6 c 0
 29 15 39 20 62 24 c 0
 112 33 129 51 129 99 c 2
 129 549 l 2
 129 597 112 613 62 622 c 0
 39 626 29 633 29 642 c 0
 29 650 41 653 58 653 c 0
 112 653 121 651 162 651 c 2
 169 651 l 2
 212 651 313 659 340 659 c 0
 611 659 719 517 719 342 c 0
 719 150 562 -7 371 -7 c 0
EndSplineSet
EndChar

StartChar: dcaron
Encoding: 271 271 196
Width: 506
GlyphClass: 2
Flags: MW
ItalicCorrection: 131
HStem: -14 45<235 253> 21 24 379 35<209.5 268> 512 193<466 515> 684 20<415 424>
VStem: 35 74<139.5 248> 352 70<120 255 255 283 408 562> 461 61
LayerCount: 2
Fore
SplineSet
459 657 m 0x11
 459 678 488 705 509 705 c 0
 521 705 522 691 522 675 c 0
 522 638 507 574 489 537 c 0
 481 520 474 512 468 512 c 0
 464 512 461 522 461 535 c 0
 461 540 464 569 464 584 c 0
 464 621 459 641 459 657 c 0x11
229 379 m 0xae
 190 379 109 347 109 213 c 0
 109 62 213 31 257 31 c 0
 313 31 352 72 352 120 c 2
 352 255 l 2
 352 311 307 379 229 379 c 0xae
338 393 m 0
 342 388 346 384 348 384 c 0
 351 384 352 390 352 408 c 2
 352 566 l 2
 352 620 335 632 301 639 c 0
 296 640 293 646 293 652 c 0
 293 657 295 663 300 664 c 0
 373 681 408 704 422 704 c 0
 426 704 428 702 429 698 c 0
 429 686 422 652 422 562 c 2
 422 110 l 2
 422 68 427 45 443 45 c 0
 453 45 479 46 489 48 c 0
 494 49 504 47 504 35 c 0
 504 24 495 21 490 21 c 0x6e
 438 14 402 -1 373 -13 c 0
 369 -15 355 -19 349 -19 c 0
 345 -19 346 -18 346 -15 c 0
 346 -2 351 34 351 51 c 2
 351 57 l 1
 331 26 286 -14 220 -14 c 0
 106 -14 35 89 35 190 c 0
 35 306 120 414 260 414 c 0
 288 414 332 400 338 393 c 0
EndSplineSet
EndChar

StartChar: Dcroat
Encoding: 272 272 197
Width: 754
GlyphClass: 2
Flags: MW
HStem: -7 35 317 36<55.5 129 70 129 70 129 210 359> 628 31<326.5 423.5>
VStem: 129 81<100.5 121 121 317 353 549 549 567> 609 95<269.5 424.5>
LayerCount: 2
Fore
SplineSet
371 -7 m 0
 351 -7 242 0 163 0 c 0
 123 0 111 -5 58 -5 c 0
 41 -5 29 -2 29 6 c 0
 29 15 39 20 62 24 c 0
 112 33 129 51 129 99 c 2
 129 317 l 1
 60 317 l 2
 51 317 46 329 46 335 c 0
 46 344 58 353 70 353 c 2
 129 353 l 1
 129 549 l 2
 129 597 112 613 62 622 c 0
 39 626 29 633 29 642 c 0
 29 650 41 653 58 653 c 0
 112 653 121 651 162 651 c 2
 169 651 l 2
 212 651 313 659 340 659 c 0
 611 659 704 530 704 335 c 0
 704 149 562 -7 371 -7 c 0
609 346 m 0
 609 503 502 628 345 628 c 0
 258 628 210 627 210 567 c 2
 210 353 l 1
 377 353 l 2
 383 353 391 348 391 342 c 0
 391 341 390 340 390 339 c 0
 383 326 374 317 359 317 c 2
 210 317 l 1
 210 121 l 2
 210 80 224 66 245 50 c 0
 269 32 292 28 317 28 c 0
 335 28 354 30 376 30 c 0
 529 30 609 193 609 346 c 0
EndSplineSet
EndChar

StartChar: dcroat
Encoding: 273 273 198
Width: 506
GlyphClass: 2
Flags: MW
ItalicCorrection: 28
HStem: -19 50 21 24 379 35<209.5 268> 535 36<209.5 352 224 352 224 352 422 485> 684 20G<415 424>
VStem: 35 74<139.5 248> 352 70<120 255 255 283 408 535>
LayerCount: 2
Fore
SplineSet
338 393 m 0xbe
 342 388 346 384 348 384 c 0
 351 384 352 390 352 408 c 2
 352 535 l 1
 214 535 l 2
 205 535 200 547 200 553 c 0
 200 562 212 571 224 571 c 2
 352 571 l 1
 351 621 334 632 301 639 c 0
 296 640 293 646 293 652 c 0
 293 657 295 663 300 664 c 0
 373 681 408 704 422 704 c 0
 426 704 428 702 429 698 c 0
 429 686 422 654 422 571 c 1
 503 571 l 2
 509 571 517 566 517 560 c 0
 517 559 516 558 516 557 c 0
 509 544 500 535 485 535 c 2
 422 535 l 1
 422 110 l 2
 422 68 427 45 443 45 c 0
 453 45 479 46 489 48 c 0
 494 49 504 47 504 35 c 0
 504 24 495 21 490 21 c 0x7e
 438 14 402 -1 373 -13 c 0
 369 -15 355 -19 349 -19 c 0
 345 -19 346 -18 346 -15 c 0
 346 -2 351 34 351 51 c 2
 351 57 l 1
 331 26 286 -14 220 -14 c 0
 106 -14 35 89 35 190 c 0
 35 306 120 414 260 414 c 0
 288 414 332 400 338 393 c 0xbe
229 379 m 0
 190 379 109 347 109 213 c 0
 109 62 213 31 257 31 c 0xbe
 313 31 352 72 352 120 c 2
 352 255 l 2
 352 311 307 379 229 379 c 0
EndSplineSet
EndChar

StartChar: Emacron
Encoding: 274 274 199
Width: 535
GlyphClass: 2
Flags: MW
ItalicCorrection: 14
HStem: -5 29 -5 40 320 32<232.5 244 244 324 324 337> 388 20<400.5 405.5> 618 35 723 54<147.5 424 161 406>
VStem: 130 80<99 102 102 294 368 374 374 549 549 573> 137 300<732 768> 383 32 466 25
LayerCount: 2
Fore
SplineSet
161 777 m 2x05
 424 777 l 2
 430 777 437 771 437 765 c 0
 437 745 422 723 406 723 c 2
 151 723 l 2
 144 723 137 729 137 735 c 0
 137 744 142 777 161 777 c 2x05
210 102 m 2xbac0
 210 51 231 35 276 35 c 2
 380 35 l 2x7ac0
 430 35 443 43 456 53 c 0
 474 67 490 99 498 116 c 0
 502 124 505 127 512 126 c 0
 519 125 525 123 525 115 c 0
 525 97 515 38 508 12 c 0
 506 3 502 -5 494 -5 c 0
 366 -5 267 1 167 1 c 0
 122 1 106 -5 52 -5 c 0
 35 -5 23 -2 23 6 c 0
 23 15 33 20 56 24 c 0
 106 33 130 51 130 99 c 2
 130 549 l 2
 130 597 113 613 63 622 c 0
 40 626 30 633 30 642 c 0
 30 650 42 653 59 653 c 0
 134 653 166 650 236 650 c 0
 327 650 448 653 458 653 c 0
 465 653 475 651 476 644 c 0
 483 606 491 568 491 541 c 0
 491 529 483 526 477 526 c 0
 470 526 468 529 466 536 c 0
 459 558 453 581 444 591 c 0
 425 612 402 618 377 618 c 2
 246 618 l 2
 235 618 210 605 210 586 c 2
 210 374 l 2
 210 362 218 352 228 352 c 2
 324 352 l 2
 353 352 375 368 385 391 c 0
 387 396 398 408 403 408 c 0
 408 408 416 402 416 392 c 0
 416 383 413 353 413 337 c 0
 413 317 415 277 415 269 c 0
 415 260 414 252 406 252 c 0
 393 252 385 268 383 275 c 0
 373 306 354 320 337 320 c 2
 244 320 l 2
 221 320 210 317 210 294 c 2
 210 102 l 2xbac0
EndSplineSet
EndChar

StartChar: emacron
Encoding: 275 275 200
Width: 390
GlyphClass: 2
Flags: MW
ItalicCorrection: 8
HStem: -14 60<198 244> 257 31<109 212 130 212 212 226.5 130 325> 383 31<185 232.5> 500 55<101.5 318 115 300>
VStem: 30 62<175 237 175 259.5> 91 240<509 546> 295 65<315.5 339 287 341> 339 17
LayerCount: 2
Fore
SplineSet
115 555 m 2x14
 318 555 l 2
 324 555 331 549 331 543 c 0
 331 521 321 500 300 500 c 2
 105 500 l 2
 98 500 91 506 91 512 c 0
 91 521 96 555 115 555 c 2x14
213 383 m 0xea
 157 383 111 329 111 303 c 0
 111 295 116 288 130 288 c 2
 212 288 l 2
 241 288 264 289 285 293 c 0
 292 294 295 310 295 321 c 0
 295 361 252 383 213 383 c 0xea
229 414 m 0
 306 414 360 376 360 302 c 0xea
 360 272 351 257 325 257 c 2
 117 257 l 2
 101 257 92 254 92 220 c 0
 92 130 153 46 243 46 c 0
 268 46 313 57 339 91 c 0
 342 94 347 98 350 98 c 0
 357 98 358 86 356 78 c 0xe9
 346 43 290 -14 198 -14 c 0
 107 -14 30 70 30 203 c 0
 30 316 116 414 229 414 c 0
EndSplineSet
EndChar

